SplineFontDB: 3.2
FontName: PixeloidMono
FullName: Pixeloid Mono
FamilyName: Pixeloid Mono
Weight: Book
Copyright: (c) 2020-2025 GGBotNet
Version: 0.6
ItalicAngle: 0
UnderlinePosition: -325.717
UnderlineWidth: 167.32
Ascent: 1638
Descent: 410
InvalidEm: 0
sfntRevision: 0x0000999a
LayerCount: 4
Layer: 0 1 "Back" 1
Layer: 1 1 "Fore" 0
Layer: 2 0 "Back 2" 1
Layer: 3 0 "Back 3" 1
XUID: [1021 837 -1594515998 16329352]
StyleMap: 0x0040
FSType: 0
OS2Version: 4
OS2_WeightWidthSlopeOnly: 1
OS2_UseTypoMetrics: 0
CreationTime: 1607334514
ModificationTime: 1765738337
PfmFamily: 17
TTFWeight: 400
TTFWidth: 5
LineGap: 27
VLineGap: 0
Panose: 2 11 6 9 0 0 0 0 0 0
OS2TypoAscent: 1761
OS2TypoAOffset: 0
OS2TypoDescent: -455
OS2TypoDOffset: 0
OS2TypoLinegap: 229
OS2WinAscent: 2048
OS2WinAOffset: 0
OS2WinDescent: 455
OS2WinDOffset: 0
HheadAscent: 2048
HheadAOffset: 0
HheadDescent: -455
HheadDOffset: 0
OS2SubXSize: 1600
OS2SubYSize: 1485
OS2SubXOff: 0
OS2SubYOff: 342
OS2SupXSize: 1600
OS2SupYSize: 1485
OS2SupXOff: 0
OS2SupYOff: 1028
OS2StrikeYSize: 114
OS2StrikeYPos: 591
OS2CapHeight: 1593
OS2XHeight: 1138
OS2FamilyClass: 2048
OS2Vendor: 'AAL '
OS2CodePages: 0000009f.00000000
OS2UnicodeRanges: e000028f.02003002.00000000.00000000
Lookup: 1 0 0 "'salt' Stylistic Alternatives lookup 0" { "'salt' Stylistic Alternatives lookup 0 subtable"  } ['aalt' ('DFLT' <'dflt' > 'cyrl' <'dflt' > 'latn' <'dflt' > ) 'salt' ('DFLT' <'dflt' > 'cyrl' <'dflt' > 'latn' <'dflt' > ) ]
Lookup: 258 8 0 "'kern' Horizontal Kerning lookup 0" { "'kern' Horizontal Kerning lookup 0 subtable"  } ['kern' ('DFLT' <'dflt' > 'cyrl' <'dflt' > 'latn' <'dflt' > ) ]
MarkAttachClasses: 1
DEI: 91125
ShortTable: maxp 16
  1
  0
  1124
  96
  24
  0
  0
  1
  0
  0
  0
  0
  0
  0
  0
  0
EndShort

StartChar: .notdef
Encoding: 0 0 0
AltUni2: 00001d.ffffffff.0 00001d.ffffffff.0
Width: 1365
GlyphClass: 2
Flags: W
LayerCount: 4
Fore
SplineSet
0 1593 m 1,0,-1
 1138 1593 l 1,1,-1
 1138 0 l 1,2,-1
 0 0 l 1,3,-1
 0 1593 l 1,0,-1
228 1365 m 1,4,-1
 228 228 l 1,5,-1
 910 228 l 1,6,-1
 910 1365 l 1,7,-1
 228 1365 l 1,4,-1
EndSplineSet
Validated: 1
PairPos2: "'kern' Horizontal Kerning lookup 0 subtable" .notdef dx=0 dy=0 dh=0 dv=0 dx=0 dy=0 dh=0 dv=0
EndChar

StartChar: exclam
Encoding: 33 33 2
Width: 1365
GlyphClass: 2
Flags: W
LayerCount: 4
Fore
SplineSet
683 0 m 1,0,-1
 455 0 l 1,1,-1
 455 228 l 1,2,-1
 683 228 l 1,3,-1
 683 0 l 1,0,-1
683 455 m 1,4,-1
 455 455 l 1,5,-1
 455 1593 l 1,6,-1
 683 1593 l 1,7,-1
 683 455 l 1,4,-1
EndSplineSet
Validated: 1
EndChar

StartChar: quotedbl
Encoding: 34 34 3
Width: 1365
GlyphClass: 2
Flags: W
LayerCount: 4
Fore
SplineSet
455 1138 m 1,0,-1
 228 1138 l 1,1,-1
 228 1593 l 1,2,-1
 455 1593 l 1,3,-1
 455 1138 l 1,0,-1
910 1138 m 1,4,-1
 683 1138 l 1,5,-1
 683 1593 l 1,6,-1
 910 1593 l 1,7,-1
 910 1138 l 1,4,-1
EndSplineSet
Validated: 1
EndChar

StartChar: numbersign
Encoding: 35 35 4
Width: 1365
GlyphClass: 2
Flags: W
LayerCount: 4
Fore
SplineSet
228 455 m 1,0,-1
 228 1138 l 1,1,-1
 0 1138 l 1,2,-1
 0 1365 l 1,3,-1
 228 1365 l 1,4,-1
 228 1593 l 1,5,-1
 455 1593 l 1,6,-1
 455 1365 l 1,7,-1
 683 1365 l 1,8,-1
 683 1593 l 1,9,-1
 910 1593 l 1,10,-1
 910 1365 l 1,11,-1
 1138 1365 l 1,12,-1
 1138 1138 l 1,13,-1
 910 1138 l 1,14,-1
 910 455 l 1,15,-1
 1138 455 l 1,16,-1
 1138 228 l 1,17,-1
 910 228 l 1,18,-1
 910 0 l 1,19,-1
 683 0 l 1,20,-1
 683 228 l 1,21,-1
 455 228 l 1,22,-1
 455 0 l 1,23,-1
 228 0 l 1,24,-1
 228 228 l 1,25,-1
 0 228 l 1,26,-1
 0 455 l 1,27,-1
 228 455 l 1,0,-1
455 1138 m 1,28,-1
 455 455 l 1,29,-1
 683 455 l 1,30,-1
 683 1138 l 1,31,-1
 455 1138 l 1,28,-1
EndSplineSet
Validated: 1
EndChar

StartChar: dollar
Encoding: 36 36 5
Width: 1365
GlyphClass: 2
Flags: W
LayerCount: 4
Fore
SplineSet
228 228 m 1,0,-1
 0 228 l 1,1,-1
 0 455 l 1,2,-1
 228 455 l 1,3,-1
 228 228 l 1,0,-1
683 228 m 1,4,-1
 910 228 l 1,5,-1
 910 0 l 1,6,-1
 683 0 l 1,7,-1
 683 -228 l 1,8,-1
 455 -228 l 1,9,-1
 455 0 l 1,10,-1
 228 0 l 1,11,-1
 228 228 l 1,12,-1
 455 228 l 1,13,-1
 455 683 l 1,14,-1
 228 683 l 1,15,-1
 228 910 l 1,16,-1
 455 910 l 1,17,-1
 455 1365 l 1,18,-1
 228 1365 l 1,19,-1
 228 1593 l 1,20,-1
 455 1593 l 1,21,-1
 455 1820 l 1,22,-1
 683 1820 l 1,23,-1
 683 1593 l 1,24,-1
 910 1593 l 1,25,-1
 910 1365 l 1,26,-1
 683 1365 l 1,27,-1
 683 910 l 1,28,-1
 910 910 l 1,29,-1
 910 683 l 1,30,-1
 683 683 l 1,31,-1
 683 228 l 1,4,-1
228 910 m 1,32,-1
 0 910 l 1,33,-1
 0 1365 l 1,34,-1
 228 1365 l 1,35,-1
 228 910 l 1,32,-1
1138 1138 m 1,36,-1
 910 1138 l 1,37,-1
 910 1365 l 1,38,-1
 1138 1365 l 1,39,-1
 1138 1138 l 1,36,-1
1138 228 m 1,40,-1
 910 228 l 1,41,-1
 910 683 l 1,42,-1
 1138 683 l 1,43,-1
 1138 228 l 1,40,-1
EndSplineSet
Validated: 5
EndChar

StartChar: percent
Encoding: 37 37 6
Width: 1365
GlyphClass: 2
Flags: W
LayerCount: 4
Fore
SplineSet
228 0 m 1,0,-1
 0 0 l 1,1,-1
 0 455 l 1,2,-1
 228 455 l 1,3,-1
 228 0 l 1,0,-1
1138 1138 m 1,4,-1
 910 1138 l 1,5,-1
 910 1593 l 1,6,-1
 1138 1593 l 1,7,-1
 1138 1138 l 1,4,-1
455 455 m 1,8,-1
 228 455 l 1,9,-1
 228 683 l 1,10,-1
 455 683 l 1,11,-1
 455 455 l 1,8,-1
683 683 m 1,12,-1
 455 683 l 1,13,-1
 455 910 l 1,14,-1
 683 910 l 1,15,-1
 683 683 l 1,12,-1
910 910 m 1,16,-1
 683 910 l 1,17,-1
 683 1138 l 1,18,-1
 910 1138 l 1,19,-1
 910 910 l 1,16,-1
455 1138 m 1,20,-1
 0 1138 l 1,21,-1
 0 1593 l 1,22,-1
 455 1593 l 1,23,-1
 455 1138 l 1,20,-1
1138 0 m 1,24,-1
 683 0 l 1,25,-1
 683 455 l 1,26,-1
 1138 455 l 1,27,-1
 1138 0 l 1,24,-1
EndSplineSet
Validated: 5
EndChar

StartChar: ampersand
Encoding: 38 38 7
Width: 1365
GlyphClass: 2
Flags: W
LayerCount: 4
Fore
SplineSet
455 1365 m 1,0,-1
 228 1365 l 1,1,-1
 228 1593 l 1,2,-1
 455 1593 l 1,3,-1
 455 1365 l 1,0,-1
1138 0 m 1,4,-1
 910 0 l 1,5,-1
 910 228 l 1,6,-1
 1138 228 l 1,7,-1
 1138 0 l 1,4,-1
910 228 m 1,8,-1
 683 228 l 1,9,-1
 683 455 l 1,10,-1
 910 455 l 1,11,-1
 910 228 l 1,8,-1
683 455 m 1,12,-1
 455 455 l 1,13,-1
 455 683 l 1,14,-1
 683 683 l 1,15,-1
 683 455 l 1,12,-1
455 683 m 1,16,-1
 228 683 l 1,17,-1
 228 910 l 1,18,-1
 455 910 l 1,19,-1
 455 683 l 1,16,-1
228 910 m 1,20,-1
 0 910 l 1,21,-1
 0 1365 l 1,22,-1
 228 1365 l 1,23,-1
 228 910 l 1,20,-1
683 910 m 1,24,-1
 455 910 l 1,25,-1
 455 1365 l 1,26,-1
 683 1365 l 1,27,-1
 683 910 l 1,24,-1
683 0 m 1,28,-1
 228 0 l 1,29,-1
 228 228 l 1,30,-1
 683 228 l 1,31,-1
 683 0 l 1,28,-1
228 228 m 1,32,-1
 0 228 l 1,33,-1
 0 683 l 1,34,-1
 228 683 l 1,35,-1
 228 228 l 1,32,-1
1138 455 m 1,36,-1
 910 455 l 1,37,-1
 910 683 l 1,38,-1
 1138 683 l 1,39,-1
 1138 455 l 1,36,-1
EndSplineSet
Validated: 5
EndChar

StartChar: quotesingle
Encoding: 39 39 8
Width: 1365
GlyphClass: 2
Flags: W
LayerCount: 4
Fore
SplineSet
683 1138 m 1,0,-1
 455 1138 l 1,1,-1
 455 1593 l 1,2,-1
 683 1593 l 1,3,-1
 683 1138 l 1,0,-1
EndSplineSet
Validated: 1
EndChar

StartChar: parenleft
Encoding: 40 40 9
Width: 1365
GlyphClass: 2
Flags: W
LayerCount: 4
Fore
SplineSet
228 228 m 1,0,-1
 0 228 l 1,1,-1
 0 1138 l 1,2,-1
 228 1138 l 1,3,-1
 228 228 l 1,0,-1
1138 -228 m 1,4,-1
 455 -228 l 1,5,-1
 455 0 l 1,6,-1
 1138 0 l 1,7,-1
 1138 -228 l 1,4,-1
1138 1365 m 1,8,-1
 455 1365 l 1,9,-1
 455 1593 l 1,10,-1
 1138 1593 l 1,11,-1
 1138 1365 l 1,8,-1
455 0 m 1,12,-1
 228 0 l 1,13,-1
 228 228 l 1,14,-1
 455 228 l 1,15,-1
 455 0 l 1,12,-1
455 1138 m 1,16,-1
 228 1138 l 1,17,-1
 228 1365 l 1,18,-1
 455 1365 l 1,19,-1
 455 1138 l 1,16,-1
EndSplineSet
Validated: 5
EndChar

StartChar: parenright
Encoding: 41 41 10
Width: 1365
GlyphClass: 2
Flags: W
LayerCount: 4
Fore
SplineSet
910 228 m 1,0,-1
 910 1138 l 1,1,-1
 1138 1138 l 1,2,-1
 1138 228 l 1,3,-1
 910 228 l 1,0,-1
0 -228 m 1,4,-1
 0 0 l 1,5,-1
 683 0 l 1,6,-1
 683 -228 l 1,7,-1
 0 -228 l 1,4,-1
0 1365 m 1,8,-1
 0 1593 l 1,9,-1
 683 1593 l 1,10,-1
 683 1365 l 1,11,-1
 0 1365 l 1,8,-1
683 0 m 1,12,-1
 683 228 l 1,13,-1
 910 228 l 1,14,-1
 910 0 l 1,15,-1
 683 0 l 1,12,-1
683 1138 m 1,16,-1
 683 1365 l 1,17,-1
 910 1365 l 1,18,-1
 910 1138 l 1,19,-1
 683 1138 l 1,16,-1
EndSplineSet
Validated: 5
EndChar

StartChar: asterisk
Encoding: 42 42 11
Width: 1365
GlyphClass: 2
Flags: W
LayerCount: 4
Fore
SplineSet
455 1365 m 1,0,-1
 228 1365 l 1,1,-1
 228 1593 l 1,2,-1
 455 1593 l 1,3,-1
 455 1365 l 1,0,-1
455 910 m 1,4,-1
 228 910 l 1,5,-1
 228 1138 l 1,6,-1
 455 1138 l 1,7,-1
 455 910 l 1,4,-1
683 1138 m 1,8,-1
 455 1138 l 1,9,-1
 455 1365 l 1,10,-1
 683 1365 l 1,11,-1
 683 1138 l 1,8,-1
910 1365 m 1,12,-1
 683 1365 l 1,13,-1
 683 1593 l 1,14,-1
 910 1593 l 1,15,-1
 910 1365 l 1,12,-1
910 910 m 1,16,-1
 683 910 l 1,17,-1
 683 1138 l 1,18,-1
 910 1138 l 1,19,-1
 910 910 l 1,16,-1
EndSplineSet
Validated: 5
EndChar

StartChar: plus
Encoding: 43 43 12
Width: 1365
GlyphClass: 2
Flags: W
LayerCount: 4
Fore
SplineSet
683 910 m 1,0,-1
 1138 910 l 1,1,-1
 1138 683 l 1,2,-1
 683 683 l 1,3,-1
 683 228 l 1,4,-1
 455 228 l 1,5,-1
 455 683 l 1,6,-1
 0 683 l 1,7,-1
 0 910 l 1,8,-1
 455 910 l 1,9,-1
 455 1365 l 1,10,-1
 683 1365 l 1,11,-1
 683 910 l 1,0,-1
EndSplineSet
Validated: 1
EndChar

StartChar: comma
Encoding: 44 44 13
Width: 1365
GlyphClass: 2
Flags: W
LayerCount: 4
Fore
SplineSet
683 -228 m 1,0,-1
 455 -228 l 1,1,-1
 455 228 l 1,2,-1
 683 228 l 1,3,-1
 683 -228 l 1,0,-1
EndSplineSet
Validated: 1
EndChar

StartChar: hyphen
Encoding: 45 45 14
AltUni2: 0000ad.ffffffff.0 0000ad.ffffffff.0
Width: 1365
GlyphClass: 2
Flags: W
LayerCount: 4
Fore
SplineSet
1138 683 m 1,0,-1
 0 683 l 1,1,-1
 0 910 l 1,2,-1
 1138 910 l 1,3,-1
 1138 683 l 1,0,-1
EndSplineSet
Validated: 1
EndChar

StartChar: period
Encoding: 46 46 15
Width: 1365
GlyphClass: 2
Flags: W
LayerCount: 4
Fore
SplineSet
683 0 m 1,0,-1
 455 0 l 1,1,-1
 455 228 l 1,2,-1
 683 228 l 1,3,-1
 683 0 l 1,0,-1
EndSplineSet
Validated: 1
EndChar

StartChar: slash
Encoding: 47 47 16
Width: 1365
GlyphClass: 2
Flags: W
LayerCount: 4
Fore
SplineSet
228 0 m 1,0,-1
 0 0 l 1,1,-1
 0 455 l 1,2,-1
 228 455 l 1,3,-1
 228 0 l 1,0,-1
1138 1138 m 1,4,-1
 910 1138 l 1,5,-1
 910 1593 l 1,6,-1
 1138 1593 l 1,7,-1
 1138 1138 l 1,4,-1
455 455 m 1,8,-1
 228 455 l 1,9,-1
 228 683 l 1,10,-1
 455 683 l 1,11,-1
 455 455 l 1,8,-1
683 683 m 1,12,-1
 455 683 l 1,13,-1
 455 910 l 1,14,-1
 683 910 l 1,15,-1
 683 683 l 1,12,-1
910 910 m 1,16,-1
 683 910 l 1,17,-1
 683 1138 l 1,18,-1
 910 1138 l 1,19,-1
 910 910 l 1,16,-1
EndSplineSet
Validated: 5
EndChar

StartChar: zero
Encoding: 48 48 17
Width: 1365
GlyphClass: 2
Flags: W
LayerCount: 4
Fore
SplineSet
683 683 m 1,0,-1
 455 683 l 1,1,-1
 455 910 l 1,2,-1
 683 910 l 1,3,-1
 683 683 l 1,0,-1
228 228 m 1,4,-1
 0 228 l 1,5,-1
 0 1365 l 1,6,-1
 228 1365 l 1,7,-1
 228 228 l 1,4,-1
1138 228 m 1,8,-1
 910 228 l 1,9,-1
 910 1365 l 1,10,-1
 1138 1365 l 1,11,-1
 1138 228 l 1,8,-1
910 1365 m 1,12,-1
 228 1365 l 1,13,-1
 228 1593 l 1,14,-1
 910 1593 l 1,15,-1
 910 1365 l 1,12,-1
910 0 m 1,16,-1
 228 0 l 1,17,-1
 228 228 l 1,18,-1
 910 228 l 1,19,-1
 910 0 l 1,16,-1
EndSplineSet
Validated: 5
EndChar

StartChar: one
Encoding: 49 49 18
Width: 1365
GlyphClass: 2
Flags: W
LayerCount: 4
Fore
SplineSet
683 228 m 1,0,-1
 1138 228 l 1,1,-1
 1138 0 l 1,2,-1
 0 0 l 1,3,-1
 0 228 l 1,4,-1
 455 228 l 1,5,-1
 455 1365 l 1,6,-1
 0 1365 l 1,7,-1
 0 1593 l 1,8,-1
 683 1593 l 1,9,-1
 683 228 l 1,0,-1
EndSplineSet
Validated: 1
EndChar

StartChar: two
Encoding: 50 50 19
Width: 1365
GlyphClass: 2
Flags: W
LayerCount: 4
Fore
SplineSet
228 1138 m 1,0,-1
 0 1138 l 1,1,-1
 0 1365 l 1,2,-1
 228 1365 l 1,3,-1
 228 1138 l 1,0,-1
910 1365 m 1,4,-1
 228 1365 l 1,5,-1
 228 1593 l 1,6,-1
 910 1593 l 1,7,-1
 910 1365 l 1,4,-1
1138 910 m 1,8,-1
 910 910 l 1,9,-1
 910 1365 l 1,10,-1
 1138 1365 l 1,11,-1
 1138 910 l 1,8,-1
910 683 m 1,12,-1
 683 683 l 1,13,-1
 683 910 l 1,14,-1
 910 910 l 1,15,-1
 910 683 l 1,12,-1
683 455 m 1,16,-1
 455 455 l 1,17,-1
 455 683 l 1,18,-1
 683 683 l 1,19,-1
 683 455 l 1,16,-1
455 228 m 1,20,-1
 1138 228 l 1,21,-1
 1138 0 l 1,22,-1
 0 0 l 1,23,-1
 0 228 l 1,24,-1
 228 228 l 1,25,-1
 228 455 l 1,26,-1
 455 455 l 1,27,-1
 455 228 l 1,20,-1
EndSplineSet
Validated: 5
EndChar

StartChar: three
Encoding: 51 51 20
Width: 1365
GlyphClass: 2
Flags: W
LayerCount: 4
Fore
SplineSet
228 1138 m 1,0,-1
 0 1138 l 1,1,-1
 0 1365 l 1,2,-1
 228 1365 l 1,3,-1
 228 1138 l 1,0,-1
910 1365 m 1,4,-1
 228 1365 l 1,5,-1
 228 1593 l 1,6,-1
 910 1593 l 1,7,-1
 910 1365 l 1,4,-1
1138 910 m 1,8,-1
 910 910 l 1,9,-1
 910 1365 l 1,10,-1
 1138 1365 l 1,11,-1
 1138 910 l 1,8,-1
910 683 m 1,12,-1
 455 683 l 1,13,-1
 455 910 l 1,14,-1
 910 910 l 1,15,-1
 910 683 l 1,12,-1
1138 228 m 1,16,-1
 910 228 l 1,17,-1
 910 683 l 1,18,-1
 1138 683 l 1,19,-1
 1138 228 l 1,16,-1
910 0 m 1,20,-1
 228 0 l 1,21,-1
 228 228 l 1,22,-1
 910 228 l 1,23,-1
 910 0 l 1,20,-1
228 228 m 1,24,-1
 0 228 l 1,25,-1
 0 455 l 1,26,-1
 228 455 l 1,27,-1
 228 228 l 1,24,-1
EndSplineSet
Validated: 5
EndChar

StartChar: four
Encoding: 52 52 21
Width: 1365
GlyphClass: 2
Flags: W
LayerCount: 4
Fore
SplineSet
455 910 m 1,0,-1
 228 910 l 1,1,-1
 228 1138 l 1,2,-1
 455 1138 l 1,3,-1
 455 910 l 1,0,-1
910 455 m 1,4,-1
 910 0 l 1,5,-1
 683 0 l 1,6,-1
 683 455 l 1,7,-1
 0 455 l 1,8,-1
 0 910 l 1,9,-1
 228 910 l 1,10,-1
 228 683 l 1,11,-1
 683 683 l 1,12,-1
 683 1138 l 1,13,-1
 455 1138 l 1,14,-1
 455 1365 l 1,15,-1
 683 1365 l 1,16,-1
 683 1593 l 1,17,-1
 910 1593 l 1,18,-1
 910 683 l 1,19,-1
 1138 683 l 1,20,-1
 1138 455 l 1,21,-1
 910 455 l 1,4,-1
EndSplineSet
Validated: 5
EndChar

StartChar: five
Encoding: 53 53 22
Width: 1365
GlyphClass: 2
Flags: W
LayerCount: 4
Fore
SplineSet
1138 228 m 1,0,-1
 910 228 l 1,1,-1
 910 683 l 1,2,-1
 1138 683 l 1,3,-1
 1138 228 l 1,0,-1
910 0 m 1,4,-1
 228 0 l 1,5,-1
 228 228 l 1,6,-1
 910 228 l 1,7,-1
 910 0 l 1,4,-1
228 228 m 1,8,-1
 0 228 l 1,9,-1
 0 455 l 1,10,-1
 228 455 l 1,11,-1
 228 228 l 1,8,-1
228 910 m 1,12,-1
 910 910 l 1,13,-1
 910 683 l 1,14,-1
 0 683 l 1,15,-1
 0 1593 l 1,16,-1
 1138 1593 l 1,17,-1
 1138 1365 l 1,18,-1
 228 1365 l 1,19,-1
 228 910 l 1,12,-1
EndSplineSet
Validated: 5
EndChar

StartChar: six
Encoding: 54 54 23
Width: 1365
GlyphClass: 2
Flags: W
LayerCount: 4
Fore
SplineSet
910 0 m 1,0,-1
 228 0 l 1,1,-1
 228 228 l 1,2,-1
 910 228 l 1,3,-1
 910 0 l 1,0,-1
1138 1138 m 1,4,-1
 910 1138 l 1,5,-1
 910 1365 l 1,6,-1
 1138 1365 l 1,7,-1
 1138 1138 l 1,4,-1
910 1365 m 1,8,-1
 228 1365 l 1,9,-1
 228 1593 l 1,10,-1
 910 1593 l 1,11,-1
 910 1365 l 1,8,-1
228 683 m 1,12,-1
 228 228 l 1,13,-1
 0 228 l 1,14,-1
 0 1365 l 1,15,-1
 228 1365 l 1,16,-1
 228 910 l 1,17,-1
 910 910 l 1,18,-1
 910 683 l 1,19,-1
 228 683 l 1,12,-1
1138 228 m 1,20,-1
 910 228 l 1,21,-1
 910 683 l 1,22,-1
 1138 683 l 1,23,-1
 1138 228 l 1,20,-1
EndSplineSet
Validated: 5
EndChar

StartChar: seven
Encoding: 55 55 24
Width: 1365
GlyphClass: 2
Flags: W
LayerCount: 4
Fore
SplineSet
228 0 m 1,0,-1
 0 0 l 1,1,-1
 0 228 l 1,2,-1
 228 228 l 1,3,-1
 228 0 l 1,0,-1
455 228 m 1,4,-1
 228 228 l 1,5,-1
 228 455 l 1,6,-1
 455 455 l 1,7,-1
 455 228 l 1,4,-1
683 455 m 1,8,-1
 455 455 l 1,9,-1
 455 683 l 1,10,-1
 683 683 l 1,11,-1
 683 455 l 1,8,-1
910 683 m 1,12,-1
 683 683 l 1,13,-1
 683 910 l 1,14,-1
 910 910 l 1,15,-1
 910 683 l 1,12,-1
910 1365 m 1,16,-1
 0 1365 l 1,17,-1
 0 1593 l 1,18,-1
 1138 1593 l 1,19,-1
 1138 910 l 1,20,-1
 910 910 l 1,21,-1
 910 1365 l 1,16,-1
EndSplineSet
Validated: 5
EndChar

StartChar: eight
Encoding: 56 56 25
Width: 1365
GlyphClass: 2
Flags: W
LayerCount: 4
Fore
SplineSet
910 0 m 1,0,-1
 228 0 l 1,1,-1
 228 228 l 1,2,-1
 910 228 l 1,3,-1
 910 0 l 1,0,-1
228 228 m 1,4,-1
 0 228 l 1,5,-1
 0 683 l 1,6,-1
 228 683 l 1,7,-1
 228 228 l 1,4,-1
1138 228 m 1,8,-1
 910 228 l 1,9,-1
 910 683 l 1,10,-1
 1138 683 l 1,11,-1
 1138 228 l 1,8,-1
910 683 m 1,12,-1
 228 683 l 1,13,-1
 228 910 l 1,14,-1
 910 910 l 1,15,-1
 910 683 l 1,12,-1
910 1365 m 1,16,-1
 228 1365 l 1,17,-1
 228 1593 l 1,18,-1
 910 1593 l 1,19,-1
 910 1365 l 1,16,-1
228 910 m 1,20,-1
 0 910 l 1,21,-1
 0 1365 l 1,22,-1
 228 1365 l 1,23,-1
 228 910 l 1,20,-1
1138 910 m 1,24,-1
 910 910 l 1,25,-1
 910 1365 l 1,26,-1
 1138 1365 l 1,27,-1
 1138 910 l 1,24,-1
EndSplineSet
Validated: 5
EndChar

StartChar: nine
Encoding: 57 57 26
Width: 1365
GlyphClass: 2
Flags: W
LayerCount: 4
Fore
SplineSet
910 0 m 1,0,-1
 228 0 l 1,1,-1
 228 228 l 1,2,-1
 910 228 l 1,3,-1
 910 0 l 1,0,-1
910 1365 m 1,4,-1
 228 1365 l 1,5,-1
 228 1593 l 1,6,-1
 910 1593 l 1,7,-1
 910 1365 l 1,4,-1
228 910 m 1,8,-1
 0 910 l 1,9,-1
 0 1365 l 1,10,-1
 228 1365 l 1,11,-1
 228 910 l 1,8,-1
228 228 m 1,12,-1
 0 228 l 1,13,-1
 0 455 l 1,14,-1
 228 455 l 1,15,-1
 228 228 l 1,12,-1
910 683 m 1,16,-1
 228 683 l 1,17,-1
 228 910 l 1,18,-1
 910 910 l 1,19,-1
 910 1365 l 1,20,-1
 1138 1365 l 1,21,-1
 1138 228 l 1,22,-1
 910 228 l 1,23,-1
 910 683 l 1,16,-1
EndSplineSet
Validated: 5
EndChar

StartChar: colon
Encoding: 58 58 27
Width: 1365
GlyphClass: 2
Flags: W
LayerCount: 4
Fore
SplineSet
683 0 m 1,0,-1
 455 0 l 1,1,-1
 455 228 l 1,2,-1
 683 228 l 1,3,-1
 683 0 l 1,0,-1
683 910 m 1,4,-1
 455 910 l 1,5,-1
 455 1138 l 1,6,-1
 683 1138 l 1,7,-1
 683 910 l 1,4,-1
EndSplineSet
Validated: 1
EndChar

StartChar: semicolon
Encoding: 59 59 28
Width: 1365
GlyphClass: 2
Flags: W
LayerCount: 4
Fore
SplineSet
683 910 m 1,0,-1
 455 910 l 1,1,-1
 455 1138 l 1,2,-1
 683 1138 l 1,3,-1
 683 910 l 1,0,-1
683 -228 m 1,4,-1
 455 -228 l 1,5,-1
 455 228 l 1,6,-1
 683 228 l 1,7,-1
 683 -228 l 1,4,-1
EndSplineSet
Validated: 1
EndChar

StartChar: less
Encoding: 60 60 29
Width: 1365
GlyphClass: 2
Flags: W
LayerCount: 4
Fore
SplineSet
228 683 m 1,0,-1
 0 683 l 1,1,-1
 0 910 l 1,2,-1
 228 910 l 1,3,-1
 228 683 l 1,0,-1
455 910 m 1,4,-1
 228 910 l 1,5,-1
 228 1138 l 1,6,-1
 455 1138 l 1,7,-1
 455 910 l 1,4,-1
683 1138 m 1,8,-1
 455 1138 l 1,9,-1
 455 1365 l 1,10,-1
 683 1365 l 1,11,-1
 683 1138 l 1,8,-1
1138 1365 m 1,12,-1
 683 1365 l 1,13,-1
 683 1593 l 1,14,-1
 1138 1593 l 1,15,-1
 1138 1365 l 1,12,-1
455 455 m 1,16,-1
 228 455 l 1,17,-1
 228 683 l 1,18,-1
 455 683 l 1,19,-1
 455 455 l 1,16,-1
683 228 m 1,20,-1
 455 228 l 1,21,-1
 455 455 l 1,22,-1
 683 455 l 1,23,-1
 683 228 l 1,20,-1
1138 0 m 1,24,-1
 683 0 l 1,25,-1
 683 228 l 1,26,-1
 1138 228 l 1,27,-1
 1138 0 l 1,24,-1
EndSplineSet
Validated: 5
EndChar

StartChar: equal
Encoding: 61 61 30
Width: 1365
GlyphClass: 2
Flags: W
LayerCount: 4
Fore
SplineSet
1138 910 m 1,0,-1
 0 910 l 1,1,-1
 0 1138 l 1,2,-1
 1138 1138 l 1,3,-1
 1138 910 l 1,0,-1
1138 455 m 1,4,-1
 0 455 l 1,5,-1
 0 683 l 1,6,-1
 1138 683 l 1,7,-1
 1138 455 l 1,4,-1
EndSplineSet
Validated: 1
EndChar

StartChar: greater
Encoding: 62 62 31
Width: 1365
GlyphClass: 2
Flags: W
LayerCount: 4
Fore
SplineSet
910 910 m 1,0,-1
 1138 910 l 1,1,-1
 1138 683 l 1,2,-1
 910 683 l 1,3,-1
 910 910 l 1,0,-1
683 683 m 1,4,-1
 910 683 l 1,5,-1
 910 455 l 1,6,-1
 683 455 l 1,7,-1
 683 683 l 1,4,-1
455 455 m 1,8,-1
 683 455 l 1,9,-1
 683 228 l 1,10,-1
 455 228 l 1,11,-1
 455 455 l 1,8,-1
0 228 m 1,12,-1
 455 228 l 1,13,-1
 455 0 l 1,14,-1
 0 0 l 1,15,-1
 0 228 l 1,12,-1
683 1138 m 1,16,-1
 910 1138 l 1,17,-1
 910 910 l 1,18,-1
 683 910 l 1,19,-1
 683 1138 l 1,16,-1
455 1365 m 1,20,-1
 683 1365 l 1,21,-1
 683 1138 l 1,22,-1
 455 1138 l 1,23,-1
 455 1365 l 1,20,-1
0 1593 m 1,24,-1
 455 1593 l 1,25,-1
 455 1365 l 1,26,-1
 0 1365 l 1,27,-1
 0 1593 l 1,24,-1
EndSplineSet
Validated: 5
EndChar

StartChar: question
Encoding: 63 63 32
Width: 1365
GlyphClass: 2
Flags: W
LayerCount: 4
Fore
SplineSet
228 1138 m 1,0,-1
 0 1138 l 1,1,-1
 0 1365 l 1,2,-1
 228 1365 l 1,3,-1
 228 1138 l 1,0,-1
910 1365 m 1,4,-1
 228 1365 l 1,5,-1
 228 1593 l 1,6,-1
 910 1593 l 1,7,-1
 910 1365 l 1,4,-1
1138 910 m 1,8,-1
 910 910 l 1,9,-1
 910 1365 l 1,10,-1
 1138 1365 l 1,11,-1
 1138 910 l 1,8,-1
910 683 m 1,12,-1
 683 683 l 1,13,-1
 683 910 l 1,14,-1
 910 910 l 1,15,-1
 910 683 l 1,12,-1
683 455 m 1,16,-1
 455 455 l 1,17,-1
 455 683 l 1,18,-1
 683 683 l 1,19,-1
 683 455 l 1,16,-1
683 0 m 1,20,-1
 455 0 l 1,21,-1
 455 228 l 1,22,-1
 683 228 l 1,23,-1
 683 0 l 1,20,-1
EndSplineSet
Validated: 5
EndChar

StartChar: at
Encoding: 64 64 33
Width: 1365
GlyphClass: 2
Flags: W
LayerCount: 4
Fore
SplineSet
910 1365 m 1,0,-1
 228 1365 l 1,1,-1
 228 228 l 1,2,-1
 1138 228 l 1,3,-1
 1138 0 l 1,4,-1
 0 0 l 1,5,-1
 0 1593 l 1,6,-1
 1138 1593 l 1,7,-1
 1138 683 l 1,8,-1
 455 683 l 1,9,-1
 455 1138 l 1,10,-1
 683 1138 l 1,11,-1
 683 910 l 1,12,-1
 910 910 l 1,13,-1
 910 1365 l 1,0,-1
EndSplineSet
Validated: 1
EndChar

StartChar: A
Encoding: 65 65 34
Width: 1365
GlyphClass: 2
Flags: W
LayerCount: 4
Fore
SplineSet
228 683 m 1,0,-1
 228 0 l 1,1,-1
 0 0 l 1,2,-1
 0 1365 l 1,3,-1
 228 1365 l 1,4,-1
 228 910 l 1,5,-1
 910 910 l 1,6,-1
 910 1365 l 1,7,-1
 1138 1365 l 1,8,-1
 1138 0 l 1,9,-1
 910 0 l 1,10,-1
 910 683 l 1,11,-1
 228 683 l 1,0,-1
910 1365 m 1,12,-1
 228 1365 l 1,13,-1
 228 1593 l 1,14,-1
 910 1593 l 1,15,-1
 910 1365 l 1,12,-1
EndSplineSet
Validated: 5
EndChar

StartChar: B
Encoding: 66 66 35
Width: 1365
GlyphClass: 2
Flags: W
LayerCount: 4
Fore
SplineSet
228 228 m 1,0,-1
 910 228 l 1,1,-1
 910 0 l 1,2,-1
 0 0 l 1,3,-1
 0 1593 l 1,4,-1
 910 1593 l 1,5,-1
 910 1365 l 1,6,-1
 228 1365 l 1,7,-1
 228 910 l 1,8,-1
 910 910 l 1,9,-1
 910 683 l 1,10,-1
 228 683 l 1,11,-1
 228 228 l 1,0,-1
1138 228 m 1,12,-1
 910 228 l 1,13,-1
 910 683 l 1,14,-1
 1138 683 l 1,15,-1
 1138 228 l 1,12,-1
1138 910 m 1,16,-1
 910 910 l 1,17,-1
 910 1365 l 1,18,-1
 1138 1365 l 1,19,-1
 1138 910 l 1,16,-1
EndSplineSet
Validated: 5
EndChar

StartChar: C
Encoding: 67 67 36
Width: 1365
GlyphClass: 2
Flags: W
LayerCount: 4
Fore
SplineSet
228 228 m 1,0,-1
 0 228 l 1,1,-1
 0 1365 l 1,2,-1
 228 1365 l 1,3,-1
 228 228 l 1,0,-1
1138 228 m 1,4,-1
 910 228 l 1,5,-1
 910 455 l 1,6,-1
 1138 455 l 1,7,-1
 1138 228 l 1,4,-1
1138 1138 m 1,8,-1
 910 1138 l 1,9,-1
 910 1365 l 1,10,-1
 1138 1365 l 1,11,-1
 1138 1138 l 1,8,-1
910 0 m 1,12,-1
 228 0 l 1,13,-1
 228 228 l 1,14,-1
 910 228 l 1,15,-1
 910 0 l 1,12,-1
910 1365 m 1,16,-1
 228 1365 l 1,17,-1
 228 1593 l 1,18,-1
 910 1593 l 1,19,-1
 910 1365 l 1,16,-1
EndSplineSet
Validated: 5
EndChar

StartChar: D
Encoding: 68 68 37
Width: 1365
GlyphClass: 2
Flags: W
LayerCount: 4
Fore
SplineSet
683 1593 m 1,0,-1
 683 1365 l 1,1,-1
 228 1365 l 1,2,-1
 228 228 l 1,3,-1
 683 228 l 1,4,-1
 683 0 l 1,5,-1
 0 0 l 1,6,-1
 0 1593 l 1,7,-1
 683 1593 l 1,0,-1
1138 455 m 1,8,-1
 910 455 l 1,9,-1
 910 1138 l 1,10,-1
 1138 1138 l 1,11,-1
 1138 455 l 1,8,-1
910 1138 m 1,12,-1
 683 1138 l 1,13,-1
 683 1365 l 1,14,-1
 910 1365 l 1,15,-1
 910 1138 l 1,12,-1
910 228 m 1,16,-1
 683 228 l 1,17,-1
 683 455 l 1,18,-1
 910 455 l 1,19,-1
 910 228 l 1,16,-1
EndSplineSet
Validated: 5
EndChar

StartChar: E
Encoding: 69 69 38
Width: 1365
GlyphClass: 2
Flags: W
LayerCount: 4
Fore
SplineSet
228 228 m 1,0,-1
 1138 228 l 1,1,-1
 1138 0 l 1,2,-1
 0 0 l 1,3,-1
 0 1593 l 1,4,-1
 1138 1593 l 1,5,-1
 1138 1365 l 1,6,-1
 228 1365 l 1,7,-1
 228 910 l 1,8,-1
 910 910 l 1,9,-1
 910 683 l 1,10,-1
 228 683 l 1,11,-1
 228 228 l 1,0,-1
EndSplineSet
Validated: 1
EndChar

StartChar: F
Encoding: 70 70 39
Width: 1365
GlyphClass: 2
Flags: W
LayerCount: 4
Fore
SplineSet
1138 1593 m 1,0,-1
 1138 1365 l 1,1,-1
 228 1365 l 1,2,-1
 228 910 l 1,3,-1
 910 910 l 1,4,-1
 910 683 l 1,5,-1
 228 683 l 1,6,-1
 228 0 l 1,7,-1
 0 0 l 1,8,-1
 0 1593 l 1,9,-1
 1138 1593 l 1,0,-1
EndSplineSet
Validated: 1
EndChar

StartChar: G
Encoding: 71 71 40
Width: 1365
GlyphClass: 2
Flags: W
LayerCount: 4
Fore
SplineSet
228 228 m 1,0,-1
 0 228 l 1,1,-1
 0 1365 l 1,2,-1
 228 1365 l 1,3,-1
 228 228 l 1,0,-1
910 683 m 1,4,-1
 455 683 l 1,5,-1
 455 910 l 1,6,-1
 1138 910 l 1,7,-1
 1138 228 l 1,8,-1
 910 228 l 1,9,-1
 910 683 l 1,4,-1
910 1365 m 1,10,-1
 228 1365 l 1,11,-1
 228 1593 l 1,12,-1
 910 1593 l 1,13,-1
 910 1365 l 1,10,-1
910 0 m 1,14,-1
 228 0 l 1,15,-1
 228 228 l 1,16,-1
 910 228 l 1,17,-1
 910 0 l 1,14,-1
EndSplineSet
Validated: 5
EndChar

StartChar: H
Encoding: 72 72 41
Width: 1365
GlyphClass: 2
Flags: W
LayerCount: 4
Fore
SplineSet
228 683 m 1,0,-1
 228 0 l 1,1,-1
 0 0 l 1,2,-1
 0 1593 l 1,3,-1
 228 1593 l 1,4,-1
 228 910 l 1,5,-1
 910 910 l 1,6,-1
 910 1593 l 1,7,-1
 1138 1593 l 1,8,-1
 1138 0 l 1,9,-1
 910 0 l 1,10,-1
 910 683 l 1,11,-1
 228 683 l 1,0,-1
EndSplineSet
Validated: 1
EndChar

StartChar: I
Encoding: 73 73 42
Width: 1365
GlyphClass: 2
Flags: W
LayerCount: 4
Fore
SplineSet
683 228 m 1,0,-1
 1138 228 l 1,1,-1
 1138 0 l 1,2,-1
 0 0 l 1,3,-1
 0 228 l 1,4,-1
 455 228 l 1,5,-1
 455 1365 l 1,6,-1
 0 1365 l 1,7,-1
 0 1593 l 1,8,-1
 1138 1593 l 1,9,-1
 1138 1365 l 1,10,-1
 683 1365 l 1,11,-1
 683 228 l 1,0,-1
EndSplineSet
Validated: 1
EndChar

StartChar: J
Encoding: 74 74 43
Width: 1365
GlyphClass: 2
Flags: W
LayerCount: 4
Fore
SplineSet
910 0 m 1,0,-1
 228 0 l 1,1,-1
 228 228 l 1,2,-1
 910 228 l 1,3,-1
 910 0 l 1,0,-1
1138 1593 m 1,4,-1
 1138 228 l 1,5,-1
 910 228 l 1,6,-1
 910 1365 l 1,7,-1
 683 1365 l 1,8,-1
 683 1593 l 1,9,-1
 1138 1593 l 1,4,-1
228 228 m 1,10,-1
 0 228 l 1,11,-1
 0 683 l 1,12,-1
 228 683 l 1,13,-1
 228 228 l 1,10,-1
EndSplineSet
Validated: 5
EndChar

StartChar: K
Encoding: 75 75 44
Width: 1365
GlyphClass: 2
Flags: W
LayerCount: 4
Fore
SplineSet
228 683 m 1,0,-1
 228 0 l 1,1,-1
 0 0 l 1,2,-1
 0 1593 l 1,3,-1
 228 1593 l 1,4,-1
 228 910 l 1,5,-1
 455 910 l 1,6,-1
 455 683 l 1,7,-1
 228 683 l 1,0,-1
1138 1365 m 1,8,-1
 910 1365 l 1,9,-1
 910 1593 l 1,10,-1
 1138 1593 l 1,11,-1
 1138 1365 l 1,8,-1
910 1138 m 1,12,-1
 683 1138 l 1,13,-1
 683 1365 l 1,14,-1
 910 1365 l 1,15,-1
 910 1138 l 1,12,-1
683 910 m 1,16,-1
 455 910 l 1,17,-1
 455 1138 l 1,18,-1
 683 1138 l 1,19,-1
 683 910 l 1,16,-1
1138 0 m 1,20,-1
 910 0 l 1,21,-1
 910 228 l 1,22,-1
 1138 228 l 1,23,-1
 1138 0 l 1,20,-1
910 228 m 1,24,-1
 683 228 l 1,25,-1
 683 455 l 1,26,-1
 910 455 l 1,27,-1
 910 228 l 1,24,-1
683 455 m 1,28,-1
 455 455 l 1,29,-1
 455 683 l 1,30,-1
 683 683 l 1,31,-1
 683 455 l 1,28,-1
EndSplineSet
Validated: 5
EndChar

StartChar: L
Encoding: 76 76 45
Width: 1365
GlyphClass: 2
Flags: W
LayerCount: 4
Fore
SplineSet
0 0 m 1,0,-1
 0 1593 l 1,1,-1
 228 1593 l 1,2,-1
 228 228 l 1,3,-1
 1138 228 l 1,4,-1
 1138 0 l 1,5,-1
 0 0 l 1,0,-1
EndSplineSet
Validated: 1
EndChar

StartChar: M
Encoding: 77 77 46
Width: 1365
GlyphClass: 2
Flags: W
LayerCount: 4
Fore
SplineSet
228 910 m 1,0,-1
 228 0 l 1,1,-1
 0 0 l 1,2,-1
 0 1593 l 1,3,-1
 228 1593 l 1,4,-1
 228 1365 l 1,5,-1
 455 1365 l 1,6,-1
 455 910 l 1,7,-1
 228 910 l 1,0,-1
683 455 m 1,8,-1
 455 455 l 1,9,-1
 455 910 l 1,10,-1
 683 910 l 1,11,-1
 683 455 l 1,8,-1
910 1365 m 1,12,-1
 910 1593 l 1,13,-1
 1138 1593 l 1,14,-1
 1138 0 l 1,15,-1
 910 0 l 1,16,-1
 910 910 l 1,17,-1
 683 910 l 1,18,-1
 683 1365 l 1,19,-1
 910 1365 l 1,12,-1
EndSplineSet
Validated: 5
EndChar

StartChar: N
Encoding: 78 78 47
Width: 1365
GlyphClass: 2
Flags: W
LayerCount: 4
Fore
SplineSet
228 1138 m 1,0,-1
 228 0 l 1,1,-1
 0 0 l 1,2,-1
 0 1593 l 1,3,-1
 455 1593 l 1,4,-1
 455 1138 l 1,5,-1
 228 1138 l 1,0,-1
683 455 m 1,6,-1
 455 455 l 1,7,-1
 455 1138 l 1,8,-1
 683 1138 l 1,9,-1
 683 455 l 1,6,-1
910 455 m 1,10,-1
 910 1593 l 1,11,-1
 1138 1593 l 1,12,-1
 1138 0 l 1,13,-1
 683 0 l 1,14,-1
 683 455 l 1,15,-1
 910 455 l 1,10,-1
EndSplineSet
Validated: 5
EndChar

StartChar: O
Encoding: 79 79 48
Width: 1365
GlyphClass: 2
Flags: W
LayerCount: 4
Fore
SplineSet
228 228 m 1,0,-1
 0 228 l 1,1,-1
 0 1365 l 1,2,-1
 228 1365 l 1,3,-1
 228 228 l 1,0,-1
1138 228 m 1,4,-1
 910 228 l 1,5,-1
 910 1365 l 1,6,-1
 1138 1365 l 1,7,-1
 1138 228 l 1,4,-1
910 1365 m 1,8,-1
 228 1365 l 1,9,-1
 228 1593 l 1,10,-1
 910 1593 l 1,11,-1
 910 1365 l 1,8,-1
910 0 m 1,12,-1
 228 0 l 1,13,-1
 228 228 l 1,14,-1
 910 228 l 1,15,-1
 910 0 l 1,12,-1
EndSplineSet
Validated: 5
EndChar

StartChar: P
Encoding: 80 80 49
Width: 1365
GlyphClass: 2
Flags: W
LayerCount: 4
Fore
SplineSet
1138 910 m 1,0,-1
 910 910 l 1,1,-1
 910 1365 l 1,2,-1
 1138 1365 l 1,3,-1
 1138 910 l 1,0,-1
910 1593 m 1,4,-1
 910 1365 l 1,5,-1
 228 1365 l 1,6,-1
 228 910 l 1,7,-1
 910 910 l 1,8,-1
 910 683 l 1,9,-1
 228 683 l 1,10,-1
 228 0 l 1,11,-1
 0 0 l 1,12,-1
 0 1593 l 1,13,-1
 910 1593 l 1,4,-1
EndSplineSet
Validated: 5
EndChar

StartChar: Q
Encoding: 81 81 50
Width: 1365
GlyphClass: 2
Flags: W
LayerCount: 4
Fore
SplineSet
228 228 m 1,0,-1
 0 228 l 1,1,-1
 0 1365 l 1,2,-1
 228 1365 l 1,3,-1
 228 228 l 1,0,-1
910 1365 m 1,4,-1
 228 1365 l 1,5,-1
 228 1593 l 1,6,-1
 910 1593 l 1,7,-1
 910 1365 l 1,4,-1
683 455 m 1,8,-1
 455 455 l 1,9,-1
 455 683 l 1,10,-1
 683 683 l 1,11,-1
 683 455 l 1,8,-1
910 228 m 1,12,-1
 683 228 l 1,13,-1
 683 455 l 1,14,-1
 910 455 l 1,15,-1
 910 228 l 1,12,-1
1138 0 m 1,16,-1
 910 0 l 1,17,-1
 910 228 l 1,18,-1
 1138 228 l 1,19,-1
 1138 0 l 1,16,-1
1138 455 m 1,20,-1
 910 455 l 1,21,-1
 910 1365 l 1,22,-1
 1138 1365 l 1,23,-1
 1138 455 l 1,20,-1
683 0 m 1,24,-1
 228 0 l 1,25,-1
 228 228 l 1,26,-1
 683 228 l 1,27,-1
 683 0 l 1,24,-1
EndSplineSet
Validated: 5
EndChar

StartChar: R
Encoding: 82 82 51
Width: 1365
GlyphClass: 2
Flags: W
LayerCount: 4
Fore
SplineSet
1138 910 m 1,0,-1
 910 910 l 1,1,-1
 910 1365 l 1,2,-1
 1138 1365 l 1,3,-1
 1138 910 l 1,0,-1
1138 0 m 1,4,-1
 910 0 l 1,5,-1
 910 228 l 1,6,-1
 1138 228 l 1,7,-1
 1138 0 l 1,4,-1
910 228 m 1,8,-1
 683 228 l 1,9,-1
 683 455 l 1,10,-1
 910 455 l 1,11,-1
 910 228 l 1,8,-1
910 1593 m 1,12,-1
 910 1365 l 1,13,-1
 228 1365 l 1,14,-1
 228 910 l 1,15,-1
 910 910 l 1,16,-1
 910 683 l 1,17,-1
 683 683 l 1,18,-1
 683 455 l 1,19,-1
 455 455 l 1,20,-1
 455 683 l 1,21,-1
 228 683 l 1,22,-1
 228 0 l 1,23,-1
 0 0 l 1,24,-1
 0 1593 l 1,25,-1
 910 1593 l 1,12,-1
EndSplineSet
Validated: 5
EndChar

StartChar: S
Encoding: 83 83 52
Width: 1365
GlyphClass: 2
Flags: W
LayerCount: 4
Fore
SplineSet
228 228 m 1,0,-1
 0 228 l 1,1,-1
 0 455 l 1,2,-1
 228 455 l 1,3,-1
 228 228 l 1,0,-1
910 0 m 1,4,-1
 228 0 l 1,5,-1
 228 228 l 1,6,-1
 910 228 l 1,7,-1
 910 0 l 1,4,-1
1138 228 m 1,8,-1
 910 228 l 1,9,-1
 910 683 l 1,10,-1
 1138 683 l 1,11,-1
 1138 228 l 1,8,-1
910 1365 m 1,12,-1
 228 1365 l 1,13,-1
 228 1593 l 1,14,-1
 910 1593 l 1,15,-1
 910 1365 l 1,12,-1
1138 1138 m 1,16,-1
 910 1138 l 1,17,-1
 910 1365 l 1,18,-1
 1138 1365 l 1,19,-1
 1138 1138 l 1,16,-1
228 910 m 1,20,-1
 0 910 l 1,21,-1
 0 1365 l 1,22,-1
 228 1365 l 1,23,-1
 228 910 l 1,20,-1
910 683 m 1,24,-1
 228 683 l 1,25,-1
 228 910 l 1,26,-1
 910 910 l 1,27,-1
 910 683 l 1,24,-1
EndSplineSet
Validated: 5
EndChar

StartChar: T
Encoding: 84 84 53
Width: 1365
GlyphClass: 2
Flags: W
LayerCount: 4
Fore
SplineSet
455 1365 m 1,0,-1
 0 1365 l 1,1,-1
 0 1593 l 1,2,-1
 1138 1593 l 1,3,-1
 1138 1365 l 1,4,-1
 683 1365 l 1,5,-1
 683 0 l 1,6,-1
 455 0 l 1,7,-1
 455 1365 l 1,0,-1
EndSplineSet
Validated: 1
EndChar

StartChar: U
Encoding: 85 85 54
Width: 1365
GlyphClass: 2
Flags: W
LayerCount: 4
Fore
SplineSet
228 228 m 1,0,-1
 0 228 l 1,1,-1
 0 1593 l 1,2,-1
 228 1593 l 1,3,-1
 228 228 l 1,0,-1
910 0 m 1,4,-1
 228 0 l 1,5,-1
 228 228 l 1,6,-1
 910 228 l 1,7,-1
 910 0 l 1,4,-1
1138 228 m 1,8,-1
 910 228 l 1,9,-1
 910 1593 l 1,10,-1
 1138 1593 l 1,11,-1
 1138 228 l 1,8,-1
EndSplineSet
Validated: 5
EndChar

StartChar: V
Encoding: 86 86 55
Width: 1365
GlyphClass: 2
Flags: W
LayerCount: 4
Fore
SplineSet
683 0 m 1,0,-1
 455 0 l 1,1,-1
 455 455 l 1,2,-1
 683 455 l 1,3,-1
 683 0 l 1,0,-1
455 455 m 1,4,-1
 228 455 l 1,5,-1
 228 910 l 1,6,-1
 455 910 l 1,7,-1
 455 455 l 1,4,-1
910 455 m 1,8,-1
 683 455 l 1,9,-1
 683 910 l 1,10,-1
 910 910 l 1,11,-1
 910 455 l 1,8,-1
228 910 m 1,12,-1
 0 910 l 1,13,-1
 0 1593 l 1,14,-1
 228 1593 l 1,15,-1
 228 910 l 1,12,-1
1138 910 m 1,16,-1
 910 910 l 1,17,-1
 910 1593 l 1,18,-1
 1138 1593 l 1,19,-1
 1138 910 l 1,16,-1
EndSplineSet
Validated: 5
EndChar

StartChar: W
Encoding: 87 87 56
Width: 1365
GlyphClass: 2
Flags: W
LayerCount: 4
Fore
SplineSet
228 455 m 1,0,-1
 0 455 l 1,1,-1
 0 1593 l 1,2,-1
 228 1593 l 1,3,-1
 228 455 l 1,0,-1
683 455 m 1,4,-1
 455 455 l 1,5,-1
 455 1593 l 1,6,-1
 683 1593 l 1,7,-1
 683 455 l 1,4,-1
1138 455 m 1,8,-1
 910 455 l 1,9,-1
 910 1593 l 1,10,-1
 1138 1593 l 1,11,-1
 1138 455 l 1,8,-1
455 0 m 1,12,-1
 228 0 l 1,13,-1
 228 455 l 1,14,-1
 455 455 l 1,15,-1
 455 0 l 1,12,-1
910 0 m 1,16,-1
 683 0 l 1,17,-1
 683 455 l 1,18,-1
 910 455 l 1,19,-1
 910 0 l 1,16,-1
EndSplineSet
Validated: 5
EndChar

StartChar: X
Encoding: 88 88 57
Width: 1365
GlyphClass: 2
Flags: W
LayerCount: 4
Fore
SplineSet
228 1138 m 1,0,-1
 0 1138 l 1,1,-1
 0 1593 l 1,2,-1
 228 1593 l 1,3,-1
 228 1138 l 1,0,-1
1138 1138 m 1,4,-1
 910 1138 l 1,5,-1
 910 1593 l 1,6,-1
 1138 1593 l 1,7,-1
 1138 1138 l 1,4,-1
228 0 m 1,8,-1
 0 0 l 1,9,-1
 0 455 l 1,10,-1
 228 455 l 1,11,-1
 228 0 l 1,8,-1
1138 0 m 1,12,-1
 910 0 l 1,13,-1
 910 455 l 1,14,-1
 1138 455 l 1,15,-1
 1138 0 l 1,12,-1
683 683 m 1,16,-1
 455 683 l 1,17,-1
 455 910 l 1,18,-1
 683 910 l 1,19,-1
 683 683 l 1,16,-1
455 910 m 1,20,-1
 228 910 l 1,21,-1
 228 1138 l 1,22,-1
 455 1138 l 1,23,-1
 455 910 l 1,20,-1
910 910 m 1,24,-1
 683 910 l 1,25,-1
 683 1138 l 1,26,-1
 910 1138 l 1,27,-1
 910 910 l 1,24,-1
455 455 m 1,28,-1
 228 455 l 1,29,-1
 228 683 l 1,30,-1
 455 683 l 1,31,-1
 455 455 l 1,28,-1
910 455 m 1,32,-1
 683 455 l 1,33,-1
 683 683 l 1,34,-1
 910 683 l 1,35,-1
 910 455 l 1,32,-1
EndSplineSet
Validated: 5
EndChar

StartChar: Y
Encoding: 89 89 58
Width: 1365
GlyphClass: 2
Flags: W
LayerCount: 4
Fore
SplineSet
228 910 m 1,0,-1
 0 910 l 1,1,-1
 0 1593 l 1,2,-1
 228 1593 l 1,3,-1
 228 910 l 1,0,-1
683 683 m 1,4,-1
 683 0 l 1,5,-1
 455 0 l 1,6,-1
 455 683 l 1,7,-1
 228 683 l 1,8,-1
 228 910 l 1,9,-1
 910 910 l 1,10,-1
 910 683 l 1,11,-1
 683 683 l 1,4,-1
1138 910 m 1,12,-1
 910 910 l 1,13,-1
 910 1593 l 1,14,-1
 1138 1593 l 1,15,-1
 1138 910 l 1,12,-1
EndSplineSet
Validated: 5
EndChar

StartChar: Z
Encoding: 90 90 59
Width: 1365
GlyphClass: 2
Flags: W
LayerCount: 4
Fore
SplineSet
228 228 m 1,0,-1
 1138 228 l 1,1,-1
 1138 0 l 1,2,-1
 0 0 l 1,3,-1
 0 455 l 1,4,-1
 228 455 l 1,5,-1
 228 228 l 1,0,-1
910 910 m 1,6,-1
 683 910 l 1,7,-1
 683 1138 l 1,8,-1
 910 1138 l 1,9,-1
 910 910 l 1,6,-1
683 683 m 1,10,-1
 455 683 l 1,11,-1
 455 910 l 1,12,-1
 683 910 l 1,13,-1
 683 683 l 1,10,-1
455 455 m 1,14,-1
 228 455 l 1,15,-1
 228 683 l 1,16,-1
 455 683 l 1,17,-1
 455 455 l 1,14,-1
910 1365 m 1,18,-1
 0 1365 l 1,19,-1
 0 1593 l 1,20,-1
 1138 1593 l 1,21,-1
 1138 1138 l 1,22,-1
 910 1138 l 1,23,-1
 910 1365 l 1,18,-1
EndSplineSet
Validated: 5
EndChar

StartChar: bracketleft
Encoding: 91 91 60
Width: 1365
GlyphClass: 2
Flags: W
LayerCount: 4
Fore
SplineSet
1138 1593 m 1,0,-1
 1138 1365 l 1,1,-1
 228 1365 l 1,2,-1
 228 0 l 1,3,-1
 1138 0 l 1,4,-1
 1138 -228 l 1,5,-1
 0 -228 l 1,6,-1
 0 1593 l 1,7,-1
 1138 1593 l 1,0,-1
EndSplineSet
Validated: 1
EndChar

StartChar: backslash
Encoding: 92 92 61
Width: 1365
GlyphClass: 2
Flags: W
LayerCount: 4
Fore
SplineSet
910 0 m 1,0,-1
 910 455 l 1,1,-1
 1138 455 l 1,2,-1
 1138 0 l 1,3,-1
 910 0 l 1,0,-1
0 1138 m 1,4,-1
 0 1593 l 1,5,-1
 228 1593 l 1,6,-1
 228 1138 l 1,7,-1
 0 1138 l 1,4,-1
683 455 m 1,8,-1
 683 683 l 1,9,-1
 910 683 l 1,10,-1
 910 455 l 1,11,-1
 683 455 l 1,8,-1
455 683 m 1,12,-1
 455 910 l 1,13,-1
 683 910 l 1,14,-1
 683 683 l 1,15,-1
 455 683 l 1,12,-1
228 910 m 1,16,-1
 228 1138 l 1,17,-1
 455 1138 l 1,18,-1
 455 910 l 1,19,-1
 228 910 l 1,16,-1
EndSplineSet
Validated: 5
EndChar

StartChar: bracketright
Encoding: 93 93 62
Width: 1365
GlyphClass: 2
Flags: W
LayerCount: 4
Fore
SplineSet
0 -228 m 1,0,-1
 0 0 l 1,1,-1
 910 0 l 1,2,-1
 910 1365 l 1,3,-1
 0 1365 l 1,4,-1
 0 1593 l 1,5,-1
 1138 1593 l 1,6,-1
 1138 -228 l 1,7,-1
 0 -228 l 1,0,-1
EndSplineSet
Validated: 1
EndChar

StartChar: asciicircum
Encoding: 94 94 63
Width: 1365
GlyphClass: 2
Flags: W
LayerCount: 4
Fore
SplineSet
683 1365 m 1,0,-1
 455 1365 l 1,1,-1
 455 1593 l 1,2,-1
 683 1593 l 1,3,-1
 683 1365 l 1,0,-1
910 1138 m 1,4,-1
 683 1138 l 1,5,-1
 683 1365 l 1,6,-1
 910 1365 l 1,7,-1
 910 1138 l 1,4,-1
1138 910 m 1,8,-1
 910 910 l 1,9,-1
 910 1138 l 1,10,-1
 1138 1138 l 1,11,-1
 1138 910 l 1,8,-1
455 1138 m 1,12,-1
 228 1138 l 1,13,-1
 228 1365 l 1,14,-1
 455 1365 l 1,15,-1
 455 1138 l 1,12,-1
228 910 m 1,16,-1
 0 910 l 1,17,-1
 0 1138 l 1,18,-1
 228 1138 l 1,19,-1
 228 910 l 1,16,-1
EndSplineSet
Validated: 5
EndChar

StartChar: underscore
Encoding: 95 95 64
Width: 1365
GlyphClass: 2
Flags: W
LayerCount: 4
Fore
SplineSet
1138 -228 m 1,0,-1
 0 -228 l 1,1,-1
 0 0 l 1,2,-1
 1138 0 l 1,3,-1
 1138 -228 l 1,0,-1
EndSplineSet
Validated: 1
EndChar

StartChar: grave
Encoding: 96 96 65
Width: 1365
GlyphClass: 2
Flags: W
LayerCount: 4
Fore
SplineSet
455 1820 m 1,0,-1
 228 1820 l 1,1,-1
 228 2048 l 1,2,-1
 455 2048 l 1,3,-1
 455 1820 l 1,0,-1
683 1593 m 1,4,-1
 455 1593 l 1,5,-1
 455 1820 l 1,6,-1
 683 1820 l 1,7,-1
 683 1593 l 1,4,-1
EndSplineSet
Validated: 5
EndChar

StartChar: a
Encoding: 97 97 66
Width: 1365
GlyphClass: 2
Flags: W
LayerCount: 4
Fore
SplineSet
228 228 m 1,0,-1
 0 228 l 1,1,-1
 0 910 l 1,2,-1
 228 910 l 1,3,-1
 228 228 l 1,0,-1
910 683 m 1,4,-1
 683 683 l 1,5,-1
 683 910 l 1,6,-1
 910 910 l 1,7,-1
 910 1138 l 1,8,-1
 1138 1138 l 1,9,-1
 1138 0 l 1,10,-1
 910 0 l 1,11,-1
 910 228 l 1,12,-1
 683 228 l 1,13,-1
 683 455 l 1,14,-1
 910 455 l 1,15,-1
 910 683 l 1,4,-1
683 0 m 1,16,-1
 228 0 l 1,17,-1
 228 228 l 1,18,-1
 683 228 l 1,19,-1
 683 0 l 1,16,-1
683 910 m 1,20,-1
 228 910 l 1,21,-1
 228 1138 l 1,22,-1
 683 1138 l 1,23,-1
 683 910 l 1,20,-1
EndSplineSet
Validated: 5
Substitution2: "'salt' Stylistic Alternatives lookup 0 subtable" a.alt01
EndChar

StartChar: b
Encoding: 98 98 67
Width: 1365
GlyphClass: 2
Flags: W
LayerCount: 4
Fore
SplineSet
910 228 m 1,0,-1
 910 910 l 1,1,-1
 1138 910 l 1,2,-1
 1138 228 l 1,3,-1
 910 228 l 1,0,-1
228 910 m 1,4,-1
 455 910 l 1,5,-1
 455 683 l 1,6,-1
 228 683 l 1,7,-1
 228 455 l 1,8,-1
 455 455 l 1,9,-1
 455 228 l 1,10,-1
 228 228 l 1,11,-1
 228 0 l 1,12,-1
 0 0 l 1,13,-1
 0 1593 l 1,14,-1
 228 1593 l 1,15,-1
 228 910 l 1,4,-1
455 0 m 1,16,-1
 455 228 l 1,17,-1
 910 228 l 1,18,-1
 910 0 l 1,19,-1
 455 0 l 1,16,-1
455 910 m 1,20,-1
 455 1138 l 1,21,-1
 910 1138 l 1,22,-1
 910 910 l 1,23,-1
 455 910 l 1,20,-1
EndSplineSet
Validated: 5
EndChar

StartChar: c
Encoding: 99 99 68
Width: 1365
GlyphClass: 2
Flags: W
LayerCount: 4
Fore
SplineSet
228 228 m 1,0,-1
 0 228 l 1,1,-1
 0 910 l 1,2,-1
 228 910 l 1,3,-1
 228 228 l 1,0,-1
1138 910 m 1,4,-1
 228 910 l 1,5,-1
 228 1138 l 1,6,-1
 1138 1138 l 1,7,-1
 1138 910 l 1,4,-1
1138 0 m 1,8,-1
 228 0 l 1,9,-1
 228 228 l 1,10,-1
 1138 228 l 1,11,-1
 1138 0 l 1,8,-1
EndSplineSet
Validated: 5
EndChar

StartChar: d
Encoding: 100 100 69
Width: 1365
GlyphClass: 2
Flags: W
LayerCount: 4
Fore
SplineSet
228 228 m 1,0,-1
 0 228 l 1,1,-1
 0 910 l 1,2,-1
 228 910 l 1,3,-1
 228 228 l 1,0,-1
910 683 m 1,4,-1
 683 683 l 1,5,-1
 683 910 l 1,6,-1
 910 910 l 1,7,-1
 910 1593 l 1,8,-1
 1138 1593 l 1,9,-1
 1138 0 l 1,10,-1
 910 0 l 1,11,-1
 910 228 l 1,12,-1
 683 228 l 1,13,-1
 683 455 l 1,14,-1
 910 455 l 1,15,-1
 910 683 l 1,4,-1
683 0 m 1,16,-1
 228 0 l 1,17,-1
 228 228 l 1,18,-1
 683 228 l 1,19,-1
 683 0 l 1,16,-1
683 910 m 1,20,-1
 228 910 l 1,21,-1
 228 1138 l 1,22,-1
 683 1138 l 1,23,-1
 683 910 l 1,20,-1
EndSplineSet
Validated: 5
EndChar

StartChar: e
Encoding: 101 101 70
Width: 1365
GlyphClass: 2
Flags: W
LayerCount: 4
Fore
SplineSet
910 910 m 1,0,-1
 228 910 l 1,1,-1
 228 1138 l 1,2,-1
 910 1138 l 1,3,-1
 910 910 l 1,0,-1
228 455 m 1,4,-1
 228 228 l 1,5,-1
 0 228 l 1,6,-1
 0 910 l 1,7,-1
 228 910 l 1,8,-1
 228 683 l 1,9,-1
 910 683 l 1,10,-1
 910 910 l 1,11,-1
 1138 910 l 1,12,-1
 1138 455 l 1,13,-1
 228 455 l 1,4,-1
1138 0 m 1,14,-1
 228 0 l 1,15,-1
 228 228 l 1,16,-1
 1138 228 l 1,17,-1
 1138 0 l 1,14,-1
EndSplineSet
Validated: 5
EndChar

StartChar: f
Encoding: 102 102 71
Width: 1365
GlyphClass: 2
Flags: W
LayerCount: 4
Fore
SplineSet
683 1138 m 1,0,-1
 1138 1138 l 1,1,-1
 1138 910 l 1,2,-1
 683 910 l 1,3,-1
 683 0 l 1,4,-1
 455 0 l 1,5,-1
 455 910 l 1,6,-1
 0 910 l 1,7,-1
 0 1138 l 1,8,-1
 455 1138 l 1,9,-1
 455 1593 l 1,10,-1
 910 1593 l 1,11,-1
 910 1365 l 1,12,-1
 683 1365 l 1,13,-1
 683 1138 l 1,0,-1
EndSplineSet
Validated: 1
EndChar

StartChar: g
Encoding: 103 103 72
Width: 1365
GlyphClass: 2
Flags: W
LayerCount: 4
Fore
SplineSet
228 228 m 1,0,-1
 0 228 l 1,1,-1
 0 910 l 1,2,-1
 228 910 l 1,3,-1
 228 228 l 1,0,-1
910 -455 m 1,4,-1
 228 -455 l 1,5,-1
 228 -228 l 1,6,-1
 910 -228 l 1,7,-1
 910 -455 l 1,4,-1
910 228 m 1,8,-1
 910 910 l 1,9,-1
 1138 910 l 1,10,-1
 1138 -228 l 1,11,-1
 910 -228 l 1,12,-1
 910 0 l 1,13,-1
 228 0 l 1,14,-1
 228 228 l 1,15,-1
 910 228 l 1,8,-1
910 910 m 1,16,-1
 228 910 l 1,17,-1
 228 1138 l 1,18,-1
 910 1138 l 1,19,-1
 910 910 l 1,16,-1
EndSplineSet
Validated: 5
EndChar

StartChar: h
Encoding: 104 104 73
Width: 1365
GlyphClass: 2
Flags: W
LayerCount: 4
Fore
SplineSet
228 683 m 1,0,-1
 228 0 l 1,1,-1
 0 0 l 1,2,-1
 0 1593 l 1,3,-1
 228 1593 l 1,4,-1
 228 910 l 1,5,-1
 455 910 l 1,6,-1
 455 683 l 1,7,-1
 228 683 l 1,0,-1
1138 0 m 1,8,-1
 910 0 l 1,9,-1
 910 910 l 1,10,-1
 1138 910 l 1,11,-1
 1138 0 l 1,8,-1
910 910 m 1,12,-1
 455 910 l 1,13,-1
 455 1138 l 1,14,-1
 910 1138 l 1,15,-1
 910 910 l 1,12,-1
EndSplineSet
Validated: 5
EndChar

StartChar: i
Encoding: 105 105 74
Width: 1365
GlyphClass: 2
Flags: WO
LayerCount: 4
Fore
SplineSet
682.5 1601 m 5,0,-1
 682.5 1287.5 l 5,1,-1
 369 1287.5 l 5,2,-1
 369 1601 l 5,3,-1
 682.5 1601 l 5,0,-1
683 228 m 1,4,-1
 1138 228 l 1,5,-1
 1138 0 l 1,6,-1
 0 0 l 1,7,-1
 0 228 l 1,8,-1
 455 228 l 1,9,-1
 455 910 l 1,10,-1
 0 910 l 1,11,-1
 0 1138 l 1,12,-1
 683 1138 l 1,13,-1
 683 228 l 1,4,-1
EndSplineSet
EndChar

StartChar: j
Encoding: 106 106 75
Width: 1365
GlyphClass: 2
Flags: W
LayerCount: 4
Fore
SplineSet
910 0 m 1,0,-1
 228 0 l 1,1,-1
 228 228 l 1,2,-1
 910 228 l 1,3,-1
 910 0 l 1,0,-1
1138 228 m 1,4,-1
 910 228 l 1,5,-1
 910 1138 l 1,6,-1
 1138 1138 l 1,7,-1
 1138 228 l 1,4,-1
228 228 m 1,8,-1
 0 228 l 1,9,-1
 0 683 l 1,10,-1
 228 683 l 1,11,-1
 228 228 l 1,8,-1
EndSplineSet
Validated: 5
EndChar

StartChar: k
Encoding: 107 107 76
Width: 1365
GlyphClass: 2
Flags: W
LayerCount: 4
Fore
SplineSet
228 455 m 1,0,-1
 228 0 l 1,1,-1
 0 0 l 1,2,-1
 0 1593 l 1,3,-1
 228 1593 l 1,4,-1
 228 683 l 1,5,-1
 683 683 l 1,6,-1
 683 455 l 1,7,-1
 228 455 l 1,0,-1
1138 0 m 1,8,-1
 910 0 l 1,9,-1
 910 228 l 1,10,-1
 1138 228 l 1,11,-1
 1138 0 l 1,8,-1
910 228 m 1,12,-1
 683 228 l 1,13,-1
 683 455 l 1,14,-1
 910 455 l 1,15,-1
 910 228 l 1,12,-1
1138 910 m 1,16,-1
 910 910 l 1,17,-1
 910 1138 l 1,18,-1
 1138 1138 l 1,19,-1
 1138 910 l 1,16,-1
910 683 m 1,20,-1
 683 683 l 1,21,-1
 683 910 l 1,22,-1
 910 910 l 1,23,-1
 910 683 l 1,20,-1
EndSplineSet
Validated: 5
EndChar

StartChar: l
Encoding: 108 108 77
Width: 1365
GlyphClass: 2
Flags: W
LayerCount: 4
Fore
SplineSet
0 0 m 1,0,-1
 0 1138 l 1,1,-1
 228 1138 l 1,2,-1
 228 228 l 1,3,-1
 1138 228 l 1,4,-1
 1138 0 l 1,5,-1
 0 0 l 1,0,-1
EndSplineSet
Validated: 1
EndChar

StartChar: m
Encoding: 109 109 78
Width: 1365
GlyphClass: 2
Flags: W
LayerCount: 4
Fore
SplineSet
683 228 m 1,0,-1
 455 228 l 1,1,-1
 455 683 l 1,2,-1
 683 683 l 1,3,-1
 683 228 l 1,0,-1
910 910 m 1,4,-1
 910 1138 l 1,5,-1
 1138 1138 l 1,6,-1
 1138 0 l 1,7,-1
 910 0 l 1,8,-1
 910 683 l 1,9,-1
 683 683 l 1,10,-1
 683 910 l 1,11,-1
 910 910 l 1,4,-1
228 683 m 1,12,-1
 228 0 l 1,13,-1
 0 0 l 1,14,-1
 0 1138 l 1,15,-1
 228 1138 l 1,16,-1
 228 910 l 1,17,-1
 455 910 l 1,18,-1
 455 683 l 1,19,-1
 228 683 l 1,12,-1
EndSplineSet
Validated: 5
EndChar

StartChar: n
Encoding: 110 110 79
Width: 1365
GlyphClass: 2
Flags: W
LayerCount: 4
Fore
SplineSet
228 683 m 1,0,-1
 228 0 l 1,1,-1
 0 0 l 1,2,-1
 0 1138 l 1,3,-1
 228 1138 l 1,4,-1
 228 910 l 1,5,-1
 455 910 l 1,6,-1
 455 683 l 1,7,-1
 228 683 l 1,0,-1
1138 0 m 1,8,-1
 910 0 l 1,9,-1
 910 910 l 1,10,-1
 1138 910 l 1,11,-1
 1138 0 l 1,8,-1
910 910 m 1,12,-1
 455 910 l 1,13,-1
 455 1138 l 1,14,-1
 910 1138 l 1,15,-1
 910 910 l 1,12,-1
EndSplineSet
Validated: 5
EndChar

StartChar: o
Encoding: 111 111 80
Width: 1365
GlyphClass: 2
Flags: W
LayerCount: 4
Fore
SplineSet
228 228 m 1,0,-1
 0 228 l 1,1,-1
 0 910 l 1,2,-1
 228 910 l 1,3,-1
 228 228 l 1,0,-1
910 910 m 1,4,-1
 228 910 l 1,5,-1
 228 1138 l 1,6,-1
 910 1138 l 1,7,-1
 910 910 l 1,4,-1
1138 228 m 1,8,-1
 910 228 l 1,9,-1
 910 910 l 1,10,-1
 1138 910 l 1,11,-1
 1138 228 l 1,8,-1
910 0 m 1,12,-1
 228 0 l 1,13,-1
 228 228 l 1,14,-1
 910 228 l 1,15,-1
 910 0 l 1,12,-1
EndSplineSet
Validated: 5
EndChar

StartChar: p
Encoding: 112 112 81
Width: 1365
GlyphClass: 2
Flags: W
LayerCount: 4
Fore
SplineSet
910 910 m 1,0,-1
 228 910 l 1,1,-1
 228 1138 l 1,2,-1
 910 1138 l 1,3,-1
 910 910 l 1,0,-1
228 0 m 1,4,-1
 228 -455 l 1,5,-1
 0 -455 l 1,6,-1
 0 910 l 1,7,-1
 228 910 l 1,8,-1
 228 228 l 1,9,-1
 910 228 l 1,10,-1
 910 0 l 1,11,-1
 228 0 l 1,4,-1
1138 228 m 1,12,-1
 910 228 l 1,13,-1
 910 910 l 1,14,-1
 1138 910 l 1,15,-1
 1138 228 l 1,12,-1
EndSplineSet
Validated: 5
EndChar

StartChar: q
Encoding: 113 113 82
Width: 1365
GlyphClass: 2
Flags: W
LayerCount: 4
Fore
SplineSet
228 228 m 1,0,-1
 0 228 l 1,1,-1
 0 910 l 1,2,-1
 228 910 l 1,3,-1
 228 228 l 1,0,-1
910 228 m 1,4,-1
 910 910 l 1,5,-1
 1138 910 l 1,6,-1
 1138 -455 l 1,7,-1
 910 -455 l 1,8,-1
 910 0 l 1,9,-1
 228 0 l 1,10,-1
 228 228 l 1,11,-1
 910 228 l 1,4,-1
910 910 m 1,12,-1
 228 910 l 1,13,-1
 228 1138 l 1,14,-1
 910 1138 l 1,15,-1
 910 910 l 1,12,-1
EndSplineSet
Validated: 5
EndChar

StartChar: r
Encoding: 114 114 83
Width: 1365
GlyphClass: 2
Flags: W
LayerCount: 4
Fore
SplineSet
683 683 m 1,0,-1
 455 683 l 1,1,-1
 455 910 l 1,2,-1
 683 910 l 1,3,-1
 683 683 l 1,0,-1
1138 910 m 1,4,-1
 683 910 l 1,5,-1
 683 1138 l 1,6,-1
 1138 1138 l 1,7,-1
 1138 910 l 1,4,-1
228 455 m 1,8,-1
 228 0 l 1,9,-1
 0 0 l 1,10,-1
 0 1138 l 1,11,-1
 228 1138 l 1,12,-1
 228 683 l 1,13,-1
 455 683 l 1,14,-1
 455 455 l 1,15,-1
 228 455 l 1,8,-1
EndSplineSet
Validated: 5
EndChar

StartChar: s
Encoding: 115 115 84
Width: 1365
GlyphClass: 2
Flags: W
LayerCount: 4
Fore
SplineSet
910 0 m 1,0,-1
 0 0 l 1,1,-1
 0 228 l 1,2,-1
 910 228 l 1,3,-1
 910 0 l 1,0,-1
1138 228 m 1,4,-1
 910 228 l 1,5,-1
 910 455 l 1,6,-1
 1138 455 l 1,7,-1
 1138 228 l 1,4,-1
910 455 m 1,8,-1
 228 455 l 1,9,-1
 228 683 l 1,10,-1
 910 683 l 1,11,-1
 910 455 l 1,8,-1
228 683 m 1,12,-1
 0 683 l 1,13,-1
 0 910 l 1,14,-1
 228 910 l 1,15,-1
 228 683 l 1,12,-1
1138 910 m 1,16,-1
 228 910 l 1,17,-1
 228 1138 l 1,18,-1
 1138 1138 l 1,19,-1
 1138 910 l 1,16,-1
EndSplineSet
Validated: 5
EndChar

StartChar: t
Encoding: 116 116 85
Width: 1365
GlyphClass: 2
Flags: W
LayerCount: 4
Fore
SplineSet
683 1138 m 1,0,-1
 1138 1138 l 1,1,-1
 1138 910 l 1,2,-1
 683 910 l 1,3,-1
 683 228 l 1,4,-1
 910 228 l 1,5,-1
 910 0 l 1,6,-1
 455 0 l 1,7,-1
 455 910 l 1,8,-1
 0 910 l 1,9,-1
 0 1138 l 1,10,-1
 455 1138 l 1,11,-1
 455 1593 l 1,12,-1
 683 1593 l 1,13,-1
 683 1138 l 1,0,-1
EndSplineSet
Validated: 1
EndChar

StartChar: u
Encoding: 117 117 86
Width: 1365
GlyphClass: 2
Flags: W
LayerCount: 4
Fore
SplineSet
228 228 m 1,0,-1
 0 228 l 1,1,-1
 0 1138 l 1,2,-1
 228 1138 l 1,3,-1
 228 228 l 1,0,-1
1138 228 m 1,4,-1
 910 228 l 1,5,-1
 910 1138 l 1,6,-1
 1138 1138 l 1,7,-1
 1138 228 l 1,4,-1
910 0 m 1,8,-1
 228 0 l 1,9,-1
 228 228 l 1,10,-1
 910 228 l 1,11,-1
 910 0 l 1,8,-1
EndSplineSet
Validated: 5
EndChar

StartChar: v
Encoding: 118 118 87
Width: 1365
GlyphClass: 2
Flags: W
LayerCount: 4
Fore
SplineSet
683 0 m 1,0,-1
 455 0 l 1,1,-1
 455 228 l 1,2,-1
 683 228 l 1,3,-1
 683 0 l 1,0,-1
455 228 m 1,4,-1
 228 228 l 1,5,-1
 228 455 l 1,6,-1
 455 455 l 1,7,-1
 455 228 l 1,4,-1
910 228 m 1,8,-1
 683 228 l 1,9,-1
 683 455 l 1,10,-1
 910 455 l 1,11,-1
 910 228 l 1,8,-1
228 455 m 1,12,-1
 0 455 l 1,13,-1
 0 1138 l 1,14,-1
 228 1138 l 1,15,-1
 228 455 l 1,12,-1
1138 455 m 1,16,-1
 910 455 l 1,17,-1
 910 1138 l 1,18,-1
 1138 1138 l 1,19,-1
 1138 455 l 1,16,-1
EndSplineSet
Validated: 5
EndChar

StartChar: w
Encoding: 119 119 88
Width: 1365
GlyphClass: 2
Flags: W
LayerCount: 4
Fore
SplineSet
228 228 m 1,0,-1
 0 228 l 1,1,-1
 0 1138 l 1,2,-1
 228 1138 l 1,3,-1
 228 228 l 1,0,-1
455 0 m 1,4,-1
 228 0 l 1,5,-1
 228 228 l 1,6,-1
 455 228 l 1,7,-1
 455 0 l 1,4,-1
683 228 m 1,8,-1
 455 228 l 1,9,-1
 455 683 l 1,10,-1
 683 683 l 1,11,-1
 683 228 l 1,8,-1
910 0 m 1,12,-1
 683 0 l 1,13,-1
 683 228 l 1,14,-1
 910 228 l 1,15,-1
 910 0 l 1,12,-1
1138 228 m 1,16,-1
 910 228 l 1,17,-1
 910 1138 l 1,18,-1
 1138 1138 l 1,19,-1
 1138 228 l 1,16,-1
EndSplineSet
Validated: 5
EndChar

StartChar: x
Encoding: 120 120 89
Width: 1365
GlyphClass: 2
Flags: W
LayerCount: 4
Fore
SplineSet
228 0 m 1,0,-1
 0 0 l 1,1,-1
 0 228 l 1,2,-1
 228 228 l 1,3,-1
 228 0 l 1,0,-1
455 228 m 1,4,-1
 228 228 l 1,5,-1
 228 455 l 1,6,-1
 455 455 l 1,7,-1
 455 228 l 1,4,-1
683 455 m 1,8,-1
 455 455 l 1,9,-1
 455 683 l 1,10,-1
 683 683 l 1,11,-1
 683 455 l 1,8,-1
228 910 m 1,12,-1
 0 910 l 1,13,-1
 0 1138 l 1,14,-1
 228 1138 l 1,15,-1
 228 910 l 1,12,-1
455 683 m 1,16,-1
 228 683 l 1,17,-1
 228 910 l 1,18,-1
 455 910 l 1,19,-1
 455 683 l 1,16,-1
910 228 m 1,20,-1
 683 228 l 1,21,-1
 683 455 l 1,22,-1
 910 455 l 1,23,-1
 910 228 l 1,20,-1
1138 0 m 1,24,-1
 910 0 l 1,25,-1
 910 228 l 1,26,-1
 1138 228 l 1,27,-1
 1138 0 l 1,24,-1
910 683 m 1,28,-1
 683 683 l 1,29,-1
 683 910 l 1,30,-1
 910 910 l 1,31,-1
 910 683 l 1,28,-1
1138 910 m 1,32,-1
 910 910 l 1,33,-1
 910 1138 l 1,34,-1
 1138 1138 l 1,35,-1
 1138 910 l 1,32,-1
EndSplineSet
Validated: 5
EndChar

StartChar: y
Encoding: 121 121 90
Width: 1365
GlyphClass: 2
Flags: W
LayerCount: 4
Fore
SplineSet
1138 683 m 1,0,-1
 910 683 l 1,1,-1
 910 1138 l 1,2,-1
 1138 1138 l 1,3,-1
 1138 683 l 1,0,-1
228 683 m 1,4,-1
 0 683 l 1,5,-1
 0 1138 l 1,6,-1
 228 1138 l 1,7,-1
 228 683 l 1,4,-1
683 -228 m 1,8,-1
 455 -228 l 1,9,-1
 455 228 l 1,10,-1
 683 228 l 1,11,-1
 683 -228 l 1,8,-1
455 -455 m 1,12,-1
 0 -455 l 1,13,-1
 0 -228 l 1,14,-1
 455 -228 l 1,15,-1
 455 -455 l 1,12,-1
455 228 m 1,16,-1
 228 228 l 1,17,-1
 228 683 l 1,18,-1
 455 683 l 1,19,-1
 455 228 l 1,16,-1
910 228 m 1,20,-1
 683 228 l 1,21,-1
 683 683 l 1,22,-1
 910 683 l 1,23,-1
 910 228 l 1,20,-1
EndSplineSet
Validated: 5
EndChar

StartChar: z
Encoding: 122 122 91
Width: 1365
GlyphClass: 2
Flags: W
LayerCount: 4
Fore
SplineSet
910 910 m 1,0,-1
 0 910 l 1,1,-1
 0 1138 l 1,2,-1
 1138 1138 l 1,3,-1
 1138 683 l 1,4,-1
 910 683 l 1,5,-1
 910 910 l 1,0,-1
910 455 m 1,6,-1
 228 455 l 1,7,-1
 228 683 l 1,8,-1
 910 683 l 1,9,-1
 910 455 l 1,6,-1
228 228 m 1,10,-1
 1138 228 l 1,11,-1
 1138 0 l 1,12,-1
 0 0 l 1,13,-1
 0 455 l 1,14,-1
 228 455 l 1,15,-1
 228 228 l 1,10,-1
EndSplineSet
Validated: 5
EndChar

StartChar: braceleft
Encoding: 123 123 92
Width: 1365
GlyphClass: 2
Flags: W
LayerCount: 4
Fore
SplineSet
228 455 m 1,0,-1
 0 455 l 1,1,-1
 0 910 l 1,2,-1
 228 910 l 1,3,-1
 228 1365 l 1,4,-1
 455 1365 l 1,5,-1
 455 0 l 1,6,-1
 228 0 l 1,7,-1
 228 455 l 1,0,-1
1138 -228 m 1,8,-1
 455 -228 l 1,9,-1
 455 0 l 1,10,-1
 1138 0 l 1,11,-1
 1138 -228 l 1,8,-1
1138 1365 m 1,12,-1
 455 1365 l 1,13,-1
 455 1593 l 1,14,-1
 1138 1593 l 1,15,-1
 1138 1365 l 1,12,-1
EndSplineSet
Validated: 5
EndChar

StartChar: bar
Encoding: 124 124 93
Width: 1365
GlyphClass: 2
Flags: W
LayerCount: 4
Fore
SplineSet
683 -228 m 1,0,-1
 455 -228 l 1,1,-1
 455 1593 l 1,2,-1
 683 1593 l 1,3,-1
 683 -228 l 1,0,-1
EndSplineSet
Validated: 1
EndChar

StartChar: braceright
Encoding: 125 125 94
Width: 1365
GlyphClass: 2
Flags: W
LayerCount: 4
Fore
SplineSet
910 910 m 1,0,-1
 1138 910 l 1,1,-1
 1138 455 l 1,2,-1
 910 455 l 1,3,-1
 910 0 l 1,4,-1
 683 0 l 1,5,-1
 683 1365 l 1,6,-1
 910 1365 l 1,7,-1
 910 910 l 1,0,-1
0 -228 m 1,8,-1
 0 0 l 1,9,-1
 683 0 l 1,10,-1
 683 -228 l 1,11,-1
 0 -228 l 1,8,-1
0 1365 m 1,12,-1
 0 1593 l 1,13,-1
 683 1593 l 1,14,-1
 683 1365 l 1,15,-1
 0 1365 l 1,12,-1
EndSplineSet
Validated: 5
EndChar

StartChar: asciitilde
Encoding: 126 126 95
Width: 1365
GlyphClass: 2
Flags: W
LayerCount: 4
Fore
SplineSet
228 683 m 1,0,-1
 0 683 l 1,1,-1
 0 910 l 1,2,-1
 228 910 l 1,3,-1
 228 683 l 1,0,-1
455 910 m 1,4,-1
 228 910 l 1,5,-1
 228 1138 l 1,6,-1
 455 1138 l 1,7,-1
 455 910 l 1,4,-1
683 683 m 1,8,-1
 455 683 l 1,9,-1
 455 910 l 1,10,-1
 683 910 l 1,11,-1
 683 683 l 1,8,-1
910 455 m 1,12,-1
 683 455 l 1,13,-1
 683 683 l 1,14,-1
 910 683 l 1,15,-1
 910 455 l 1,12,-1
1138 683 m 1,16,-1
 910 683 l 1,17,-1
 910 910 l 1,18,-1
 1138 910 l 1,19,-1
 1138 683 l 1,16,-1
EndSplineSet
Validated: 5
EndChar

StartChar: exclamdown
Encoding: 161 161 96
Width: 1365
GlyphClass: 2
Flags: W
LayerCount: 4
Fore
SplineSet
683 1365 m 1,0,-1
 683 1138 l 1,1,-1
 455 1138 l 1,2,-1
 455 1365 l 1,3,-1
 683 1365 l 1,0,-1
683 910 m 1,4,-1
 683 -228 l 1,5,-1
 455 -228 l 1,6,-1
 455 910 l 1,7,-1
 683 910 l 1,4,-1
EndSplineSet
Validated: 1
EndChar

StartChar: cent
Encoding: 162 162 97
Width: 1365
GlyphClass: 2
Flags: W
LayerCount: 4
Fore
SplineSet
228 228 m 1,0,-1
 0 228 l 1,1,-1
 0 910 l 1,2,-1
 228 910 l 1,3,-1
 228 228 l 1,0,-1
683 1138 m 1,4,-1
 1138 1138 l 1,5,-1
 1138 910 l 1,6,-1
 683 910 l 1,7,-1
 683 228 l 1,8,-1
 1138 228 l 1,9,-1
 1138 0 l 1,10,-1
 683 0 l 1,11,-1
 683 -228 l 1,12,-1
 455 -228 l 1,13,-1
 455 0 l 1,14,-1
 228 0 l 1,15,-1
 228 228 l 1,16,-1
 455 228 l 1,17,-1
 455 910 l 1,18,-1
 228 910 l 1,19,-1
 228 1138 l 1,20,-1
 455 1138 l 1,21,-1
 455 1365 l 1,22,-1
 683 1365 l 1,23,-1
 683 1138 l 1,4,-1
EndSplineSet
Validated: 5
EndChar

StartChar: sterling
Encoding: 163 163 98
Width: 1365
GlyphClass: 2
Flags: W
LayerCount: 4
Fore
SplineSet
910 1365 m 1,0,-1
 455 1365 l 1,1,-1
 455 1593 l 1,2,-1
 910 1593 l 1,3,-1
 910 1365 l 1,0,-1
455 228 m 1,4,-1
 1138 228 l 1,5,-1
 1138 0 l 1,6,-1
 0 0 l 1,7,-1
 0 228 l 1,8,-1
 228 228 l 1,9,-1
 228 683 l 1,10,-1
 0 683 l 1,11,-1
 0 910 l 1,12,-1
 228 910 l 1,13,-1
 228 1365 l 1,14,-1
 455 1365 l 1,15,-1
 455 910 l 1,16,-1
 683 910 l 1,17,-1
 683 683 l 1,18,-1
 455 683 l 1,19,-1
 455 228 l 1,4,-1
1138 1138 m 1,20,-1
 910 1138 l 1,21,-1
 910 1365 l 1,22,-1
 1138 1365 l 1,23,-1
 1138 1138 l 1,20,-1
EndSplineSet
Validated: 5
EndChar

StartChar: currency
Encoding: 164 164 99
Width: 1365
GlyphClass: 2
Flags: W
LayerCount: 4
Fore
SplineSet
228 228 m 1,0,-1
 0 228 l 1,1,-1
 0 455 l 1,2,-1
 228 455 l 1,3,-1
 228 228 l 1,0,-1
455 910 m 1,4,-1
 455 683 l 1,5,-1
 683 683 l 1,6,-1
 683 910 l 1,7,-1
 455 910 l 1,4,-1
228 1138 m 1,8,-1
 910 1138 l 1,9,-1
 910 455 l 1,10,-1
 228 455 l 1,11,-1
 228 1138 l 1,8,-1
1138 1138 m 1,12,-1
 910 1138 l 1,13,-1
 910 1365 l 1,14,-1
 1138 1365 l 1,15,-1
 1138 1138 l 1,12,-1
228 1138 m 1,16,-1
 0 1138 l 1,17,-1
 0 1365 l 1,18,-1
 228 1365 l 1,19,-1
 228 1138 l 1,16,-1
1138 228 m 1,20,-1
 910 228 l 1,21,-1
 910 455 l 1,22,-1
 1138 455 l 1,23,-1
 1138 228 l 1,20,-1
EndSplineSet
Validated: 5
EndChar

StartChar: yen
Encoding: 165 165 100
Width: 1365
GlyphClass: 2
Flags: W
LayerCount: 4
Fore
SplineSet
228 1365 m 1,0,-1
 0 1365 l 1,1,-1
 0 1593 l 1,2,-1
 228 1593 l 1,3,-1
 228 1365 l 1,0,-1
455 910 m 1,4,-1
 455 1138 l 1,5,-1
 683 1138 l 1,6,-1
 683 910 l 1,7,-1
 1138 910 l 1,8,-1
 1138 683 l 1,9,-1
 683 683 l 1,10,-1
 683 455 l 1,11,-1
 1138 455 l 1,12,-1
 1138 228 l 1,13,-1
 683 228 l 1,14,-1
 683 0 l 1,15,-1
 455 0 l 1,16,-1
 455 228 l 1,17,-1
 0 228 l 1,18,-1
 0 455 l 1,19,-1
 455 455 l 1,20,-1
 455 683 l 1,21,-1
 0 683 l 1,22,-1
 0 910 l 1,23,-1
 455 910 l 1,4,-1
1138 1365 m 1,24,-1
 910 1365 l 1,25,-1
 910 1593 l 1,26,-1
 1138 1593 l 1,27,-1
 1138 1365 l 1,24,-1
910 1138 m 1,28,-1
 683 1138 l 1,29,-1
 683 1365 l 1,30,-1
 910 1365 l 1,31,-1
 910 1138 l 1,28,-1
455 1138 m 1,32,-1
 228 1138 l 1,33,-1
 228 1365 l 1,34,-1
 455 1365 l 1,35,-1
 455 1138 l 1,32,-1
EndSplineSet
Validated: 5
EndChar

StartChar: brokenbar
Encoding: 166 166 101
Width: 1365
GlyphClass: 2
Flags: W
LayerCount: 4
Fore
SplineSet
683 -228 m 1,0,-1
 455 -228 l 1,1,-1
 455 455 l 1,2,-1
 683 455 l 1,3,-1
 683 -228 l 1,0,-1
683 910 m 1,4,-1
 455 910 l 1,5,-1
 455 1593 l 1,6,-1
 683 1593 l 1,7,-1
 683 910 l 1,4,-1
EndSplineSet
Validated: 1
EndChar

StartChar: section
Encoding: 167 167 102
Width: 1365
GlyphClass: 2
Flags: W
LayerCount: 4
Fore
SplineSet
228 0 m 1,0,-1
 0 0 l 1,1,-1
 0 228 l 1,2,-1
 228 228 l 1,3,-1
 228 0 l 1,0,-1
910 -228 m 1,4,-1
 228 -228 l 1,5,-1
 228 0 l 1,6,-1
 910 0 l 1,7,-1
 910 -228 l 1,4,-1
1138 0 m 1,8,-1
 910 0 l 1,9,-1
 910 455 l 1,10,-1
 1138 455 l 1,11,-1
 1138 0 l 1,8,-1
910 1593 m 1,12,-1
 228 1593 l 1,13,-1
 228 1820 l 1,14,-1
 910 1820 l 1,15,-1
 910 1593 l 1,12,-1
1138 1365 m 1,16,-1
 910 1365 l 1,17,-1
 910 1593 l 1,18,-1
 1138 1593 l 1,19,-1
 1138 1365 l 1,16,-1
228 1138 m 1,20,-1
 0 1138 l 1,21,-1
 0 1593 l 1,22,-1
 228 1593 l 1,23,-1
 228 1138 l 1,20,-1
910 455 m 1,24,-1
 228 455 l 1,25,-1
 228 683 l 1,26,-1
 910 683 l 1,27,-1
 910 455 l 1,24,-1
910 910 m 1,28,-1
 228 910 l 1,29,-1
 228 1138 l 1,30,-1
 910 1138 l 1,31,-1
 910 910 l 1,28,-1
228 683 m 1,32,-1
 0 683 l 1,33,-1
 0 910 l 1,34,-1
 228 910 l 1,35,-1
 228 683 l 1,32,-1
1138 683 m 1,36,-1
 910 683 l 1,37,-1
 910 910 l 1,38,-1
 1138 910 l 1,39,-1
 1138 683 l 1,36,-1
EndSplineSet
Validated: 5
EndChar

StartChar: dieresis
Encoding: 168 168 103
Width: 1365
GlyphClass: 2
Flags: W
LayerCount: 4
Fore
SplineSet
455 1820 m 1,0,-1
 228 1820 l 1,1,-1
 228 2048 l 1,2,-1
 455 2048 l 1,3,-1
 455 1820 l 1,0,-1
910 1820 m 1,4,-1
 683 1820 l 1,5,-1
 683 2048 l 1,6,-1
 910 2048 l 1,7,-1
 910 1820 l 1,4,-1
EndSplineSet
Validated: 1
EndChar

StartChar: copyright
Encoding: 169 169 104
Width: 1365
GlyphClass: 2
Flags: W
LayerCount: 4
Fore
SplineSet
683 1138 m 1,0,-1
 683 910 l 1,1,-1
 455 910 l 1,2,-1
 455 683 l 1,3,-1
 683 683 l 1,4,-1
 683 455 l 1,5,-1
 228 455 l 1,6,-1
 228 1138 l 1,7,-1
 683 1138 l 1,0,-1
910 1365 m 1,8,-1
 0 1365 l 1,9,-1
 0 1593 l 1,10,-1
 910 1593 l 1,11,-1
 910 1365 l 1,8,-1
0 228 m 1,12,-1
 -228 228 l 1,13,-1
 -228 1365 l 1,14,-1
 0 1365 l 1,15,-1
 0 228 l 1,12,-1
910 0 m 1,16,-1
 0 0 l 1,17,-1
 0 228 l 1,18,-1
 910 228 l 1,19,-1
 910 0 l 1,16,-1
1138 228 m 1,20,-1
 910 228 l 1,21,-1
 910 1365 l 1,22,-1
 1138 1365 l 1,23,-1
 1138 228 l 1,20,-1
EndSplineSet
Validated: 5
EndChar

StartChar: ordfeminine
Encoding: 170 170 105
Width: 1365
GlyphClass: 2
Flags: W
LayerCount: 4
Fore
SplineSet
910 1365 m 1,0,-1
 228 1365 l 1,1,-1
 228 1593 l 1,2,-1
 910 1593 l 1,3,-1
 910 1365 l 1,0,-1
228 455 m 1,4,-1
 228 683 l 1,5,-1
 910 683 l 1,6,-1
 910 910 l 1,7,-1
 228 910 l 1,8,-1
 228 1138 l 1,9,-1
 910 1138 l 1,10,-1
 910 1365 l 1,11,-1
 1138 1365 l 1,12,-1
 1138 455 l 1,13,-1
 228 455 l 1,4,-1
228 683 m 1,14,-1
 0 683 l 1,15,-1
 0 910 l 1,16,-1
 228 910 l 1,17,-1
 228 683 l 1,14,-1
EndSplineSet
Validated: 5
EndChar

StartChar: guillemotleft
Encoding: 171 171 106
Width: 1365
GlyphClass: 2
Flags: W
LayerCount: 4
Fore
SplineSet
228 455 m 1,0,-1
 0 455 l 1,1,-1
 0 683 l 1,2,-1
 228 683 l 1,3,-1
 228 455 l 1,0,-1
683 910 m 1,4,-1
 455 910 l 1,5,-1
 455 1138 l 1,6,-1
 683 1138 l 1,7,-1
 683 910 l 1,4,-1
455 683 m 1,8,-1
 228 683 l 1,9,-1
 228 910 l 1,10,-1
 455 910 l 1,11,-1
 455 683 l 1,8,-1
455 228 m 1,12,-1
 228 228 l 1,13,-1
 228 455 l 1,14,-1
 455 455 l 1,15,-1
 455 228 l 1,12,-1
683 0 m 1,16,-1
 455 0 l 1,17,-1
 455 228 l 1,18,-1
 683 228 l 1,19,-1
 683 0 l 1,16,-1
683 455 m 1,20,-1
 455 455 l 1,21,-1
 455 683 l 1,22,-1
 683 683 l 1,23,-1
 683 455 l 1,20,-1
1138 910 m 1,24,-1
 910 910 l 1,25,-1
 910 1138 l 1,26,-1
 1138 1138 l 1,27,-1
 1138 910 l 1,24,-1
910 683 m 1,28,-1
 683 683 l 1,29,-1
 683 910 l 1,30,-1
 910 910 l 1,31,-1
 910 683 l 1,28,-1
910 228 m 1,32,-1
 683 228 l 1,33,-1
 683 455 l 1,34,-1
 910 455 l 1,35,-1
 910 228 l 1,32,-1
1138 0 m 1,36,-1
 910 0 l 1,37,-1
 910 228 l 1,38,-1
 1138 228 l 1,39,-1
 1138 0 l 1,36,-1
EndSplineSet
Validated: 5
EndChar

StartChar: logicalnot
Encoding: 172 172 107
Width: 1365
GlyphClass: 2
Flags: W
LayerCount: 4
Fore
SplineSet
910 683 m 1,0,-1
 0 683 l 1,1,-1
 0 910 l 1,2,-1
 1138 910 l 1,3,-1
 1138 228 l 1,4,-1
 910 228 l 1,5,-1
 910 683 l 1,0,-1
EndSplineSet
Validated: 1
EndChar

StartChar: registered
Encoding: 174 174 108
Width: 1365
GlyphClass: 2
Flags: W
LayerCount: 4
Fore
SplineSet
455 683 m 1,0,-1
 455 455 l 1,1,-1
 228 455 l 1,2,-1
 228 1138 l 1,3,-1
 683 1138 l 1,4,-1
 683 683 l 1,5,-1
 455 683 l 1,0,-1
910 683 m 1,6,-1
 910 1365 l 1,7,-1
 1138 1365 l 1,8,-1
 1138 228 l 1,9,-1
 910 228 l 1,10,-1
 910 455 l 1,11,-1
 683 455 l 1,12,-1
 683 683 l 1,13,-1
 910 683 l 1,6,-1
910 1365 m 1,14,-1
 0 1365 l 1,15,-1
 0 1593 l 1,16,-1
 910 1593 l 1,17,-1
 910 1365 l 1,14,-1
0 228 m 1,18,-1
 -228 228 l 1,19,-1
 -228 1365 l 1,20,-1
 0 1365 l 1,21,-1
 0 228 l 1,18,-1
910 0 m 1,22,-1
 0 0 l 1,23,-1
 0 228 l 1,24,-1
 910 228 l 1,25,-1
 910 0 l 1,22,-1
EndSplineSet
Validated: 5
EndChar

StartChar: macron
Encoding: 175 175 109
Width: 1365
GlyphClass: 2
Flags: W
LayerCount: 4
Fore
SplineSet
910 1820 m 1,0,-1
 228 1820 l 1,1,-1
 228 2048 l 1,2,-1
 910 2048 l 1,3,-1
 910 1820 l 1,0,-1
EndSplineSet
Validated: 1
EndChar

StartChar: degree
Encoding: 176 176 110
Width: 1365
GlyphClass: 2
Flags: W
LayerCount: 4
Fore
SplineSet
910 1365 m 1,0,-1
 455 1365 l 1,1,-1
 455 1593 l 1,2,-1
 910 1593 l 1,3,-1
 910 1365 l 1,0,-1
1138 910 m 1,4,-1
 910 910 l 1,5,-1
 910 1365 l 1,6,-1
 1138 1365 l 1,7,-1
 1138 910 l 1,4,-1
455 910 m 1,8,-1
 228 910 l 1,9,-1
 228 1365 l 1,10,-1
 455 1365 l 1,11,-1
 455 910 l 1,8,-1
910 683 m 1,12,-1
 455 683 l 1,13,-1
 455 910 l 1,14,-1
 910 910 l 1,15,-1
 910 683 l 1,12,-1
EndSplineSet
Validated: 5
EndChar

StartChar: plusminus
Encoding: 177 177 111
Width: 1365
GlyphClass: 2
Flags: W
LayerCount: 4
Fore
SplineSet
683 910 m 1,0,-1
 1138 910 l 1,1,-1
 1138 683 l 1,2,-1
 683 683 l 1,3,-1
 683 455 l 1,4,-1
 455 455 l 1,5,-1
 455 683 l 1,6,-1
 0 683 l 1,7,-1
 0 910 l 1,8,-1
 455 910 l 1,9,-1
 455 1365 l 1,10,-1
 683 1365 l 1,11,-1
 683 910 l 1,0,-1
1138 0 m 1,12,-1
 0 0 l 1,13,-1
 0 228 l 1,14,-1
 1138 228 l 1,15,-1
 1138 0 l 1,12,-1
EndSplineSet
Validated: 1
EndChar

StartChar: uni00B2
Encoding: 178 178 112
Width: 1365
GlyphClass: 2
Flags: W
LayerCount: 4
Fore
SplineSet
683 1365 m 1,0,-1
 0 1365 l 1,1,-1
 0 1593 l 1,2,-1
 683 1593 l 1,3,-1
 683 1365 l 1,0,-1
683 910 m 1,4,-1
 455 910 l 1,5,-1
 455 1138 l 1,6,-1
 683 1138 l 1,7,-1
 683 910 l 1,4,-1
910 1138 m 1,8,-1
 683 1138 l 1,9,-1
 683 1365 l 1,10,-1
 910 1365 l 1,11,-1
 910 1138 l 1,8,-1
455 683 m 1,12,-1
 1138 683 l 1,13,-1
 1138 455 l 1,14,-1
 0 455 l 1,15,-1
 0 683 l 1,16,-1
 228 683 l 1,17,-1
 228 910 l 1,18,-1
 455 910 l 1,19,-1
 455 683 l 1,12,-1
EndSplineSet
Validated: 5
EndChar

StartChar: uni00B3
Encoding: 179 179 113
Width: 1365
GlyphClass: 2
Flags: W
LayerCount: 4
Fore
SplineSet
910 455 m 1,0,-1
 0 455 l 1,1,-1
 0 683 l 1,2,-1
 910 683 l 1,3,-1
 910 455 l 1,0,-1
910 910 m 1,4,-1
 228 910 l 1,5,-1
 228 1138 l 1,6,-1
 910 1138 l 1,7,-1
 910 910 l 1,4,-1
910 1365 m 1,8,-1
 0 1365 l 1,9,-1
 0 1593 l 1,10,-1
 910 1593 l 1,11,-1
 910 1365 l 1,8,-1
1138 1138 m 1,12,-1
 910 1138 l 1,13,-1
 910 1365 l 1,14,-1
 1138 1365 l 1,15,-1
 1138 1138 l 1,12,-1
1138 683 m 1,16,-1
 910 683 l 1,17,-1
 910 910 l 1,18,-1
 1138 910 l 1,19,-1
 1138 683 l 1,16,-1
EndSplineSet
Validated: 5
EndChar

StartChar: acute
Encoding: 180 180 114
Width: 1365
GlyphClass: 2
Flags: W
LayerCount: 4
Fore
SplineSet
910 1820 m 1,0,-1
 683 1820 l 1,1,-1
 683 2048 l 1,2,-1
 910 2048 l 1,3,-1
 910 1820 l 1,0,-1
683 1593 m 1,4,-1
 455 1593 l 1,5,-1
 455 1820 l 1,6,-1
 683 1820 l 1,7,-1
 683 1593 l 1,4,-1
EndSplineSet
Validated: 5
EndChar

StartChar: mu
Encoding: 181 181 115
Width: 1365
GlyphClass: 2
Flags: W
LayerCount: 4
Fore
SplineSet
1138 228 m 1,0,-1
 910 228 l 1,1,-1
 910 1138 l 1,2,-1
 1138 1138 l 1,3,-1
 1138 228 l 1,0,-1
228 0 m 1,4,-1
 228 -455 l 1,5,-1
 0 -455 l 1,6,-1
 0 1138 l 1,7,-1
 228 1138 l 1,8,-1
 228 228 l 1,9,-1
 910 228 l 1,10,-1
 910 0 l 1,11,-1
 228 0 l 1,4,-1
EndSplineSet
Validated: 5
EndChar

StartChar: paragraph
Encoding: 182 182 116
Width: 1365
GlyphClass: 2
Flags: W
LayerCount: 4
Fore
SplineSet
1138 -228 m 1,0,-1
 910 -228 l 1,1,-1
 910 1365 l 1,2,-1
 683 1365 l 1,3,-1
 683 -228 l 1,4,-1
 455 -228 l 1,5,-1
 455 683 l 1,6,-1
 228 683 l 1,7,-1
 228 910 l 1,8,-1
 0 910 l 1,9,-1
 0 1365 l 1,10,-1
 228 1365 l 1,11,-1
 228 1593 l 1,12,-1
 1138 1593 l 1,13,-1
 1138 -228 l 1,0,-1
EndSplineSet
Validated: 1
EndChar

StartChar: periodcentered
Encoding: 183 183 117
AltUni2: 002219.ffffffff.0 002219.ffffffff.0
Width: 1365
GlyphClass: 2
Flags: W
LayerCount: 4
Fore
SplineSet
683 683 m 1,0,-1
 455 683 l 1,1,-1
 455 910 l 1,2,-1
 683 910 l 1,3,-1
 683 683 l 1,0,-1
EndSplineSet
Validated: 1
EndChar

StartChar: cedilla
Encoding: 184 184 118
Width: 1365
GlyphClass: 2
Flags: W
LayerCount: 4
Fore
SplineSet
683 -228 m 1,0,-1
 455 -228 l 1,1,-1
 455 0 l 1,2,-1
 683 0 l 1,3,-1
 683 -228 l 1,0,-1
455 -455 m 1,4,-1
 228 -455 l 1,5,-1
 228 -228 l 1,6,-1
 455 -228 l 1,7,-1
 455 -455 l 1,4,-1
EndSplineSet
Validated: 5
EndChar

StartChar: uni00B9
Encoding: 185 185 119
Width: 1365
GlyphClass: 2
Flags: W
LayerCount: 4
Fore
SplineSet
455 1365 m 1,0,-1
 0 1365 l 1,1,-1
 0 1593 l 1,2,-1
 683 1593 l 1,3,-1
 683 683 l 1,4,-1
 1138 683 l 1,5,-1
 1138 455 l 1,6,-1
 0 455 l 1,7,-1
 0 683 l 1,8,-1
 455 683 l 1,9,-1
 455 1365 l 1,0,-1
EndSplineSet
Validated: 1
EndChar

StartChar: ordmasculine
Encoding: 186 186 120
Width: 1365
GlyphClass: 2
Flags: W
LayerCount: 4
Fore
SplineSet
910 455 m 1,0,-1
 228 455 l 1,1,-1
 228 683 l 1,2,-1
 910 683 l 1,3,-1
 910 455 l 1,0,-1
910 1365 m 1,4,-1
 228 1365 l 1,5,-1
 228 1593 l 1,6,-1
 910 1593 l 1,7,-1
 910 1365 l 1,4,-1
228 683 m 1,8,-1
 0 683 l 1,9,-1
 0 1365 l 1,10,-1
 228 1365 l 1,11,-1
 228 683 l 1,8,-1
1138 683 m 1,12,-1
 910 683 l 1,13,-1
 910 1365 l 1,14,-1
 1138 1365 l 1,15,-1
 1138 683 l 1,12,-1
EndSplineSet
Validated: 5
EndChar

StartChar: guillemotright
Encoding: 187 187 121
Width: 1365
GlyphClass: 2
Flags: W
LayerCount: 4
Fore
SplineSet
910 455 m 1,0,-1
 910 683 l 1,1,-1
 1138 683 l 1,2,-1
 1138 455 l 1,3,-1
 910 455 l 1,0,-1
455 910 m 1,4,-1
 455 1138 l 1,5,-1
 683 1138 l 1,6,-1
 683 910 l 1,7,-1
 455 910 l 1,4,-1
683 683 m 1,8,-1
 683 910 l 1,9,-1
 910 910 l 1,10,-1
 910 683 l 1,11,-1
 683 683 l 1,8,-1
683 228 m 1,12,-1
 683 455 l 1,13,-1
 910 455 l 1,14,-1
 910 228 l 1,15,-1
 683 228 l 1,12,-1
455 0 m 1,16,-1
 455 228 l 1,17,-1
 683 228 l 1,18,-1
 683 0 l 1,19,-1
 455 0 l 1,16,-1
455 455 m 1,20,-1
 455 683 l 1,21,-1
 683 683 l 1,22,-1
 683 455 l 1,23,-1
 455 455 l 1,20,-1
0 910 m 1,24,-1
 0 1138 l 1,25,-1
 228 1138 l 1,26,-1
 228 910 l 1,27,-1
 0 910 l 1,24,-1
228 683 m 1,28,-1
 228 910 l 1,29,-1
 455 910 l 1,30,-1
 455 683 l 1,31,-1
 228 683 l 1,28,-1
228 228 m 1,32,-1
 228 455 l 1,33,-1
 455 455 l 1,34,-1
 455 228 l 1,35,-1
 228 228 l 1,32,-1
0 0 m 1,36,-1
 0 228 l 1,37,-1
 228 228 l 1,38,-1
 228 0 l 1,39,-1
 0 0 l 1,36,-1
EndSplineSet
Validated: 5
EndChar

StartChar: questiondown
Encoding: 191 191 122
Width: 1365
GlyphClass: 2
Flags: W
LayerCount: 4
Fore
SplineSet
910 228 m 1,0,-1
 1138 228 l 1,1,-1
 1138 0 l 1,2,-1
 910 0 l 1,3,-1
 910 228 l 1,0,-1
228 0 m 1,4,-1
 910 0 l 1,5,-1
 910 -228 l 1,6,-1
 228 -228 l 1,7,-1
 228 0 l 1,4,-1
0 455 m 1,8,-1
 228 455 l 1,9,-1
 228 0 l 1,10,-1
 0 0 l 1,11,-1
 0 455 l 1,8,-1
228 683 m 1,12,-1
 455 683 l 1,13,-1
 455 455 l 1,14,-1
 228 455 l 1,15,-1
 228 683 l 1,12,-1
455 910 m 1,16,-1
 683 910 l 1,17,-1
 683 683 l 1,18,-1
 455 683 l 1,19,-1
 455 910 l 1,16,-1
455 1365 m 1,20,-1
 683 1365 l 1,21,-1
 683 1138 l 1,22,-1
 455 1138 l 1,23,-1
 455 1365 l 1,20,-1
EndSplineSet
Validated: 5
EndChar

StartChar: Agrave
Encoding: 192 192 123
Width: 1365
GlyphClass: 2
Flags: W
LayerCount: 4
Fore
SplineSet
228 683 m 1,0,-1
 228 0 l 1,1,-1
 0 0 l 1,2,-1
 0 1365 l 1,3,-1
 228 1365 l 1,4,-1
 228 910 l 1,5,-1
 910 910 l 1,6,-1
 910 1365 l 1,7,-1
 1138 1365 l 1,8,-1
 1138 0 l 1,9,-1
 910 0 l 1,10,-1
 910 683 l 1,11,-1
 228 683 l 1,0,-1
683 1593 m 1,12,-1
 910 1593 l 1,13,-1
 910 1365 l 1,14,-1
 228 1365 l 1,15,-1
 228 1593 l 1,16,-1
 455 1593 l 1,17,-1
 455 1820 l 1,18,-1
 683 1820 l 1,19,-1
 683 1593 l 1,12,-1
455 1820 m 1,20,-1
 228 1820 l 1,21,-1
 228 2048 l 1,22,-1
 455 2048 l 1,23,-1
 455 1820 l 1,20,-1
EndSplineSet
Validated: 5
EndChar

StartChar: Aacute
Encoding: 193 193 124
Width: 1365
GlyphClass: 2
Flags: W
LayerCount: 4
Fore
SplineSet
228 683 m 1,0,-1
 228 0 l 1,1,-1
 0 0 l 1,2,-1
 0 1365 l 1,3,-1
 228 1365 l 1,4,-1
 228 910 l 1,5,-1
 910 910 l 1,6,-1
 910 1365 l 1,7,-1
 1138 1365 l 1,8,-1
 1138 0 l 1,9,-1
 910 0 l 1,10,-1
 910 683 l 1,11,-1
 228 683 l 1,0,-1
683 1593 m 1,12,-1
 910 1593 l 1,13,-1
 910 1365 l 1,14,-1
 228 1365 l 1,15,-1
 228 1593 l 1,16,-1
 455 1593 l 1,17,-1
 455 1820 l 1,18,-1
 683 1820 l 1,19,-1
 683 1593 l 1,12,-1
910 1820 m 1,20,-1
 683 1820 l 1,21,-1
 683 2048 l 1,22,-1
 910 2048 l 1,23,-1
 910 1820 l 1,20,-1
EndSplineSet
Validated: 5
EndChar

StartChar: Adieresis
Encoding: 196 196 125
Width: 1365
GlyphClass: 2
Flags: W
LayerCount: 4
Fore
SplineSet
228 683 m 1,0,-1
 228 0 l 1,1,-1
 0 0 l 1,2,-1
 0 1365 l 1,3,-1
 228 1365 l 1,4,-1
 228 910 l 1,5,-1
 910 910 l 1,6,-1
 910 1365 l 1,7,-1
 1138 1365 l 1,8,-1
 1138 0 l 1,9,-1
 910 0 l 1,10,-1
 910 683 l 1,11,-1
 228 683 l 1,0,-1
910 1365 m 1,12,-1
 228 1365 l 1,13,-1
 228 1593 l 1,14,-1
 910 1593 l 1,15,-1
 910 1365 l 1,12,-1
455 1820 m 1,16,-1
 228 1820 l 1,17,-1
 228 2048 l 1,18,-1
 455 2048 l 1,19,-1
 455 1820 l 1,16,-1
910 1820 m 1,20,-1
 683 1820 l 1,21,-1
 683 2048 l 1,22,-1
 910 2048 l 1,23,-1
 910 1820 l 1,20,-1
EndSplineSet
Validated: 5
EndChar

StartChar: AE
Encoding: 198 198 126
Width: 1365
GlyphClass: 2
Flags: W
LayerCount: 4
Fore
SplineSet
455 1365 m 1,0,-1
 228 1365 l 1,1,-1
 228 1593 l 1,2,-1
 455 1593 l 1,3,-1
 455 1365 l 1,0,-1
1138 1365 m 1,4,-1
 683 1365 l 1,5,-1
 683 1593 l 1,6,-1
 1138 1593 l 1,7,-1
 1138 1365 l 1,4,-1
455 910 m 1,8,-1
 455 1365 l 1,9,-1
 683 1365 l 1,10,-1
 683 910 l 1,11,-1
 1138 910 l 1,12,-1
 1138 683 l 1,13,-1
 683 683 l 1,14,-1
 683 228 l 1,15,-1
 1138 228 l 1,16,-1
 1138 0 l 1,17,-1
 455 0 l 1,18,-1
 455 683 l 1,19,-1
 228 683 l 1,20,-1
 228 0 l 1,21,-1
 0 0 l 1,22,-1
 0 1365 l 1,23,-1
 228 1365 l 1,24,-1
 228 910 l 1,25,-1
 455 910 l 1,8,-1
EndSplineSet
Validated: 5
EndChar

StartChar: Ccedilla
Encoding: 199 199 127
Width: 1365
GlyphClass: 2
Flags: W
LayerCount: 4
Fore
SplineSet
228 228 m 1,0,-1
 0 228 l 1,1,-1
 0 1365 l 1,2,-1
 228 1365 l 1,3,-1
 228 228 l 1,0,-1
455 -455 m 1,4,-1
 228 -455 l 1,5,-1
 228 -228 l 1,6,-1
 455 -228 l 1,7,-1
 455 -455 l 1,4,-1
455 0 m 1,8,-1
 228 0 l 1,9,-1
 228 228 l 1,10,-1
 910 228 l 1,11,-1
 910 0 l 1,12,-1
 683 0 l 1,13,-1
 683 -228 l 1,14,-1
 455 -228 l 1,15,-1
 455 0 l 1,8,-1
910 1365 m 1,16,-1
 228 1365 l 1,17,-1
 228 1593 l 1,18,-1
 910 1593 l 1,19,-1
 910 1365 l 1,16,-1
1138 1138 m 1,20,-1
 910 1138 l 1,21,-1
 910 1365 l 1,22,-1
 1138 1365 l 1,23,-1
 1138 1138 l 1,20,-1
1138 228 m 1,24,-1
 910 228 l 1,25,-1
 910 455 l 1,26,-1
 1138 455 l 1,27,-1
 1138 228 l 1,24,-1
EndSplineSet
Validated: 5
EndChar

StartChar: Egrave
Encoding: 200 200 128
Width: 1365
GlyphClass: 2
Flags: W
LayerCount: 4
Fore
SplineSet
455 1820 m 1,0,-1
 228 1820 l 1,1,-1
 228 2048 l 1,2,-1
 455 2048 l 1,3,-1
 455 1820 l 1,0,-1
683 1593 m 1,4,-1
 1138 1593 l 1,5,-1
 1138 1365 l 1,6,-1
 228 1365 l 1,7,-1
 228 910 l 1,8,-1
 910 910 l 1,9,-1
 910 683 l 1,10,-1
 228 683 l 1,11,-1
 228 228 l 1,12,-1
 1138 228 l 1,13,-1
 1138 0 l 1,14,-1
 0 0 l 1,15,-1
 0 1593 l 1,16,-1
 455 1593 l 1,17,-1
 455 1820 l 1,18,-1
 683 1820 l 1,19,-1
 683 1593 l 1,4,-1
EndSplineSet
Validated: 5
EndChar

StartChar: Eacute
Encoding: 201 201 129
Width: 1365
GlyphClass: 2
Flags: W
LayerCount: 4
Fore
SplineSet
910 1820 m 1,0,-1
 683 1820 l 1,1,-1
 683 2048 l 1,2,-1
 910 2048 l 1,3,-1
 910 1820 l 1,0,-1
683 1593 m 1,4,-1
 1138 1593 l 1,5,-1
 1138 1365 l 1,6,-1
 228 1365 l 1,7,-1
 228 910 l 1,8,-1
 910 910 l 1,9,-1
 910 683 l 1,10,-1
 228 683 l 1,11,-1
 228 228 l 1,12,-1
 1138 228 l 1,13,-1
 1138 0 l 1,14,-1
 0 0 l 1,15,-1
 0 1593 l 1,16,-1
 455 1593 l 1,17,-1
 455 1820 l 1,18,-1
 683 1820 l 1,19,-1
 683 1593 l 1,4,-1
EndSplineSet
Validated: 5
EndChar

StartChar: Edieresis
Encoding: 203 203 130
Width: 1365
GlyphClass: 2
Flags: W
LayerCount: 4
Fore
SplineSet
228 228 m 1,0,-1
 1138 228 l 1,1,-1
 1138 0 l 1,2,-1
 0 0 l 1,3,-1
 0 1593 l 1,4,-1
 1138 1593 l 1,5,-1
 1138 1365 l 1,6,-1
 228 1365 l 1,7,-1
 228 910 l 1,8,-1
 910 910 l 1,9,-1
 910 683 l 1,10,-1
 228 683 l 1,11,-1
 228 228 l 1,0,-1
455 1820 m 1,12,-1
 228 1820 l 1,13,-1
 228 2048 l 1,14,-1
 455 2048 l 1,15,-1
 455 1820 l 1,12,-1
910 1820 m 1,16,-1
 683 1820 l 1,17,-1
 683 2048 l 1,18,-1
 910 2048 l 1,19,-1
 910 1820 l 1,16,-1
EndSplineSet
Validated: 1
EndChar

StartChar: Igrave
Encoding: 204 204 131
Width: 1365
GlyphClass: 2
Flags: W
LayerCount: 4
Fore
SplineSet
455 1820 m 1,0,-1
 228 1820 l 1,1,-1
 228 2048 l 1,2,-1
 455 2048 l 1,3,-1
 455 1820 l 1,0,-1
683 1593 m 1,4,-1
 1138 1593 l 1,5,-1
 1138 1365 l 1,6,-1
 683 1365 l 1,7,-1
 683 228 l 1,8,-1
 1138 228 l 1,9,-1
 1138 0 l 1,10,-1
 0 0 l 1,11,-1
 0 228 l 1,12,-1
 455 228 l 1,13,-1
 455 1365 l 1,14,-1
 0 1365 l 1,15,-1
 0 1593 l 1,16,-1
 455 1593 l 1,17,-1
 455 1820 l 1,18,-1
 683 1820 l 1,19,-1
 683 1593 l 1,4,-1
EndSplineSet
Validated: 5
EndChar

StartChar: Iacute
Encoding: 205 205 132
Width: 1365
GlyphClass: 2
Flags: W
LayerCount: 4
Fore
SplineSet
910 1820 m 1,0,-1
 683 1820 l 1,1,-1
 683 2048 l 1,2,-1
 910 2048 l 1,3,-1
 910 1820 l 1,0,-1
683 1593 m 1,4,-1
 1138 1593 l 1,5,-1
 1138 1365 l 1,6,-1
 683 1365 l 1,7,-1
 683 228 l 1,8,-1
 1138 228 l 1,9,-1
 1138 0 l 1,10,-1
 0 0 l 1,11,-1
 0 228 l 1,12,-1
 455 228 l 1,13,-1
 455 1365 l 1,14,-1
 0 1365 l 1,15,-1
 0 1593 l 1,16,-1
 455 1593 l 1,17,-1
 455 1820 l 1,18,-1
 683 1820 l 1,19,-1
 683 1593 l 1,4,-1
EndSplineSet
Validated: 5
EndChar

StartChar: Idieresis
Encoding: 207 207 133
Width: 1365
GlyphClass: 2
Flags: W
LayerCount: 4
Fore
SplineSet
683 228 m 1,0,-1
 1138 228 l 1,1,-1
 1138 0 l 1,2,-1
 0 0 l 1,3,-1
 0 228 l 1,4,-1
 455 228 l 1,5,-1
 455 1365 l 1,6,-1
 0 1365 l 1,7,-1
 0 1593 l 1,8,-1
 1138 1593 l 1,9,-1
 1138 1365 l 1,10,-1
 683 1365 l 1,11,-1
 683 228 l 1,0,-1
455 1820 m 1,12,-1
 228 1820 l 1,13,-1
 228 2048 l 1,14,-1
 455 2048 l 1,15,-1
 455 1820 l 1,12,-1
910 1820 m 1,16,-1
 683 1820 l 1,17,-1
 683 2048 l 1,18,-1
 910 2048 l 1,19,-1
 910 1820 l 1,16,-1
EndSplineSet
Validated: 1
EndChar

StartChar: Eth
Encoding: 208 208 134
Width: 1365
GlyphClass: 2
Flags: W
LayerCount: 4
Fore
SplineSet
1138 455 m 1,0,-1
 910 455 l 1,1,-1
 910 1138 l 1,2,-1
 1138 1138 l 1,3,-1
 1138 455 l 1,0,-1
0 910 m 1,4,-1
 0 1593 l 1,5,-1
 683 1593 l 1,6,-1
 683 1365 l 1,7,-1
 228 1365 l 1,8,-1
 228 910 l 1,9,-1
 455 910 l 1,10,-1
 455 683 l 1,11,-1
 228 683 l 1,12,-1
 228 228 l 1,13,-1
 683 228 l 1,14,-1
 683 0 l 1,15,-1
 0 0 l 1,16,-1
 0 683 l 1,17,-1
 -228 683 l 1,18,-1
 -228 910 l 1,19,-1
 0 910 l 1,4,-1
910 228 m 1,20,-1
 683 228 l 1,21,-1
 683 455 l 1,22,-1
 910 455 l 1,23,-1
 910 228 l 1,20,-1
910 1138 m 1,24,-1
 683 1138 l 1,25,-1
 683 1365 l 1,26,-1
 910 1365 l 1,27,-1
 910 1138 l 1,24,-1
EndSplineSet
Validated: 5
EndChar

StartChar: Ograve
Encoding: 210 210 135
Width: 1365
GlyphClass: 2
Flags: W
LayerCount: 4
Fore
SplineSet
228 228 m 1,0,-1
 0 228 l 1,1,-1
 0 1365 l 1,2,-1
 228 1365 l 1,3,-1
 228 228 l 1,0,-1
683 1593 m 1,4,-1
 910 1593 l 1,5,-1
 910 1365 l 1,6,-1
 228 1365 l 1,7,-1
 228 1593 l 1,8,-1
 455 1593 l 1,9,-1
 455 1820 l 1,10,-1
 683 1820 l 1,11,-1
 683 1593 l 1,4,-1
455 1820 m 1,12,-1
 228 1820 l 1,13,-1
 228 2048 l 1,14,-1
 455 2048 l 1,15,-1
 455 1820 l 1,12,-1
910 0 m 1,16,-1
 228 0 l 1,17,-1
 228 228 l 1,18,-1
 910 228 l 1,19,-1
 910 0 l 1,16,-1
1138 228 m 1,20,-1
 910 228 l 1,21,-1
 910 1365 l 1,22,-1
 1138 1365 l 1,23,-1
 1138 228 l 1,20,-1
EndSplineSet
Validated: 5
EndChar

StartChar: Oacute
Encoding: 211 211 136
Width: 1365
GlyphClass: 2
Flags: W
LayerCount: 4
Fore
SplineSet
228 228 m 1,0,-1
 0 228 l 1,1,-1
 0 1365 l 1,2,-1
 228 1365 l 1,3,-1
 228 228 l 1,0,-1
683 1593 m 1,4,-1
 910 1593 l 1,5,-1
 910 1365 l 1,6,-1
 228 1365 l 1,7,-1
 228 1593 l 1,8,-1
 455 1593 l 1,9,-1
 455 1820 l 1,10,-1
 683 1820 l 1,11,-1
 683 1593 l 1,4,-1
910 1820 m 1,12,-1
 683 1820 l 1,13,-1
 683 2048 l 1,14,-1
 910 2048 l 1,15,-1
 910 1820 l 1,12,-1
910 0 m 1,16,-1
 228 0 l 1,17,-1
 228 228 l 1,18,-1
 910 228 l 1,19,-1
 910 0 l 1,16,-1
1138 228 m 1,20,-1
 910 228 l 1,21,-1
 910 1365 l 1,22,-1
 1138 1365 l 1,23,-1
 1138 228 l 1,20,-1
EndSplineSet
Validated: 5
EndChar

StartChar: Odieresis
Encoding: 214 214 137
Width: 1365
GlyphClass: 2
Flags: W
LayerCount: 4
Fore
SplineSet
228 228 m 1,0,-1
 0 228 l 1,1,-1
 0 1365 l 1,2,-1
 228 1365 l 1,3,-1
 228 228 l 1,0,-1
1138 228 m 1,4,-1
 910 228 l 1,5,-1
 910 1365 l 1,6,-1
 1138 1365 l 1,7,-1
 1138 228 l 1,4,-1
910 1365 m 1,8,-1
 228 1365 l 1,9,-1
 228 1593 l 1,10,-1
 910 1593 l 1,11,-1
 910 1365 l 1,8,-1
910 0 m 1,12,-1
 228 0 l 1,13,-1
 228 228 l 1,14,-1
 910 228 l 1,15,-1
 910 0 l 1,12,-1
455 1820 m 1,16,-1
 228 1820 l 1,17,-1
 228 2048 l 1,18,-1
 455 2048 l 1,19,-1
 455 1820 l 1,16,-1
910 1820 m 1,20,-1
 683 1820 l 1,21,-1
 683 2048 l 1,22,-1
 910 2048 l 1,23,-1
 910 1820 l 1,20,-1
EndSplineSet
Validated: 5
EndChar

StartChar: multiply
Encoding: 215 215 138
Width: 1365
GlyphClass: 2
Flags: W
LayerCount: 4
Fore
SplineSet
228 228 m 1,0,-1
 0 228 l 1,1,-1
 0 455 l 1,2,-1
 228 455 l 1,3,-1
 228 228 l 1,0,-1
455 455 m 1,4,-1
 228 455 l 1,5,-1
 228 683 l 1,6,-1
 455 683 l 1,7,-1
 455 455 l 1,4,-1
683 683 m 1,8,-1
 455 683 l 1,9,-1
 455 910 l 1,10,-1
 683 910 l 1,11,-1
 683 683 l 1,8,-1
228 1138 m 1,12,-1
 0 1138 l 1,13,-1
 0 1365 l 1,14,-1
 228 1365 l 1,15,-1
 228 1138 l 1,12,-1
455 910 m 1,16,-1
 228 910 l 1,17,-1
 228 1138 l 1,18,-1
 455 1138 l 1,19,-1
 455 910 l 1,16,-1
910 455 m 1,20,-1
 683 455 l 1,21,-1
 683 683 l 1,22,-1
 910 683 l 1,23,-1
 910 455 l 1,20,-1
1138 228 m 1,24,-1
 910 228 l 1,25,-1
 910 455 l 1,26,-1
 1138 455 l 1,27,-1
 1138 228 l 1,24,-1
910 910 m 1,28,-1
 683 910 l 1,29,-1
 683 1138 l 1,30,-1
 910 1138 l 1,31,-1
 910 910 l 1,28,-1
1138 1138 m 1,32,-1
 910 1138 l 1,33,-1
 910 1365 l 1,34,-1
 1138 1365 l 1,35,-1
 1138 1138 l 1,32,-1
EndSplineSet
Validated: 5
EndChar

StartChar: Oslash
Encoding: 216 216 139
Width: 1365
GlyphClass: 2
Flags: W
LayerCount: 4
Fore
SplineSet
910 1365 m 1,0,-1
 228 1365 l 1,1,-1
 228 1593 l 1,2,-1
 910 1593 l 1,3,-1
 910 1365 l 1,0,-1
910 1138 m 1,4,-1
 910 1365 l 1,5,-1
 1138 1365 l 1,6,-1
 1138 228 l 1,7,-1
 910 228 l 1,8,-1
 910 910 l 1,9,-1
 683 910 l 1,10,-1
 683 1138 l 1,11,-1
 910 1138 l 1,4,-1
683 683 m 1,12,-1
 455 683 l 1,13,-1
 455 910 l 1,14,-1
 683 910 l 1,15,-1
 683 683 l 1,12,-1
228 455 m 1,16,-1
 228 228 l 1,17,-1
 0 228 l 1,18,-1
 0 1365 l 1,19,-1
 228 1365 l 1,20,-1
 228 683 l 1,21,-1
 455 683 l 1,22,-1
 455 455 l 1,23,-1
 228 455 l 1,16,-1
910 0 m 1,24,-1
 228 0 l 1,25,-1
 228 228 l 1,26,-1
 910 228 l 1,27,-1
 910 0 l 1,24,-1
EndSplineSet
Validated: 5
EndChar

StartChar: Ugrave
Encoding: 217 217 140
Width: 1365
GlyphClass: 2
Flags: W
LayerCount: 4
Fore
SplineSet
228 228 m 1,0,-1
 0 228 l 1,1,-1
 0 1593 l 1,2,-1
 228 1593 l 1,3,-1
 228 228 l 1,0,-1
910 0 m 1,4,-1
 228 0 l 1,5,-1
 228 228 l 1,6,-1
 910 228 l 1,7,-1
 910 0 l 1,4,-1
1138 228 m 1,8,-1
 910 228 l 1,9,-1
 910 1593 l 1,10,-1
 1138 1593 l 1,11,-1
 1138 228 l 1,8,-1
455 1820 m 1,12,-1
 228 1820 l 1,13,-1
 228 2048 l 1,14,-1
 455 2048 l 1,15,-1
 455 1820 l 1,12,-1
683 1593 m 1,16,-1
 455 1593 l 1,17,-1
 455 1820 l 1,18,-1
 683 1820 l 1,19,-1
 683 1593 l 1,16,-1
EndSplineSet
Validated: 5
EndChar

StartChar: Uacute
Encoding: 218 218 141
Width: 1365
GlyphClass: 2
Flags: W
LayerCount: 4
Fore
SplineSet
228 228 m 1,0,-1
 0 228 l 1,1,-1
 0 1593 l 1,2,-1
 228 1593 l 1,3,-1
 228 228 l 1,0,-1
910 0 m 1,4,-1
 228 0 l 1,5,-1
 228 228 l 1,6,-1
 910 228 l 1,7,-1
 910 0 l 1,4,-1
1138 228 m 1,8,-1
 910 228 l 1,9,-1
 910 1593 l 1,10,-1
 1138 1593 l 1,11,-1
 1138 228 l 1,8,-1
910 1820 m 1,12,-1
 683 1820 l 1,13,-1
 683 2048 l 1,14,-1
 910 2048 l 1,15,-1
 910 1820 l 1,12,-1
683 1593 m 1,16,-1
 455 1593 l 1,17,-1
 455 1820 l 1,18,-1
 683 1820 l 1,19,-1
 683 1593 l 1,16,-1
EndSplineSet
Validated: 5
EndChar

StartChar: Udieresis
Encoding: 220 220 142
Width: 1365
GlyphClass: 2
Flags: W
LayerCount: 4
Fore
SplineSet
228 228 m 1,0,-1
 0 228 l 1,1,-1
 0 1593 l 1,2,-1
 228 1593 l 1,3,-1
 228 228 l 1,0,-1
910 0 m 1,4,-1
 228 0 l 1,5,-1
 228 228 l 1,6,-1
 910 228 l 1,7,-1
 910 0 l 1,4,-1
1138 228 m 1,8,-1
 910 228 l 1,9,-1
 910 1593 l 1,10,-1
 1138 1593 l 1,11,-1
 1138 228 l 1,8,-1
455 1820 m 1,12,-1
 228 1820 l 1,13,-1
 228 2048 l 1,14,-1
 455 2048 l 1,15,-1
 455 1820 l 1,12,-1
910 1820 m 1,16,-1
 683 1820 l 1,17,-1
 683 2048 l 1,18,-1
 910 2048 l 1,19,-1
 910 1820 l 1,16,-1
EndSplineSet
Validated: 5
EndChar

StartChar: Yacute
Encoding: 221 221 143
Width: 1365
GlyphClass: 2
Flags: W
LayerCount: 4
Fore
SplineSet
228 910 m 1,0,-1
 0 910 l 1,1,-1
 0 1593 l 1,2,-1
 228 1593 l 1,3,-1
 228 910 l 1,0,-1
683 683 m 1,4,-1
 683 0 l 1,5,-1
 455 0 l 1,6,-1
 455 683 l 1,7,-1
 228 683 l 1,8,-1
 228 910 l 1,9,-1
 910 910 l 1,10,-1
 910 683 l 1,11,-1
 683 683 l 1,4,-1
1138 910 m 1,12,-1
 910 910 l 1,13,-1
 910 1593 l 1,14,-1
 1138 1593 l 1,15,-1
 1138 910 l 1,12,-1
910 1820 m 1,16,-1
 683 1820 l 1,17,-1
 683 2048 l 1,18,-1
 910 2048 l 1,19,-1
 910 1820 l 1,16,-1
683 1593 m 1,20,-1
 455 1593 l 1,21,-1
 455 1820 l 1,22,-1
 683 1820 l 1,23,-1
 683 1593 l 1,20,-1
EndSplineSet
Validated: 5
EndChar

StartChar: Thorn
Encoding: 222 222 144
Width: 1365
GlyphClass: 2
Flags: W
LayerCount: 4
Fore
SplineSet
228 455 m 1,0,-1
 910 455 l 1,1,-1
 910 228 l 1,2,-1
 228 228 l 1,3,-1
 228 0 l 1,4,-1
 0 0 l 1,5,-1
 0 1593 l 1,6,-1
 228 1593 l 1,7,-1
 228 1365 l 1,8,-1
 910 1365 l 1,9,-1
 910 1138 l 1,10,-1
 228 1138 l 1,11,-1
 228 455 l 1,0,-1
1138 455 m 1,12,-1
 910 455 l 1,13,-1
 910 1138 l 1,14,-1
 1138 1138 l 1,15,-1
 1138 455 l 1,12,-1
EndSplineSet
Validated: 5
EndChar

StartChar: germandbls
Encoding: 223 223 145
Width: 1365
GlyphClass: 2
Flags: W
LayerCount: 4
Fore
SplineSet
228 0 m 1,0,-1
 0 0 l 1,1,-1
 0 1365 l 1,2,-1
 228 1365 l 1,3,-1
 228 0 l 1,0,-1
910 0 m 1,4,-1
 455 0 l 1,5,-1
 455 228 l 1,6,-1
 910 228 l 1,7,-1
 910 0 l 1,4,-1
1138 228 m 1,8,-1
 910 228 l 1,9,-1
 910 455 l 1,10,-1
 1138 455 l 1,11,-1
 1138 228 l 1,8,-1
683 1365 m 1,12,-1
 228 1365 l 1,13,-1
 228 1593 l 1,14,-1
 683 1593 l 1,15,-1
 683 1365 l 1,12,-1
910 910 m 1,16,-1
 683 910 l 1,17,-1
 683 1365 l 1,18,-1
 910 1365 l 1,19,-1
 910 910 l 1,16,-1
683 683 m 1,20,-1
 455 683 l 1,21,-1
 455 910 l 1,22,-1
 683 910 l 1,23,-1
 683 683 l 1,20,-1
910 455 m 1,24,-1
 683 455 l 1,25,-1
 683 683 l 1,26,-1
 910 683 l 1,27,-1
 910 455 l 1,24,-1
EndSplineSet
Validated: 5
EndChar

StartChar: agrave
Encoding: 224 224 146
Width: 1365
GlyphClass: 2
Flags: W
LayerCount: 4
Fore
SplineSet
228 228 m 1,0,-1
 0 228 l 1,1,-1
 0 910 l 1,2,-1
 228 910 l 1,3,-1
 228 228 l 1,0,-1
910 683 m 1,4,-1
 683 683 l 1,5,-1
 683 910 l 1,6,-1
 910 910 l 1,7,-1
 910 1138 l 1,8,-1
 1138 1138 l 1,9,-1
 1138 0 l 1,10,-1
 910 0 l 1,11,-1
 910 228 l 1,12,-1
 683 228 l 1,13,-1
 683 455 l 1,14,-1
 910 455 l 1,15,-1
 910 683 l 1,4,-1
683 0 m 1,16,-1
 228 0 l 1,17,-1
 228 228 l 1,18,-1
 683 228 l 1,19,-1
 683 0 l 1,16,-1
683 910 m 1,20,-1
 228 910 l 1,21,-1
 228 1138 l 1,22,-1
 683 1138 l 1,23,-1
 683 910 l 1,20,-1
455 1593 m 1,24,-1
 228 1593 l 1,25,-1
 228 1820 l 1,26,-1
 455 1820 l 1,27,-1
 455 1593 l 1,24,-1
683 1365 m 1,28,-1
 455 1365 l 1,29,-1
 455 1593 l 1,30,-1
 683 1593 l 1,31,-1
 683 1365 l 1,28,-1
EndSplineSet
Validated: 5
EndChar

StartChar: aacute
Encoding: 225 225 147
Width: 1365
GlyphClass: 2
Flags: W
LayerCount: 4
Fore
SplineSet
228 228 m 1,0,-1
 0 228 l 1,1,-1
 0 910 l 1,2,-1
 228 910 l 1,3,-1
 228 228 l 1,0,-1
910 683 m 1,4,-1
 683 683 l 1,5,-1
 683 910 l 1,6,-1
 910 910 l 1,7,-1
 910 1138 l 1,8,-1
 1138 1138 l 1,9,-1
 1138 0 l 1,10,-1
 910 0 l 1,11,-1
 910 228 l 1,12,-1
 683 228 l 1,13,-1
 683 455 l 1,14,-1
 910 455 l 1,15,-1
 910 683 l 1,4,-1
683 0 m 1,16,-1
 228 0 l 1,17,-1
 228 228 l 1,18,-1
 683 228 l 1,19,-1
 683 0 l 1,16,-1
683 910 m 1,20,-1
 228 910 l 1,21,-1
 228 1138 l 1,22,-1
 683 1138 l 1,23,-1
 683 910 l 1,20,-1
910 1593 m 1,24,-1
 683 1593 l 1,25,-1
 683 1820 l 1,26,-1
 910 1820 l 1,27,-1
 910 1593 l 1,24,-1
683 1365 m 1,28,-1
 455 1365 l 1,29,-1
 455 1593 l 1,30,-1
 683 1593 l 1,31,-1
 683 1365 l 1,28,-1
EndSplineSet
Validated: 5
EndChar

StartChar: adieresis
Encoding: 228 228 148
Width: 1365
GlyphClass: 2
Flags: W
LayerCount: 4
Fore
SplineSet
228 228 m 1,0,-1
 0 228 l 1,1,-1
 0 910 l 1,2,-1
 228 910 l 1,3,-1
 228 228 l 1,0,-1
910 683 m 1,4,-1
 683 683 l 1,5,-1
 683 910 l 1,6,-1
 910 910 l 1,7,-1
 910 1138 l 1,8,-1
 1138 1138 l 1,9,-1
 1138 0 l 1,10,-1
 910 0 l 1,11,-1
 910 228 l 1,12,-1
 683 228 l 1,13,-1
 683 455 l 1,14,-1
 910 455 l 1,15,-1
 910 683 l 1,4,-1
683 0 m 1,16,-1
 228 0 l 1,17,-1
 228 228 l 1,18,-1
 683 228 l 1,19,-1
 683 0 l 1,16,-1
683 910 m 1,20,-1
 228 910 l 1,21,-1
 228 1138 l 1,22,-1
 683 1138 l 1,23,-1
 683 910 l 1,20,-1
455 1365 m 1,24,-1
 228 1365 l 1,25,-1
 228 1593 l 1,26,-1
 455 1593 l 1,27,-1
 455 1365 l 1,24,-1
910 1365 m 1,28,-1
 683 1365 l 1,29,-1
 683 1593 l 1,30,-1
 910 1593 l 1,31,-1
 910 1365 l 1,28,-1
EndSplineSet
Validated: 5
EndChar

StartChar: ae
Encoding: 230 230 149
Width: 1365
GlyphClass: 2
Flags: W
LayerCount: 4
Fore
SplineSet
228 228 m 1,0,-1
 0 228 l 1,1,-1
 0 910 l 1,2,-1
 228 910 l 1,3,-1
 228 228 l 1,0,-1
455 910 m 1,4,-1
 228 910 l 1,5,-1
 228 1138 l 1,6,-1
 910 1138 l 1,7,-1
 910 910 l 1,8,-1
 683 910 l 1,9,-1
 683 683 l 1,10,-1
 910 683 l 1,11,-1
 910 455 l 1,12,-1
 683 455 l 1,13,-1
 683 228 l 1,14,-1
 1138 228 l 1,15,-1
 1138 0 l 1,16,-1
 228 0 l 1,17,-1
 228 228 l 1,18,-1
 455 228 l 1,19,-1
 455 910 l 1,4,-1
1138 683 m 1,20,-1
 910 683 l 1,21,-1
 910 910 l 1,22,-1
 1138 910 l 1,23,-1
 1138 683 l 1,20,-1
EndSplineSet
Validated: 5
EndChar

StartChar: ccedilla
Encoding: 231 231 150
Width: 1365
GlyphClass: 2
Flags: W
LayerCount: 4
Fore
SplineSet
228 228 m 1,0,-1
 0 228 l 1,1,-1
 0 910 l 1,2,-1
 228 910 l 1,3,-1
 228 228 l 1,0,-1
455 -455 m 1,4,-1
 228 -455 l 1,5,-1
 228 -228 l 1,6,-1
 455 -228 l 1,7,-1
 455 -455 l 1,4,-1
455 0 m 1,8,-1
 228 0 l 1,9,-1
 228 228 l 1,10,-1
 1138 228 l 1,11,-1
 1138 0 l 1,12,-1
 683 0 l 1,13,-1
 683 -228 l 1,14,-1
 455 -228 l 1,15,-1
 455 0 l 1,8,-1
1138 910 m 1,16,-1
 228 910 l 1,17,-1
 228 1138 l 1,18,-1
 1138 1138 l 1,19,-1
 1138 910 l 1,16,-1
EndSplineSet
Validated: 5
EndChar

StartChar: egrave
Encoding: 232 232 151
Width: 1365
GlyphClass: 2
Flags: W
LayerCount: 4
Fore
SplineSet
910 910 m 1,0,-1
 228 910 l 1,1,-1
 228 1138 l 1,2,-1
 910 1138 l 1,3,-1
 910 910 l 1,0,-1
228 455 m 1,4,-1
 228 228 l 1,5,-1
 0 228 l 1,6,-1
 0 910 l 1,7,-1
 228 910 l 1,8,-1
 228 683 l 1,9,-1
 910 683 l 1,10,-1
 910 910 l 1,11,-1
 1138 910 l 1,12,-1
 1138 455 l 1,13,-1
 228 455 l 1,4,-1
1138 0 m 1,14,-1
 228 0 l 1,15,-1
 228 228 l 1,16,-1
 1138 228 l 1,17,-1
 1138 0 l 1,14,-1
455 1593 m 1,18,-1
 228 1593 l 1,19,-1
 228 1820 l 1,20,-1
 455 1820 l 1,21,-1
 455 1593 l 1,18,-1
683 1365 m 1,22,-1
 455 1365 l 1,23,-1
 455 1593 l 1,24,-1
 683 1593 l 1,25,-1
 683 1365 l 1,22,-1
EndSplineSet
Validated: 5
EndChar

StartChar: eacute
Encoding: 233 233 152
Width: 1365
GlyphClass: 2
Flags: W
LayerCount: 4
Fore
SplineSet
910 910 m 1,0,-1
 228 910 l 1,1,-1
 228 1138 l 1,2,-1
 910 1138 l 1,3,-1
 910 910 l 1,0,-1
228 455 m 1,4,-1
 228 228 l 1,5,-1
 0 228 l 1,6,-1
 0 910 l 1,7,-1
 228 910 l 1,8,-1
 228 683 l 1,9,-1
 910 683 l 1,10,-1
 910 910 l 1,11,-1
 1138 910 l 1,12,-1
 1138 455 l 1,13,-1
 228 455 l 1,4,-1
1138 0 m 1,14,-1
 228 0 l 1,15,-1
 228 228 l 1,16,-1
 1138 228 l 1,17,-1
 1138 0 l 1,14,-1
910 1593 m 1,18,-1
 683 1593 l 1,19,-1
 683 1820 l 1,20,-1
 910 1820 l 1,21,-1
 910 1593 l 1,18,-1
683 1365 m 1,22,-1
 455 1365 l 1,23,-1
 455 1593 l 1,24,-1
 683 1593 l 1,25,-1
 683 1365 l 1,22,-1
EndSplineSet
Validated: 5
EndChar

StartChar: edieresis
Encoding: 235 235 153
Width: 1365
GlyphClass: 2
Flags: W
LayerCount: 4
Fore
SplineSet
910 910 m 1,0,-1
 228 910 l 1,1,-1
 228 1138 l 1,2,-1
 910 1138 l 1,3,-1
 910 910 l 1,0,-1
228 455 m 1,4,-1
 228 228 l 1,5,-1
 0 228 l 1,6,-1
 0 910 l 1,7,-1
 228 910 l 1,8,-1
 228 683 l 1,9,-1
 910 683 l 1,10,-1
 910 910 l 1,11,-1
 1138 910 l 1,12,-1
 1138 455 l 1,13,-1
 228 455 l 1,4,-1
1138 0 m 1,14,-1
 228 0 l 1,15,-1
 228 228 l 1,16,-1
 1138 228 l 1,17,-1
 1138 0 l 1,14,-1
455 1365 m 1,18,-1
 228 1365 l 1,19,-1
 228 1593 l 1,20,-1
 455 1593 l 1,21,-1
 455 1365 l 1,18,-1
910 1365 m 1,22,-1
 683 1365 l 1,23,-1
 683 1593 l 1,24,-1
 910 1593 l 1,25,-1
 910 1365 l 1,22,-1
EndSplineSet
Validated: 5
EndChar

StartChar: igrave
Encoding: 236 236 154
Width: 1365
GlyphClass: 2
Flags: W
LayerCount: 4
Fore
SplineSet
455 910 m 1,0,-1
 0 910 l 1,1,-1
 0 1138 l 1,2,-1
 1138 1138 l 1,3,-1
 1138 910 l 1,4,-1
 683 910 l 1,5,-1
 683 228 l 1,6,-1
 1138 228 l 1,7,-1
 1138 0 l 1,8,-1
 0 0 l 1,9,-1
 0 228 l 1,10,-1
 455 228 l 1,11,-1
 455 910 l 1,0,-1
455 1593 m 1,12,-1
 228 1593 l 1,13,-1
 228 1820 l 1,14,-1
 455 1820 l 1,15,-1
 455 1593 l 1,12,-1
683 1365 m 1,16,-1
 455 1365 l 1,17,-1
 455 1593 l 1,18,-1
 683 1593 l 1,19,-1
 683 1365 l 1,16,-1
EndSplineSet
Validated: 5
EndChar

StartChar: iacute
Encoding: 237 237 155
Width: 1365
GlyphClass: 2
Flags: W
LayerCount: 4
Fore
SplineSet
455 910 m 1,0,-1
 0 910 l 1,1,-1
 0 1138 l 1,2,-1
 1138 1138 l 1,3,-1
 1138 910 l 1,4,-1
 683 910 l 1,5,-1
 683 228 l 1,6,-1
 1138 228 l 1,7,-1
 1138 0 l 1,8,-1
 0 0 l 1,9,-1
 0 228 l 1,10,-1
 455 228 l 1,11,-1
 455 910 l 1,0,-1
910 1593 m 1,12,-1
 683 1593 l 1,13,-1
 683 1820 l 1,14,-1
 910 1820 l 1,15,-1
 910 1593 l 1,12,-1
683 1365 m 1,16,-1
 455 1365 l 1,17,-1
 455 1593 l 1,18,-1
 683 1593 l 1,19,-1
 683 1365 l 1,16,-1
EndSplineSet
Validated: 5
EndChar

StartChar: idieresis
Encoding: 239 239 156
Width: 1365
GlyphClass: 2
Flags: W
LayerCount: 4
Fore
SplineSet
455 910 m 1,0,-1
 0 910 l 1,1,-1
 0 1138 l 1,2,-1
 1138 1138 l 1,3,-1
 1138 910 l 1,4,-1
 683 910 l 1,5,-1
 683 228 l 1,6,-1
 1138 228 l 1,7,-1
 1138 0 l 1,8,-1
 0 0 l 1,9,-1
 0 228 l 1,10,-1
 455 228 l 1,11,-1
 455 910 l 1,0,-1
455 1365 m 1,12,-1
 228 1365 l 1,13,-1
 228 1593 l 1,14,-1
 455 1593 l 1,15,-1
 455 1365 l 1,12,-1
910 1365 m 1,16,-1
 683 1365 l 1,17,-1
 683 1593 l 1,18,-1
 910 1593 l 1,19,-1
 910 1365 l 1,16,-1
EndSplineSet
Validated: 1
EndChar

StartChar: eth
Encoding: 240 240 157
Width: 1365
GlyphClass: 2
Flags: W
LayerCount: 4
Fore
SplineSet
228 228 m 1,0,-1
 0 228 l 1,1,-1
 0 910 l 1,2,-1
 228 910 l 1,3,-1
 228 228 l 1,0,-1
1138 1593 m 1,4,-1
 910 1593 l 1,5,-1
 910 1820 l 1,6,-1
 1138 1820 l 1,7,-1
 1138 1593 l 1,4,-1
683 1593 m 1,8,-1
 455 1593 l 1,9,-1
 455 1820 l 1,10,-1
 683 1820 l 1,11,-1
 683 1593 l 1,8,-1
910 1365 m 1,12,-1
 683 1365 l 1,13,-1
 683 1593 l 1,14,-1
 910 1593 l 1,15,-1
 910 1365 l 1,12,-1
910 0 m 1,16,-1
 228 0 l 1,17,-1
 228 228 l 1,18,-1
 910 228 l 1,19,-1
 910 0 l 1,16,-1
910 910 m 1,20,-1
 228 910 l 1,21,-1
 228 1138 l 1,22,-1
 910 1138 l 1,23,-1
 910 1365 l 1,24,-1
 1138 1365 l 1,25,-1
 1138 228 l 1,26,-1
 910 228 l 1,27,-1
 910 910 l 1,20,-1
EndSplineSet
Validated: 5
EndChar

StartChar: ograve
Encoding: 242 242 158
Width: 1365
GlyphClass: 2
Flags: W
LayerCount: 4
Fore
SplineSet
228 228 m 1,0,-1
 0 228 l 1,1,-1
 0 910 l 1,2,-1
 228 910 l 1,3,-1
 228 228 l 1,0,-1
910 910 m 1,4,-1
 228 910 l 1,5,-1
 228 1138 l 1,6,-1
 910 1138 l 1,7,-1
 910 910 l 1,4,-1
1138 228 m 1,8,-1
 910 228 l 1,9,-1
 910 910 l 1,10,-1
 1138 910 l 1,11,-1
 1138 228 l 1,8,-1
910 0 m 1,12,-1
 228 0 l 1,13,-1
 228 228 l 1,14,-1
 910 228 l 1,15,-1
 910 0 l 1,12,-1
455 1593 m 1,16,-1
 228 1593 l 1,17,-1
 228 1820 l 1,18,-1
 455 1820 l 1,19,-1
 455 1593 l 1,16,-1
683 1365 m 1,20,-1
 455 1365 l 1,21,-1
 455 1593 l 1,22,-1
 683 1593 l 1,23,-1
 683 1365 l 1,20,-1
EndSplineSet
Validated: 5
EndChar

StartChar: oacute
Encoding: 243 243 159
Width: 1365
GlyphClass: 2
Flags: W
LayerCount: 4
Fore
SplineSet
228 228 m 1,0,-1
 0 228 l 1,1,-1
 0 910 l 1,2,-1
 228 910 l 1,3,-1
 228 228 l 1,0,-1
910 910 m 1,4,-1
 228 910 l 1,5,-1
 228 1138 l 1,6,-1
 910 1138 l 1,7,-1
 910 910 l 1,4,-1
1138 228 m 1,8,-1
 910 228 l 1,9,-1
 910 910 l 1,10,-1
 1138 910 l 1,11,-1
 1138 228 l 1,8,-1
910 0 m 1,12,-1
 228 0 l 1,13,-1
 228 228 l 1,14,-1
 910 228 l 1,15,-1
 910 0 l 1,12,-1
910 1593 m 1,16,-1
 683 1593 l 1,17,-1
 683 1820 l 1,18,-1
 910 1820 l 1,19,-1
 910 1593 l 1,16,-1
683 1365 m 1,20,-1
 455 1365 l 1,21,-1
 455 1593 l 1,22,-1
 683 1593 l 1,23,-1
 683 1365 l 1,20,-1
EndSplineSet
Validated: 5
EndChar

StartChar: odieresis
Encoding: 246 246 160
Width: 1365
GlyphClass: 2
Flags: W
LayerCount: 4
Fore
SplineSet
228 228 m 1,0,-1
 0 228 l 1,1,-1
 0 910 l 1,2,-1
 228 910 l 1,3,-1
 228 228 l 1,0,-1
910 910 m 1,4,-1
 228 910 l 1,5,-1
 228 1138 l 1,6,-1
 910 1138 l 1,7,-1
 910 910 l 1,4,-1
1138 228 m 1,8,-1
 910 228 l 1,9,-1
 910 910 l 1,10,-1
 1138 910 l 1,11,-1
 1138 228 l 1,8,-1
910 0 m 1,12,-1
 228 0 l 1,13,-1
 228 228 l 1,14,-1
 910 228 l 1,15,-1
 910 0 l 1,12,-1
455 1365 m 1,16,-1
 228 1365 l 1,17,-1
 228 1593 l 1,18,-1
 455 1593 l 1,19,-1
 455 1365 l 1,16,-1
910 1365 m 1,20,-1
 683 1365 l 1,21,-1
 683 1593 l 1,22,-1
 910 1593 l 1,23,-1
 910 1365 l 1,20,-1
EndSplineSet
Validated: 5
EndChar

StartChar: divide
Encoding: 247 247 161
Width: 1365
GlyphClass: 2
Flags: W
LayerCount: 4
Fore
SplineSet
1138 683 m 1,0,-1
 0 683 l 1,1,-1
 0 910 l 1,2,-1
 1138 910 l 1,3,-1
 1138 683 l 1,0,-1
683 1138 m 1,4,-1
 455 1138 l 1,5,-1
 455 1365 l 1,6,-1
 683 1365 l 1,7,-1
 683 1138 l 1,4,-1
683 228 m 1,8,-1
 455 228 l 1,9,-1
 455 455 l 1,10,-1
 683 455 l 1,11,-1
 683 228 l 1,8,-1
EndSplineSet
Validated: 1
EndChar

StartChar: oslash
Encoding: 248 248 162
Width: 1365
GlyphClass: 2
Flags: W
LayerCount: 4
Fore
SplineSet
683 455 m 1,0,-1
 455 455 l 1,1,-1
 455 683 l 1,2,-1
 683 683 l 1,3,-1
 683 455 l 1,0,-1
228 228 m 1,4,-1
 0 228 l 1,5,-1
 0 910 l 1,6,-1
 228 910 l 1,7,-1
 228 455 l 1,8,-1
 455 455 l 1,9,-1
 455 228 l 1,10,-1
 910 228 l 1,11,-1
 910 0 l 1,12,-1
 228 0 l 1,13,-1
 228 228 l 1,4,-1
683 910 m 1,14,-1
 228 910 l 1,15,-1
 228 1138 l 1,16,-1
 910 1138 l 1,17,-1
 910 910 l 1,18,-1
 1138 910 l 1,19,-1
 1138 228 l 1,20,-1
 910 228 l 1,21,-1
 910 683 l 1,22,-1
 683 683 l 1,23,-1
 683 910 l 1,14,-1
EndSplineSet
Validated: 5
EndChar

StartChar: ugrave
Encoding: 249 249 163
Width: 1365
GlyphClass: 2
Flags: W
LayerCount: 4
Fore
SplineSet
228 228 m 1,0,-1
 0 228 l 1,1,-1
 0 1138 l 1,2,-1
 228 1138 l 1,3,-1
 228 228 l 1,0,-1
1138 228 m 1,4,-1
 910 228 l 1,5,-1
 910 1138 l 1,6,-1
 1138 1138 l 1,7,-1
 1138 228 l 1,4,-1
910 0 m 1,8,-1
 228 0 l 1,9,-1
 228 228 l 1,10,-1
 910 228 l 1,11,-1
 910 0 l 1,8,-1
455 1593 m 1,12,-1
 228 1593 l 1,13,-1
 228 1820 l 1,14,-1
 455 1820 l 1,15,-1
 455 1593 l 1,12,-1
683 1365 m 1,16,-1
 455 1365 l 1,17,-1
 455 1593 l 1,18,-1
 683 1593 l 1,19,-1
 683 1365 l 1,16,-1
EndSplineSet
Validated: 5
EndChar

StartChar: uacute
Encoding: 250 250 164
Width: 1365
GlyphClass: 2
Flags: W
LayerCount: 4
Fore
SplineSet
228 228 m 1,0,-1
 0 228 l 1,1,-1
 0 1138 l 1,2,-1
 228 1138 l 1,3,-1
 228 228 l 1,0,-1
1138 228 m 1,4,-1
 910 228 l 1,5,-1
 910 1138 l 1,6,-1
 1138 1138 l 1,7,-1
 1138 228 l 1,4,-1
910 0 m 1,8,-1
 228 0 l 1,9,-1
 228 228 l 1,10,-1
 910 228 l 1,11,-1
 910 0 l 1,8,-1
910 1593 m 1,12,-1
 683 1593 l 1,13,-1
 683 1820 l 1,14,-1
 910 1820 l 1,15,-1
 910 1593 l 1,12,-1
683 1365 m 1,16,-1
 455 1365 l 1,17,-1
 455 1593 l 1,18,-1
 683 1593 l 1,19,-1
 683 1365 l 1,16,-1
EndSplineSet
Validated: 5
EndChar

StartChar: udieresis
Encoding: 252 252 165
Width: 1365
GlyphClass: 2
Flags: W
LayerCount: 4
Fore
SplineSet
228 228 m 1,0,-1
 0 228 l 1,1,-1
 0 1138 l 1,2,-1
 228 1138 l 1,3,-1
 228 228 l 1,0,-1
1138 228 m 1,4,-1
 910 228 l 1,5,-1
 910 1138 l 1,6,-1
 1138 1138 l 1,7,-1
 1138 228 l 1,4,-1
910 0 m 1,8,-1
 228 0 l 1,9,-1
 228 228 l 1,10,-1
 910 228 l 1,11,-1
 910 0 l 1,8,-1
455 1365 m 1,12,-1
 228 1365 l 1,13,-1
 228 1593 l 1,14,-1
 455 1593 l 1,15,-1
 455 1365 l 1,12,-1
910 1365 m 1,16,-1
 683 1365 l 1,17,-1
 683 1593 l 1,18,-1
 910 1593 l 1,19,-1
 910 1365 l 1,16,-1
EndSplineSet
Validated: 5
EndChar

StartChar: yacute
Encoding: 253 253 166
Width: 1365
GlyphClass: 2
Flags: W
LayerCount: 4
Fore
SplineSet
1138 683 m 1,0,-1
 910 683 l 1,1,-1
 910 1138 l 1,2,-1
 1138 1138 l 1,3,-1
 1138 683 l 1,0,-1
228 683 m 1,4,-1
 0 683 l 1,5,-1
 0 1138 l 1,6,-1
 228 1138 l 1,7,-1
 228 683 l 1,4,-1
683 -228 m 1,8,-1
 455 -228 l 1,9,-1
 455 228 l 1,10,-1
 683 228 l 1,11,-1
 683 -228 l 1,8,-1
455 -455 m 1,12,-1
 0 -455 l 1,13,-1
 0 -228 l 1,14,-1
 455 -228 l 1,15,-1
 455 -455 l 1,12,-1
455 228 m 1,16,-1
 228 228 l 1,17,-1
 228 683 l 1,18,-1
 455 683 l 1,19,-1
 455 228 l 1,16,-1
910 228 m 1,20,-1
 683 228 l 1,21,-1
 683 683 l 1,22,-1
 910 683 l 1,23,-1
 910 228 l 1,20,-1
910 1593 m 1,24,-1
 683 1593 l 1,25,-1
 683 1820 l 1,26,-1
 910 1820 l 1,27,-1
 910 1593 l 1,24,-1
683 1365 m 1,28,-1
 455 1365 l 1,29,-1
 455 1593 l 1,30,-1
 683 1593 l 1,31,-1
 683 1365 l 1,28,-1
EndSplineSet
Validated: 5
EndChar

StartChar: thorn
Encoding: 254 254 167
Width: 1365
GlyphClass: 2
Flags: W
LayerCount: 4
Fore
SplineSet
910 0 m 1,0,-1
 455 0 l 1,1,-1
 455 228 l 1,2,-1
 910 228 l 1,3,-1
 910 0 l 1,0,-1
228 910 m 1,4,-1
 455 910 l 1,5,-1
 455 683 l 1,6,-1
 228 683 l 1,7,-1
 228 455 l 1,8,-1
 455 455 l 1,9,-1
 455 228 l 1,10,-1
 228 228 l 1,11,-1
 228 -228 l 1,12,-1
 0 -228 l 1,13,-1
 0 1593 l 1,14,-1
 228 1593 l 1,15,-1
 228 910 l 1,4,-1
1138 228 m 1,16,-1
 910 228 l 1,17,-1
 910 910 l 1,18,-1
 1138 910 l 1,19,-1
 1138 228 l 1,16,-1
910 910 m 1,20,-1
 455 910 l 1,21,-1
 455 1138 l 1,22,-1
 910 1138 l 1,23,-1
 910 910 l 1,20,-1
EndSplineSet
Validated: 5
EndChar

StartChar: ydieresis
Encoding: 255 255 168
Width: 1365
GlyphClass: 2
Flags: W
LayerCount: 4
Fore
SplineSet
1138 683 m 1,0,-1
 910 683 l 1,1,-1
 910 1138 l 1,2,-1
 1138 1138 l 1,3,-1
 1138 683 l 1,0,-1
228 683 m 1,4,-1
 0 683 l 1,5,-1
 0 1138 l 1,6,-1
 228 1138 l 1,7,-1
 228 683 l 1,4,-1
683 -228 m 1,8,-1
 455 -228 l 1,9,-1
 455 228 l 1,10,-1
 683 228 l 1,11,-1
 683 -228 l 1,8,-1
455 -455 m 1,12,-1
 0 -455 l 1,13,-1
 0 -228 l 1,14,-1
 455 -228 l 1,15,-1
 455 -455 l 1,12,-1
455 228 m 1,16,-1
 228 228 l 1,17,-1
 228 683 l 1,18,-1
 455 683 l 1,19,-1
 455 228 l 1,16,-1
910 228 m 1,20,-1
 683 228 l 1,21,-1
 683 683 l 1,22,-1
 910 683 l 1,23,-1
 910 228 l 1,20,-1
455 1365 m 1,24,-1
 228 1365 l 1,25,-1
 228 1593 l 1,26,-1
 455 1593 l 1,27,-1
 455 1365 l 1,24,-1
910 1365 m 1,28,-1
 683 1365 l 1,29,-1
 683 1593 l 1,30,-1
 910 1593 l 1,31,-1
 910 1365 l 1,28,-1
EndSplineSet
Validated: 5
EndChar

StartChar: dotlessi
Encoding: 305 305 169
Width: 1365
GlyphClass: 2
Flags: W
LayerCount: 4
Fore
SplineSet
455 910 m 1,0,-1
 0 910 l 1,1,-1
 0 1138 l 1,2,-1
 1138 1138 l 1,3,-1
 1138 910 l 1,4,-1
 683 910 l 1,5,-1
 683 228 l 1,6,-1
 1138 228 l 1,7,-1
 1138 0 l 1,8,-1
 0 0 l 1,9,-1
 0 228 l 1,10,-1
 455 228 l 1,11,-1
 455 910 l 1,0,-1
EndSplineSet
Validated: 1
EndChar

StartChar: endash
Encoding: 8211 8211 170
Width: 1365
GlyphClass: 2
Flags: W
LayerCount: 4
Fore
SplineSet
1138 683 m 1,0,-1
 0 683 l 1,1,-1
 0 910 l 1,2,-1
 1138 910 l 1,3,-1
 1138 683 l 1,0,-1
EndSplineSet
Validated: 1
EndChar

StartChar: emdash
Encoding: 8212 8212 171
Width: 1365
GlyphClass: 2
Flags: W
LayerCount: 4
Fore
SplineSet
1138 683 m 1,0,-1
 0 683 l 1,1,-1
 0 910 l 1,2,-1
 1138 910 l 1,3,-1
 1138 683 l 1,0,-1
EndSplineSet
Validated: 1
EndChar

StartChar: quoteleft
Encoding: 8216 8216 172
Width: 1365
GlyphClass: 2
Flags: W
LayerCount: 4
Fore
SplineSet
455 1365 m 1,0,-1
 228 1365 l 1,1,-1
 228 1593 l 1,2,-1
 455 1593 l 1,3,-1
 455 1365 l 1,0,-1
683 1593 m 1,4,-1
 455 1593 l 1,5,-1
 455 1820 l 1,6,-1
 683 1820 l 1,7,-1
 683 1593 l 1,4,-1
EndSplineSet
Validated: 5
EndChar

StartChar: quoteright
Encoding: 8217 8217 173
Width: 1365
GlyphClass: 2
Flags: W
LayerCount: 4
Fore
SplineSet
683 1365 m 1,0,-1
 455 1365 l 1,1,-1
 455 1593 l 1,2,-1
 683 1593 l 1,3,-1
 683 1365 l 1,0,-1
455 1593 m 1,4,-1
 228 1593 l 1,5,-1
 228 1820 l 1,6,-1
 455 1820 l 1,7,-1
 455 1593 l 1,4,-1
EndSplineSet
Validated: 5
EndChar

StartChar: quotesinglbase
Encoding: 8218 8218 174
Width: 1365
GlyphClass: 2
Flags: W
LayerCount: 4
Fore
SplineSet
683 -228 m 1,0,-1
 455 -228 l 1,1,-1
 455 0 l 1,2,-1
 683 0 l 1,3,-1
 683 -228 l 1,0,-1
455 0 m 1,4,-1
 228 0 l 1,5,-1
 228 228 l 1,6,-1
 455 228 l 1,7,-1
 455 0 l 1,4,-1
EndSplineSet
Validated: 5
EndChar

StartChar: quotedblleft
Encoding: 8220 8220 175
Width: 1365
GlyphClass: 2
Flags: W
LayerCount: 4
Fore
SplineSet
228 1365 m 1,0,-1
 0 1365 l 1,1,-1
 0 1593 l 1,2,-1
 228 1593 l 1,3,-1
 228 1365 l 1,0,-1
455 1593 m 1,4,-1
 228 1593 l 1,5,-1
 228 1820 l 1,6,-1
 455 1820 l 1,7,-1
 455 1593 l 1,4,-1
910 1365 m 1,8,-1
 683 1365 l 1,9,-1
 683 1593 l 1,10,-1
 910 1593 l 1,11,-1
 910 1365 l 1,8,-1
1138 1593 m 1,12,-1
 910 1593 l 1,13,-1
 910 1820 l 1,14,-1
 1138 1820 l 1,15,-1
 1138 1593 l 1,12,-1
EndSplineSet
Validated: 5
EndChar

StartChar: quotedblright
Encoding: 8221 8221 176
Width: 1365
GlyphClass: 2
Flags: W
LayerCount: 4
Fore
SplineSet
455 1365 m 1,0,-1
 228 1365 l 1,1,-1
 228 1593 l 1,2,-1
 455 1593 l 1,3,-1
 455 1365 l 1,0,-1
228 1593 m 1,4,-1
 0 1593 l 1,5,-1
 0 1820 l 1,6,-1
 228 1820 l 1,7,-1
 228 1593 l 1,4,-1
1138 1365 m 1,8,-1
 910 1365 l 1,9,-1
 910 1593 l 1,10,-1
 1138 1593 l 1,11,-1
 1138 1365 l 1,8,-1
910 1593 m 1,12,-1
 683 1593 l 1,13,-1
 683 1820 l 1,14,-1
 910 1820 l 1,15,-1
 910 1593 l 1,12,-1
EndSplineSet
Validated: 5
EndChar

StartChar: quotedblbase
Encoding: 8222 8222 177
Width: 1365
GlyphClass: 2
Flags: W
LayerCount: 4
Fore
SplineSet
455 -228 m 1,0,-1
 228 -228 l 1,1,-1
 228 0 l 1,2,-1
 455 0 l 1,3,-1
 455 -228 l 1,0,-1
228 0 m 1,4,-1
 0 0 l 1,5,-1
 0 228 l 1,6,-1
 228 228 l 1,7,-1
 228 0 l 1,4,-1
1138 -228 m 1,8,-1
 910 -228 l 1,9,-1
 910 0 l 1,10,-1
 1138 0 l 1,11,-1
 1138 -228 l 1,8,-1
910 0 m 1,12,-1
 683 0 l 1,13,-1
 683 228 l 1,14,-1
 910 228 l 1,15,-1
 910 0 l 1,12,-1
EndSplineSet
Validated: 5
EndChar

StartChar: dagger
Encoding: 8224 8224 178
Width: 1365
GlyphClass: 2
Flags: W
LayerCount: 4
Fore
SplineSet
683 1365 m 1,0,-1
 1138 1365 l 1,1,-1
 1138 1138 l 1,2,-1
 683 1138 l 1,3,-1
 683 -228 l 1,4,-1
 455 -228 l 1,5,-1
 455 1138 l 1,6,-1
 0 1138 l 1,7,-1
 0 1365 l 1,8,-1
 455 1365 l 1,9,-1
 455 1820 l 1,10,-1
 683 1820 l 1,11,-1
 683 1365 l 1,0,-1
EndSplineSet
Validated: 1
EndChar

StartChar: daggerdbl
Encoding: 8225 8225 179
Width: 1365
GlyphClass: 2
Flags: W
LayerCount: 4
Fore
SplineSet
683 1365 m 1,0,-1
 1138 1365 l 1,1,-1
 1138 1138 l 1,2,-1
 683 1138 l 1,3,-1
 683 455 l 1,4,-1
 1138 455 l 1,5,-1
 1138 228 l 1,6,-1
 683 228 l 1,7,-1
 683 -228 l 1,8,-1
 455 -228 l 1,9,-1
 455 228 l 1,10,-1
 0 228 l 1,11,-1
 0 455 l 1,12,-1
 455 455 l 1,13,-1
 455 1138 l 1,14,-1
 0 1138 l 1,15,-1
 0 1365 l 1,16,-1
 455 1365 l 1,17,-1
 455 1820 l 1,18,-1
 683 1820 l 1,19,-1
 683 1365 l 1,0,-1
EndSplineSet
Validated: 1
EndChar

StartChar: bullet
Encoding: 8226 8226 180
Width: 1365
GlyphClass: 2
Flags: W
LayerCount: 4
Fore
SplineSet
910 455 m 1,0,-1
 228 455 l 1,1,-1
 228 1138 l 1,2,-1
 910 1138 l 1,3,-1
 910 455 l 1,0,-1
EndSplineSet
Validated: 1
EndChar

StartChar: ellipsis
Encoding: 8230 8230 181
Width: 1365
GlyphClass: 2
Flags: W
LayerCount: 4
Fore
SplineSet
228 0 m 1,0,-1
 0 0 l 1,1,-1
 0 228 l 1,2,-1
 228 228 l 1,3,-1
 228 0 l 1,0,-1
683 0 m 1,4,-1
 455 0 l 1,5,-1
 455 228 l 1,6,-1
 683 228 l 1,7,-1
 683 0 l 1,4,-1
1138 0 m 1,8,-1
 910 0 l 1,9,-1
 910 228 l 1,10,-1
 1138 228 l 1,11,-1
 1138 0 l 1,8,-1
EndSplineSet
Validated: 1
EndChar

StartChar: guilsinglleft
Encoding: 8249 8249 182
Width: 1365
GlyphClass: 2
Flags: W
LayerCount: 4
Fore
SplineSet
228 455 m 1,0,-1
 0 455 l 1,1,-1
 0 683 l 1,2,-1
 228 683 l 1,3,-1
 228 455 l 1,0,-1
683 228 m 1,4,-1
 228 228 l 1,5,-1
 228 455 l 1,6,-1
 683 455 l 1,7,-1
 683 228 l 1,4,-1
683 683 m 1,8,-1
 228 683 l 1,9,-1
 228 910 l 1,10,-1
 683 910 l 1,11,-1
 683 683 l 1,8,-1
1138 910 m 1,12,-1
 683 910 l 1,13,-1
 683 1138 l 1,14,-1
 1138 1138 l 1,15,-1
 1138 910 l 1,12,-1
1138 0 m 1,16,-1
 683 0 l 1,17,-1
 683 228 l 1,18,-1
 1138 228 l 1,19,-1
 1138 0 l 1,16,-1
EndSplineSet
Validated: 5
EndChar

StartChar: guilsinglright
Encoding: 8250 8250 183
Width: 1365
GlyphClass: 2
Flags: W
LayerCount: 4
Fore
SplineSet
910 455 m 1,0,-1
 910 683 l 1,1,-1
 1138 683 l 1,2,-1
 1138 455 l 1,3,-1
 910 455 l 1,0,-1
455 228 m 1,4,-1
 455 455 l 1,5,-1
 910 455 l 1,6,-1
 910 228 l 1,7,-1
 455 228 l 1,4,-1
455 683 m 1,8,-1
 455 910 l 1,9,-1
 910 910 l 1,10,-1
 910 683 l 1,11,-1
 455 683 l 1,8,-1
0 910 m 1,12,-1
 0 1138 l 1,13,-1
 455 1138 l 1,14,-1
 455 910 l 1,15,-1
 0 910 l 1,12,-1
0 0 m 1,16,-1
 0 228 l 1,17,-1
 455 228 l 1,18,-1
 455 0 l 1,19,-1
 0 0 l 1,16,-1
EndSplineSet
Validated: 5
EndChar

StartChar: fraction
Encoding: 8260 8260 184
AltUni2: 002215.ffffffff.0 002215.ffffffff.0
Width: 1365
GlyphClass: 2
Flags: W
LayerCount: 4
Fore
SplineSet
228 0 m 1,0,-1
 0 0 l 1,1,-1
 0 455 l 1,2,-1
 228 455 l 1,3,-1
 228 0 l 1,0,-1
1138 1138 m 1,4,-1
 910 1138 l 1,5,-1
 910 1593 l 1,6,-1
 1138 1593 l 1,7,-1
 1138 1138 l 1,4,-1
455 455 m 1,8,-1
 228 455 l 1,9,-1
 228 683 l 1,10,-1
 455 683 l 1,11,-1
 455 455 l 1,8,-1
683 683 m 1,12,-1
 455 683 l 1,13,-1
 455 910 l 1,14,-1
 683 910 l 1,15,-1
 683 683 l 1,12,-1
910 910 m 1,16,-1
 683 910 l 1,17,-1
 683 1138 l 1,18,-1
 910 1138 l 1,19,-1
 910 910 l 1,16,-1
EndSplineSet
Validated: 5
EndChar

StartChar: lira
Encoding: 8356 8356 185
Width: 1365
GlyphClass: 2
Flags: W
LayerCount: 4
Fore
SplineSet
910 1365 m 1,0,-1
 455 1365 l 1,1,-1
 455 1593 l 1,2,-1
 910 1593 l 1,3,-1
 910 1365 l 1,0,-1
455 228 m 1,4,-1
 1138 228 l 1,5,-1
 1138 0 l 1,6,-1
 0 0 l 1,7,-1
 0 228 l 1,8,-1
 228 228 l 1,9,-1
 228 455 l 1,10,-1
 0 455 l 1,11,-1
 0 683 l 1,12,-1
 228 683 l 1,13,-1
 228 910 l 1,14,-1
 0 910 l 1,15,-1
 0 1138 l 1,16,-1
 228 1138 l 1,17,-1
 228 1365 l 1,18,-1
 455 1365 l 1,19,-1
 455 1138 l 1,20,-1
 683 1138 l 1,21,-1
 683 910 l 1,22,-1
 455 910 l 1,23,-1
 455 683 l 1,24,-1
 683 683 l 1,25,-1
 683 455 l 1,26,-1
 455 455 l 1,27,-1
 455 228 l 1,4,-1
1138 1138 m 1,28,-1
 910 1138 l 1,29,-1
 910 1365 l 1,30,-1
 1138 1365 l 1,31,-1
 1138 1138 l 1,28,-1
EndSplineSet
Validated: 5
EndChar

StartChar: Euro
Encoding: 8364 8364 186
Width: 1365
GlyphClass: 2
Flags: W
LayerCount: 4
Fore
SplineSet
455 455 m 1,0,-1
 455 228 l 1,1,-1
 228 228 l 1,2,-1
 228 455 l 1,3,-1
 0 455 l 1,4,-1
 0 683 l 1,5,-1
 228 683 l 1,6,-1
 228 910 l 1,7,-1
 0 910 l 1,8,-1
 0 1138 l 1,9,-1
 228 1138 l 1,10,-1
 228 1365 l 1,11,-1
 455 1365 l 1,12,-1
 455 1138 l 1,13,-1
 910 1138 l 1,14,-1
 910 910 l 1,15,-1
 455 910 l 1,16,-1
 455 683 l 1,17,-1
 910 683 l 1,18,-1
 910 455 l 1,19,-1
 455 455 l 1,0,-1
1138 1365 m 1,20,-1
 455 1365 l 1,21,-1
 455 1593 l 1,22,-1
 1138 1593 l 1,23,-1
 1138 1365 l 1,20,-1
1138 0 m 1,24,-1
 455 0 l 1,25,-1
 455 228 l 1,26,-1
 1138 228 l 1,27,-1
 1138 0 l 1,24,-1
EndSplineSet
Validated: 5
EndChar

StartChar: minus
Encoding: 8722 8722 187
Width: 1365
GlyphClass: 2
Flags: W
LayerCount: 4
Fore
SplineSet
1138 683 m 1,0,-1
 0 683 l 1,1,-1
 0 910 l 1,2,-1
 1138 910 l 1,3,-1
 1138 683 l 1,0,-1
EndSplineSet
Validated: 1
EndChar

StartChar: infinity
Encoding: 8734 8734 188
Width: 1365
GlyphClass: 2
Flags: W
LayerCount: 4
Fore
SplineSet
683 683 m 1,0,-1
 455 683 l 1,1,-1
 455 910 l 1,2,-1
 683 910 l 1,3,-1
 683 683 l 1,0,-1
455 455 m 1,4,-1
 228 455 l 1,5,-1
 228 683 l 1,6,-1
 455 683 l 1,7,-1
 455 455 l 1,4,-1
228 683 m 1,8,-1
 0 683 l 1,9,-1
 0 910 l 1,10,-1
 228 910 l 1,11,-1
 228 683 l 1,8,-1
455 910 m 1,12,-1
 228 910 l 1,13,-1
 228 1138 l 1,14,-1
 455 1138 l 1,15,-1
 455 910 l 1,12,-1
910 910 m 1,16,-1
 683 910 l 1,17,-1
 683 1138 l 1,18,-1
 910 1138 l 1,19,-1
 910 910 l 1,16,-1
1138 683 m 1,20,-1
 910 683 l 1,21,-1
 910 910 l 1,22,-1
 1138 910 l 1,23,-1
 1138 683 l 1,20,-1
910 455 m 1,24,-1
 683 455 l 1,25,-1
 683 683 l 1,26,-1
 910 683 l 1,27,-1
 910 455 l 1,24,-1
EndSplineSet
Validated: 5
EndChar

StartChar: lessequal
Encoding: 8804 8804 189
Width: 1365
GlyphClass: 2
Flags: W
LayerCount: 4
Fore
SplineSet
228 910 m 1,0,-1
 0 910 l 1,1,-1
 0 1138 l 1,2,-1
 228 1138 l 1,3,-1
 228 910 l 1,0,-1
1138 0 m 1,4,-1
 0 0 l 1,5,-1
 0 228 l 1,6,-1
 1138 228 l 1,7,-1
 1138 0 l 1,4,-1
455 455 m 1,8,-1
 455 683 l 1,9,-1
 1138 683 l 1,10,-1
 1138 455 l 1,11,-1
 455 455 l 1,8,-1
455 683 m 1,12,-1
 228 683 l 1,13,-1
 228 910 l 1,14,-1
 455 910 l 1,15,-1
 455 683 l 1,12,-1
455 1365 m 1,16,-1
 455 1593 l 1,17,-1
 1138 1593 l 1,18,-1
 1138 1365 l 1,19,-1
 455 1365 l 1,16,-1
455 1138 m 1,20,-1
 228 1138 l 1,21,-1
 228 1365 l 1,22,-1
 455 1365 l 1,23,-1
 455 1138 l 1,20,-1
EndSplineSet
Validated: 5
EndChar

StartChar: greaterequal
Encoding: 8805 8805 190
Width: 1365
GlyphClass: 2
Flags: W
LayerCount: 4
Fore
SplineSet
910 910 m 1,0,-1
 910 1138 l 1,1,-1
 1138 1138 l 1,2,-1
 1138 910 l 1,3,-1
 910 910 l 1,0,-1
0 0 m 1,4,-1
 0 228 l 1,5,-1
 1138 228 l 1,6,-1
 1138 0 l 1,7,-1
 0 0 l 1,4,-1
683 683 m 1,8,-1
 683 455 l 1,9,-1
 0 455 l 1,10,-1
 0 683 l 1,11,-1
 683 683 l 1,8,-1
683 683 m 1,12,-1
 683 910 l 1,13,-1
 910 910 l 1,14,-1
 910 683 l 1,15,-1
 683 683 l 1,12,-1
683 1593 m 1,16,-1
 683 1365 l 1,17,-1
 0 1365 l 1,18,-1
 0 1593 l 1,19,-1
 683 1593 l 1,16,-1
683 1138 m 1,20,-1
 683 1365 l 1,21,-1
 910 1365 l 1,22,-1
 910 1138 l 1,23,-1
 683 1138 l 1,20,-1
EndSplineSet
Validated: 5
EndChar

StartChar: uniFB01
Encoding: 64257 64257 191
Width: 1365
GlyphClass: 2
Flags: W
LayerCount: 4
Fore
SplineSet
455 1138 m 1,0,-1
 683 1138 l 1,1,-1
 683 910 l 1,2,-1
 455 910 l 1,3,-1
 455 0 l 1,4,-1
 228 0 l 1,5,-1
 228 910 l 1,6,-1
 0 910 l 1,7,-1
 0 1138 l 1,8,-1
 228 1138 l 1,9,-1
 228 1593 l 1,10,-1
 683 1593 l 1,11,-1
 683 1365 l 1,12,-1
 455 1365 l 1,13,-1
 455 1138 l 1,0,-1
1138 0 m 1,14,-1
 910 0 l 1,15,-1
 910 1138 l 1,16,-1
 1138 1138 l 1,17,-1
 1138 0 l 1,14,-1
EndSplineSet
Validated: 1
EndChar

StartChar: uniFB02
Encoding: 64258 64258 192
Width: 1365
GlyphClass: 2
Flags: W
LayerCount: 4
Fore
SplineSet
455 1138 m 1,0,-1
 683 1138 l 1,1,-1
 683 910 l 1,2,-1
 455 910 l 1,3,-1
 455 0 l 1,4,-1
 228 0 l 1,5,-1
 228 910 l 1,6,-1
 0 910 l 1,7,-1
 0 1138 l 1,8,-1
 228 1138 l 1,9,-1
 228 1593 l 1,10,-1
 683 1593 l 1,11,-1
 683 1365 l 1,12,-1
 455 1365 l 1,13,-1
 455 1138 l 1,0,-1
1138 0 m 1,14,-1
 910 0 l 1,15,-1
 910 1593 l 1,16,-1
 1138 1593 l 1,17,-1
 1138 0 l 1,14,-1
EndSplineSet
Validated: 1
EndChar

StartChar: Amacron
Encoding: 256 256 193
Width: 1365
GlyphClass: 2
Flags: W
LayerCount: 4
Fore
SplineSet
228 683 m 1,0,-1
 228 0 l 1,1,-1
 0 0 l 1,2,-1
 0 1365 l 1,3,-1
 228 1365 l 1,4,-1
 228 910 l 1,5,-1
 910 910 l 1,6,-1
 910 1365 l 1,7,-1
 1138 1365 l 1,8,-1
 1138 0 l 1,9,-1
 910 0 l 1,10,-1
 910 683 l 1,11,-1
 228 683 l 1,0,-1
910 1365 m 1,12,-1
 228 1365 l 1,13,-1
 228 1593 l 1,14,-1
 910 1593 l 1,15,-1
 910 1365 l 1,12,-1
910 1820 m 1,16,-1
 228 1820 l 1,17,-1
 228 2048 l 1,18,-1
 910 2048 l 1,19,-1
 910 1820 l 1,16,-1
EndSplineSet
Validated: 5
EndChar

StartChar: amacron
Encoding: 257 257 194
Width: 1365
GlyphClass: 2
Flags: W
LayerCount: 4
Fore
SplineSet
228 228 m 1,0,-1
 0 228 l 1,1,-1
 0 910 l 1,2,-1
 228 910 l 1,3,-1
 228 228 l 1,0,-1
910 683 m 1,4,-1
 683 683 l 1,5,-1
 683 910 l 1,6,-1
 910 910 l 1,7,-1
 910 1138 l 1,8,-1
 1138 1138 l 1,9,-1
 1138 0 l 1,10,-1
 910 0 l 1,11,-1
 910 228 l 1,12,-1
 683 228 l 1,13,-1
 683 455 l 1,14,-1
 910 455 l 1,15,-1
 910 683 l 1,4,-1
683 0 m 1,16,-1
 228 0 l 1,17,-1
 228 228 l 1,18,-1
 683 228 l 1,19,-1
 683 0 l 1,16,-1
683 910 m 1,20,-1
 228 910 l 1,21,-1
 228 1138 l 1,22,-1
 683 1138 l 1,23,-1
 683 910 l 1,20,-1
910 1365 m 1,24,-1
 228 1365 l 1,25,-1
 228 1593 l 1,26,-1
 910 1593 l 1,27,-1
 910 1365 l 1,24,-1
EndSplineSet
Validated: 5
EndChar

StartChar: Ccaron
Encoding: 268 268 195
Width: 1365
GlyphClass: 2
Flags: W
LayerCount: 4
Fore
SplineSet
228 228 m 1,0,-1
 0 228 l 1,1,-1
 0 1365 l 1,2,-1
 228 1365 l 1,3,-1
 228 228 l 1,0,-1
910 1820 m 1,4,-1
 683 1820 l 1,5,-1
 683 2048 l 1,6,-1
 910 2048 l 1,7,-1
 910 1820 l 1,4,-1
683 1593 m 1,8,-1
 910 1593 l 1,9,-1
 910 1365 l 1,10,-1
 228 1365 l 1,11,-1
 228 1593 l 1,12,-1
 455 1593 l 1,13,-1
 455 1820 l 1,14,-1
 683 1820 l 1,15,-1
 683 1593 l 1,8,-1
455 1820 m 1,16,-1
 228 1820 l 1,17,-1
 228 2048 l 1,18,-1
 455 2048 l 1,19,-1
 455 1820 l 1,16,-1
910 0 m 1,20,-1
 228 0 l 1,21,-1
 228 228 l 1,22,-1
 910 228 l 1,23,-1
 910 0 l 1,20,-1
1138 1138 m 1,24,-1
 910 1138 l 1,25,-1
 910 1365 l 1,26,-1
 1138 1365 l 1,27,-1
 1138 1138 l 1,24,-1
1138 228 m 1,28,-1
 910 228 l 1,29,-1
 910 455 l 1,30,-1
 1138 455 l 1,31,-1
 1138 228 l 1,28,-1
EndSplineSet
Validated: 5
EndChar

StartChar: ccaron
Encoding: 269 269 196
Width: 1365
GlyphClass: 2
Flags: W
LayerCount: 4
Fore
SplineSet
228 228 m 1,0,-1
 0 228 l 1,1,-1
 0 910 l 1,2,-1
 228 910 l 1,3,-1
 228 228 l 1,0,-1
1138 910 m 1,4,-1
 228 910 l 1,5,-1
 228 1138 l 1,6,-1
 1138 1138 l 1,7,-1
 1138 910 l 1,4,-1
1138 0 m 1,8,-1
 228 0 l 1,9,-1
 228 228 l 1,10,-1
 1138 228 l 1,11,-1
 1138 0 l 1,8,-1
683 1365 m 1,12,-1
 455 1365 l 1,13,-1
 455 1593 l 1,14,-1
 683 1593 l 1,15,-1
 683 1365 l 1,12,-1
455 1593 m 1,16,-1
 228 1593 l 1,17,-1
 228 1820 l 1,18,-1
 455 1820 l 1,19,-1
 455 1593 l 1,16,-1
910 1593 m 1,20,-1
 683 1593 l 1,21,-1
 683 1820 l 1,22,-1
 910 1820 l 1,23,-1
 910 1593 l 1,20,-1
EndSplineSet
Validated: 5
EndChar

StartChar: Emacron
Encoding: 274 274 197
Width: 1365
GlyphClass: 2
Flags: W
LayerCount: 4
Fore
SplineSet
228 228 m 1,0,-1
 1138 228 l 1,1,-1
 1138 0 l 1,2,-1
 0 0 l 1,3,-1
 0 1593 l 1,4,-1
 1138 1593 l 1,5,-1
 1138 1365 l 1,6,-1
 228 1365 l 1,7,-1
 228 910 l 1,8,-1
 910 910 l 1,9,-1
 910 683 l 1,10,-1
 228 683 l 1,11,-1
 228 228 l 1,0,-1
910 1820 m 1,12,-1
 228 1820 l 1,13,-1
 228 2048 l 1,14,-1
 910 2048 l 1,15,-1
 910 1820 l 1,12,-1
EndSplineSet
Validated: 1
EndChar

StartChar: emacron
Encoding: 275 275 198
Width: 1365
GlyphClass: 2
Flags: W
LayerCount: 4
Fore
SplineSet
910 910 m 1,0,-1
 228 910 l 1,1,-1
 228 1138 l 1,2,-1
 910 1138 l 1,3,-1
 910 910 l 1,0,-1
228 455 m 1,4,-1
 228 228 l 1,5,-1
 0 228 l 1,6,-1
 0 910 l 1,7,-1
 228 910 l 1,8,-1
 228 683 l 1,9,-1
 910 683 l 1,10,-1
 910 910 l 1,11,-1
 1138 910 l 1,12,-1
 1138 455 l 1,13,-1
 228 455 l 1,4,-1
1138 0 m 1,14,-1
 228 0 l 1,15,-1
 228 228 l 1,16,-1
 1138 228 l 1,17,-1
 1138 0 l 1,14,-1
910 1365 m 1,18,-1
 228 1365 l 1,19,-1
 228 1593 l 1,20,-1
 910 1593 l 1,21,-1
 910 1365 l 1,18,-1
EndSplineSet
Validated: 5
EndChar

StartChar: uni0122
Encoding: 290 290 199
Width: 1365
GlyphClass: 2
Flags: W
LayerCount: 4
Fore
SplineSet
228 228 m 1,0,-1
 0 228 l 1,1,-1
 0 1365 l 1,2,-1
 228 1365 l 1,3,-1
 228 228 l 1,0,-1
455 -455 m 1,4,-1
 228 -455 l 1,5,-1
 228 -228 l 1,6,-1
 455 -228 l 1,7,-1
 455 -455 l 1,4,-1
455 0 m 1,8,-1
 228 0 l 1,9,-1
 228 228 l 1,10,-1
 910 228 l 1,11,-1
 910 0 l 1,12,-1
 683 0 l 1,13,-1
 683 -228 l 1,14,-1
 455 -228 l 1,15,-1
 455 0 l 1,8,-1
910 1365 m 1,16,-1
 228 1365 l 1,17,-1
 228 1593 l 1,18,-1
 910 1593 l 1,19,-1
 910 1365 l 1,16,-1
910 683 m 1,20,-1
 455 683 l 1,21,-1
 455 910 l 1,22,-1
 1138 910 l 1,23,-1
 1138 228 l 1,24,-1
 910 228 l 1,25,-1
 910 683 l 1,20,-1
EndSplineSet
Validated: 5
EndChar

StartChar: uni0123
Encoding: 291 291 200
Width: 1365
GlyphClass: 2
Flags: W
LayerCount: 4
Fore
SplineSet
228 228 m 1,0,-1
 0 228 l 1,1,-1
 0 910 l 1,2,-1
 228 910 l 1,3,-1
 228 228 l 1,0,-1
910 910 m 1,4,-1
 228 910 l 1,5,-1
 228 1138 l 1,6,-1
 910 1138 l 1,7,-1
 910 910 l 1,4,-1
910 -455 m 1,8,-1
 228 -455 l 1,9,-1
 228 -228 l 1,10,-1
 910 -228 l 1,11,-1
 910 -455 l 1,8,-1
683 1365 m 1,12,-1
 455 1365 l 1,13,-1
 455 1820 l 1,14,-1
 683 1820 l 1,15,-1
 683 1365 l 1,12,-1
910 228 m 1,16,-1
 910 910 l 1,17,-1
 1138 910 l 1,18,-1
 1138 -228 l 1,19,-1
 910 -228 l 1,20,-1
 910 0 l 1,21,-1
 228 0 l 1,22,-1
 228 228 l 1,23,-1
 910 228 l 1,16,-1
EndSplineSet
Validated: 5
EndChar

StartChar: Imacron
Encoding: 298 298 201
Width: 1365
GlyphClass: 2
Flags: W
LayerCount: 4
Fore
SplineSet
683 228 m 1,0,-1
 1138 228 l 1,1,-1
 1138 0 l 1,2,-1
 0 0 l 1,3,-1
 0 228 l 1,4,-1
 455 228 l 1,5,-1
 455 1365 l 1,6,-1
 0 1365 l 1,7,-1
 0 1593 l 1,8,-1
 1138 1593 l 1,9,-1
 1138 1365 l 1,10,-1
 683 1365 l 1,11,-1
 683 228 l 1,0,-1
910 1820 m 1,12,-1
 228 1820 l 1,13,-1
 228 2048 l 1,14,-1
 910 2048 l 1,15,-1
 910 1820 l 1,12,-1
EndSplineSet
Validated: 1
EndChar

StartChar: imacron
Encoding: 299 299 202
Width: 1365
GlyphClass: 2
Flags: W
LayerCount: 4
Fore
SplineSet
455 910 m 1,0,-1
 0 910 l 1,1,-1
 0 1138 l 1,2,-1
 1138 1138 l 1,3,-1
 1138 910 l 1,4,-1
 683 910 l 1,5,-1
 683 228 l 1,6,-1
 1138 228 l 1,7,-1
 1138 0 l 1,8,-1
 0 0 l 1,9,-1
 0 228 l 1,10,-1
 455 228 l 1,11,-1
 455 910 l 1,0,-1
910 1365 m 1,12,-1
 228 1365 l 1,13,-1
 228 1593 l 1,14,-1
 910 1593 l 1,15,-1
 910 1365 l 1,12,-1
EndSplineSet
Validated: 1
EndChar

StartChar: uni0136
Encoding: 310 310 203
Width: 1365
GlyphClass: 2
Flags: W
LayerCount: 4
Fore
SplineSet
228 683 m 1,0,-1
 228 0 l 1,1,-1
 0 0 l 1,2,-1
 0 1593 l 1,3,-1
 228 1593 l 1,4,-1
 228 910 l 1,5,-1
 455 910 l 1,6,-1
 455 683 l 1,7,-1
 228 683 l 1,0,-1
1138 1365 m 1,8,-1
 910 1365 l 1,9,-1
 910 1593 l 1,10,-1
 1138 1593 l 1,11,-1
 1138 1365 l 1,8,-1
910 1138 m 1,12,-1
 683 1138 l 1,13,-1
 683 1365 l 1,14,-1
 910 1365 l 1,15,-1
 910 1138 l 1,12,-1
683 910 m 1,16,-1
 455 910 l 1,17,-1
 455 1138 l 1,18,-1
 683 1138 l 1,19,-1
 683 910 l 1,16,-1
1138 0 m 1,20,-1
 910 0 l 1,21,-1
 910 228 l 1,22,-1
 1138 228 l 1,23,-1
 1138 0 l 1,20,-1
910 228 m 1,24,-1
 683 228 l 1,25,-1
 683 455 l 1,26,-1
 910 455 l 1,27,-1
 910 228 l 1,24,-1
683 455 m 1,28,-1
 455 455 l 1,29,-1
 455 683 l 1,30,-1
 683 683 l 1,31,-1
 683 455 l 1,28,-1
683 -228 m 1,32,-1
 455 -228 l 1,33,-1
 455 0 l 1,34,-1
 683 0 l 1,35,-1
 683 -228 l 1,32,-1
455 -455 m 1,36,-1
 228 -455 l 1,37,-1
 228 -228 l 1,38,-1
 455 -228 l 1,39,-1
 455 -455 l 1,36,-1
EndSplineSet
Validated: 5
EndChar

StartChar: uni0137
Encoding: 311 311 204
Width: 1365
GlyphClass: 2
Flags: W
LayerCount: 4
Fore
SplineSet
228 455 m 1,0,-1
 228 0 l 1,1,-1
 0 0 l 1,2,-1
 0 1593 l 1,3,-1
 228 1593 l 1,4,-1
 228 683 l 1,5,-1
 683 683 l 1,6,-1
 683 455 l 1,7,-1
 228 455 l 1,0,-1
455 -455 m 1,8,-1
 228 -455 l 1,9,-1
 228 -228 l 1,10,-1
 455 -228 l 1,11,-1
 455 -455 l 1,8,-1
683 -228 m 1,12,-1
 455 -228 l 1,13,-1
 455 0 l 1,14,-1
 683 0 l 1,15,-1
 683 -228 l 1,12,-1
1138 0 m 1,16,-1
 910 0 l 1,17,-1
 910 228 l 1,18,-1
 1138 228 l 1,19,-1
 1138 0 l 1,16,-1
910 228 m 1,20,-1
 683 228 l 1,21,-1
 683 455 l 1,22,-1
 910 455 l 1,23,-1
 910 228 l 1,20,-1
1138 910 m 1,24,-1
 910 910 l 1,25,-1
 910 1138 l 1,26,-1
 1138 1138 l 1,27,-1
 1138 910 l 1,24,-1
910 683 m 1,28,-1
 683 683 l 1,29,-1
 683 910 l 1,30,-1
 910 910 l 1,31,-1
 910 683 l 1,28,-1
EndSplineSet
Validated: 5
EndChar

StartChar: uni013B
Encoding: 315 315 205
Width: 1365
GlyphClass: 2
Flags: W
LayerCount: 4
Fore
SplineSet
455 0 m 1,0,-1
 0 0 l 1,1,-1
 0 1593 l 1,2,-1
 228 1593 l 1,3,-1
 228 228 l 1,4,-1
 1138 228 l 1,5,-1
 1138 0 l 1,6,-1
 683 0 l 1,7,-1
 683 -228 l 1,8,-1
 455 -228 l 1,9,-1
 455 0 l 1,0,-1
455 -455 m 1,10,-1
 228 -455 l 1,11,-1
 228 -228 l 1,12,-1
 455 -228 l 1,13,-1
 455 -455 l 1,10,-1
EndSplineSet
Validated: 5
EndChar

StartChar: uni013C
Encoding: 316 316 206
Width: 1365
GlyphClass: 2
Flags: W
LayerCount: 4
Fore
SplineSet
455 0 m 1,0,-1
 0 0 l 1,1,-1
 0 1138 l 1,2,-1
 228 1138 l 1,3,-1
 228 228 l 1,4,-1
 1138 228 l 1,5,-1
 1138 0 l 1,6,-1
 683 0 l 1,7,-1
 683 -228 l 1,8,-1
 455 -228 l 1,9,-1
 455 0 l 1,0,-1
455 -455 m 1,10,-1
 228 -455 l 1,11,-1
 228 -228 l 1,12,-1
 455 -228 l 1,13,-1
 455 -455 l 1,10,-1
EndSplineSet
Validated: 5
EndChar

StartChar: uni0145
Encoding: 325 325 207
Width: 1365
GlyphClass: 2
Flags: W
LayerCount: 4
Fore
SplineSet
228 1138 m 1,0,-1
 228 0 l 1,1,-1
 0 0 l 1,2,-1
 0 1593 l 1,3,-1
 455 1593 l 1,4,-1
 455 1138 l 1,5,-1
 228 1138 l 1,0,-1
683 455 m 1,6,-1
 455 455 l 1,7,-1
 455 1138 l 1,8,-1
 683 1138 l 1,9,-1
 683 455 l 1,6,-1
910 455 m 1,10,-1
 910 1593 l 1,11,-1
 1138 1593 l 1,12,-1
 1138 0 l 1,13,-1
 683 0 l 1,14,-1
 683 455 l 1,15,-1
 910 455 l 1,10,-1
683 -228 m 1,16,-1
 455 -228 l 1,17,-1
 455 0 l 1,18,-1
 683 0 l 1,19,-1
 683 -228 l 1,16,-1
455 -455 m 1,20,-1
 228 -455 l 1,21,-1
 228 -228 l 1,22,-1
 455 -228 l 1,23,-1
 455 -455 l 1,20,-1
EndSplineSet
Validated: 5
EndChar

StartChar: uni0146
Encoding: 326 326 208
Width: 1365
GlyphClass: 2
Flags: W
LayerCount: 4
Fore
SplineSet
228 683 m 1,0,-1
 228 0 l 1,1,-1
 0 0 l 1,2,-1
 0 1138 l 1,3,-1
 228 1138 l 1,4,-1
 228 910 l 1,5,-1
 455 910 l 1,6,-1
 455 683 l 1,7,-1
 228 683 l 1,0,-1
455 -455 m 1,8,-1
 228 -455 l 1,9,-1
 228 -228 l 1,10,-1
 455 -228 l 1,11,-1
 455 -455 l 1,8,-1
683 -228 m 1,12,-1
 455 -228 l 1,13,-1
 455 0 l 1,14,-1
 683 0 l 1,15,-1
 683 -228 l 1,12,-1
1138 0 m 1,16,-1
 910 0 l 1,17,-1
 910 910 l 1,18,-1
 1138 910 l 1,19,-1
 1138 0 l 1,16,-1
910 910 m 1,20,-1
 455 910 l 1,21,-1
 455 1138 l 1,22,-1
 910 1138 l 1,23,-1
 910 910 l 1,20,-1
EndSplineSet
Validated: 5
EndChar

StartChar: Scaron
Encoding: 352 352 209
Width: 1365
GlyphClass: 2
Flags: W
LayerCount: 4
Fore
SplineSet
228 228 m 1,0,-1
 0 228 l 1,1,-1
 0 455 l 1,2,-1
 228 455 l 1,3,-1
 228 228 l 1,0,-1
910 1820 m 1,4,-1
 683 1820 l 1,5,-1
 683 2048 l 1,6,-1
 910 2048 l 1,7,-1
 910 1820 l 1,4,-1
683 1593 m 1,8,-1
 910 1593 l 1,9,-1
 910 1365 l 1,10,-1
 228 1365 l 1,11,-1
 228 1593 l 1,12,-1
 455 1593 l 1,13,-1
 455 1820 l 1,14,-1
 683 1820 l 1,15,-1
 683 1593 l 1,8,-1
455 1820 m 1,16,-1
 228 1820 l 1,17,-1
 228 2048 l 1,18,-1
 455 2048 l 1,19,-1
 455 1820 l 1,16,-1
910 683 m 1,20,-1
 228 683 l 1,21,-1
 228 910 l 1,22,-1
 910 910 l 1,23,-1
 910 683 l 1,20,-1
228 910 m 1,24,-1
 0 910 l 1,25,-1
 0 1365 l 1,26,-1
 228 1365 l 1,27,-1
 228 910 l 1,24,-1
1138 1138 m 1,28,-1
 910 1138 l 1,29,-1
 910 1365 l 1,30,-1
 1138 1365 l 1,31,-1
 1138 1138 l 1,28,-1
1138 228 m 1,32,-1
 910 228 l 1,33,-1
 910 683 l 1,34,-1
 1138 683 l 1,35,-1
 1138 228 l 1,32,-1
910 0 m 1,36,-1
 228 0 l 1,37,-1
 228 228 l 1,38,-1
 910 228 l 1,39,-1
 910 0 l 1,36,-1
EndSplineSet
Validated: 5
EndChar

StartChar: scaron
Encoding: 353 353 210
Width: 1365
GlyphClass: 2
Flags: W
LayerCount: 4
Fore
SplineSet
910 0 m 1,0,-1
 0 0 l 1,1,-1
 0 228 l 1,2,-1
 910 228 l 1,3,-1
 910 0 l 1,0,-1
1138 228 m 1,4,-1
 910 228 l 1,5,-1
 910 455 l 1,6,-1
 1138 455 l 1,7,-1
 1138 228 l 1,4,-1
910 455 m 1,8,-1
 228 455 l 1,9,-1
 228 683 l 1,10,-1
 910 683 l 1,11,-1
 910 455 l 1,8,-1
228 683 m 1,12,-1
 0 683 l 1,13,-1
 0 910 l 1,14,-1
 228 910 l 1,15,-1
 228 683 l 1,12,-1
1138 910 m 1,16,-1
 228 910 l 1,17,-1
 228 1138 l 1,18,-1
 1138 1138 l 1,19,-1
 1138 910 l 1,16,-1
683 1365 m 1,20,-1
 455 1365 l 1,21,-1
 455 1593 l 1,22,-1
 683 1593 l 1,23,-1
 683 1365 l 1,20,-1
455 1593 m 1,24,-1
 228 1593 l 1,25,-1
 228 1820 l 1,26,-1
 455 1820 l 1,27,-1
 455 1593 l 1,24,-1
910 1593 m 1,28,-1
 683 1593 l 1,29,-1
 683 1820 l 1,30,-1
 910 1820 l 1,31,-1
 910 1593 l 1,28,-1
EndSplineSet
Validated: 5
EndChar

StartChar: Umacron
Encoding: 362 362 211
Width: 1365
GlyphClass: 2
Flags: W
LayerCount: 4
Fore
SplineSet
228 228 m 1,0,-1
 0 228 l 1,1,-1
 0 1593 l 1,2,-1
 228 1593 l 1,3,-1
 228 228 l 1,0,-1
910 0 m 1,4,-1
 228 0 l 1,5,-1
 228 228 l 1,6,-1
 910 228 l 1,7,-1
 910 0 l 1,4,-1
1138 228 m 1,8,-1
 910 228 l 1,9,-1
 910 1593 l 1,10,-1
 1138 1593 l 1,11,-1
 1138 228 l 1,8,-1
910 1820 m 1,12,-1
 228 1820 l 1,13,-1
 228 2048 l 1,14,-1
 910 2048 l 1,15,-1
 910 1820 l 1,12,-1
EndSplineSet
Validated: 5
EndChar

StartChar: umacron
Encoding: 363 363 212
Width: 1365
GlyphClass: 2
Flags: W
LayerCount: 4
Fore
SplineSet
228 228 m 1,0,-1
 0 228 l 1,1,-1
 0 1138 l 1,2,-1
 228 1138 l 1,3,-1
 228 228 l 1,0,-1
1138 228 m 1,4,-1
 910 228 l 1,5,-1
 910 1138 l 1,6,-1
 1138 1138 l 1,7,-1
 1138 228 l 1,4,-1
910 0 m 1,8,-1
 228 0 l 1,9,-1
 228 228 l 1,10,-1
 910 228 l 1,11,-1
 910 0 l 1,8,-1
910 1365 m 1,12,-1
 228 1365 l 1,13,-1
 228 1593 l 1,14,-1
 910 1593 l 1,15,-1
 910 1365 l 1,12,-1
EndSplineSet
Validated: 5
EndChar

StartChar: Zcaron
Encoding: 381 381 213
Width: 1365
GlyphClass: 2
Flags: W
LayerCount: 4
Fore
SplineSet
228 228 m 1,0,-1
 1138 228 l 1,1,-1
 1138 0 l 1,2,-1
 0 0 l 1,3,-1
 0 455 l 1,4,-1
 228 455 l 1,5,-1
 228 228 l 1,0,-1
910 1820 m 1,6,-1
 683 1820 l 1,7,-1
 683 2048 l 1,8,-1
 910 2048 l 1,9,-1
 910 1820 l 1,6,-1
683 1593 m 1,10,-1
 1138 1593 l 1,11,-1
 1138 1138 l 1,12,-1
 910 1138 l 1,13,-1
 910 1365 l 1,14,-1
 0 1365 l 1,15,-1
 0 1593 l 1,16,-1
 455 1593 l 1,17,-1
 455 1820 l 1,18,-1
 683 1820 l 1,19,-1
 683 1593 l 1,10,-1
455 1820 m 1,20,-1
 228 1820 l 1,21,-1
 228 2048 l 1,22,-1
 455 2048 l 1,23,-1
 455 1820 l 1,20,-1
455 455 m 1,24,-1
 228 455 l 1,25,-1
 228 683 l 1,26,-1
 455 683 l 1,27,-1
 455 455 l 1,24,-1
683 683 m 1,28,-1
 455 683 l 1,29,-1
 455 910 l 1,30,-1
 683 910 l 1,31,-1
 683 683 l 1,28,-1
910 910 m 1,32,-1
 683 910 l 1,33,-1
 683 1138 l 1,34,-1
 910 1138 l 1,35,-1
 910 910 l 1,32,-1
EndSplineSet
Validated: 5
EndChar

StartChar: zcaron
Encoding: 382 382 214
Width: 1365
GlyphClass: 2
Flags: W
LayerCount: 4
Fore
SplineSet
910 910 m 1,0,-1
 0 910 l 1,1,-1
 0 1138 l 1,2,-1
 1138 1138 l 1,3,-1
 1138 683 l 1,4,-1
 910 683 l 1,5,-1
 910 910 l 1,0,-1
910 455 m 1,6,-1
 228 455 l 1,7,-1
 228 683 l 1,8,-1
 910 683 l 1,9,-1
 910 455 l 1,6,-1
228 228 m 1,10,-1
 1138 228 l 1,11,-1
 1138 0 l 1,12,-1
 0 0 l 1,13,-1
 0 455 l 1,14,-1
 228 455 l 1,15,-1
 228 228 l 1,10,-1
683 1365 m 1,16,-1
 455 1365 l 1,17,-1
 455 1593 l 1,18,-1
 683 1593 l 1,19,-1
 683 1365 l 1,16,-1
455 1593 m 1,20,-1
 228 1593 l 1,21,-1
 228 1820 l 1,22,-1
 455 1820 l 1,23,-1
 455 1593 l 1,20,-1
910 1593 m 1,24,-1
 683 1593 l 1,25,-1
 683 1820 l 1,26,-1
 910 1820 l 1,27,-1
 910 1593 l 1,24,-1
EndSplineSet
Validated: 5
EndChar

StartChar: uni0410
Encoding: 1040 1040 215
Width: 1365
GlyphClass: 2
Flags: W
LayerCount: 4
Fore
SplineSet
228 683 m 1,0,-1
 228 0 l 1,1,-1
 0 0 l 1,2,-1
 0 1365 l 1,3,-1
 228 1365 l 1,4,-1
 228 910 l 1,5,-1
 910 910 l 1,6,-1
 910 1365 l 1,7,-1
 1138 1365 l 1,8,-1
 1138 0 l 1,9,-1
 910 0 l 1,10,-1
 910 683 l 1,11,-1
 228 683 l 1,0,-1
910 1365 m 1,12,-1
 228 1365 l 1,13,-1
 228 1593 l 1,14,-1
 910 1593 l 1,15,-1
 910 1365 l 1,12,-1
EndSplineSet
Validated: 5
EndChar

StartChar: uni0411
Encoding: 1041 1041 216
Width: 1365
GlyphClass: 2
Flags: W
LayerCount: 4
Fore
SplineSet
228 228 m 1,0,-1
 910 228 l 1,1,-1
 910 0 l 1,2,-1
 0 0 l 1,3,-1
 0 1593 l 1,4,-1
 910 1593 l 1,5,-1
 910 1365 l 1,6,-1
 228 1365 l 1,7,-1
 228 910 l 1,8,-1
 910 910 l 1,9,-1
 910 683 l 1,10,-1
 228 683 l 1,11,-1
 228 228 l 1,0,-1
1138 228 m 1,12,-1
 910 228 l 1,13,-1
 910 683 l 1,14,-1
 1138 683 l 1,15,-1
 1138 228 l 1,12,-1
EndSplineSet
Validated: 5
EndChar

StartChar: uni0412
Encoding: 1042 1042 217
Width: 1365
GlyphClass: 2
Flags: W
LayerCount: 4
Fore
SplineSet
228 228 m 1,0,-1
 910 228 l 1,1,-1
 910 0 l 1,2,-1
 0 0 l 1,3,-1
 0 1593 l 1,4,-1
 910 1593 l 1,5,-1
 910 1365 l 1,6,-1
 228 1365 l 1,7,-1
 228 910 l 1,8,-1
 910 910 l 1,9,-1
 910 683 l 1,10,-1
 228 683 l 1,11,-1
 228 228 l 1,0,-1
1138 228 m 1,12,-1
 910 228 l 1,13,-1
 910 683 l 1,14,-1
 1138 683 l 1,15,-1
 1138 228 l 1,12,-1
1138 910 m 1,16,-1
 910 910 l 1,17,-1
 910 1365 l 1,18,-1
 1138 1365 l 1,19,-1
 1138 910 l 1,16,-1
EndSplineSet
Validated: 5
EndChar

StartChar: uni0413
Encoding: 1043 1043 218
Width: 1365
GlyphClass: 2
Flags: W
LayerCount: 4
Fore
SplineSet
228 1365 m 1,0,-1
 228 0 l 1,1,-1
 0 0 l 1,2,-1
 0 1593 l 1,3,-1
 1138 1593 l 1,4,-1
 1138 1365 l 1,5,-1
 228 1365 l 1,0,-1
EndSplineSet
Validated: 1
EndChar

StartChar: uni0414
Encoding: 1044 1044 219
Width: 1365
GlyphClass: 2
Flags: W
LayerCount: 4
Fore
SplineSet
455 228 m 1,0,-1
 683 228 l 1,1,-1
 683 1365 l 1,2,-1
 455 1365 l 1,3,-1
 455 228 l 1,0,-1
1138 -228 m 1,4,-1
 910 -228 l 1,5,-1
 910 0 l 1,6,-1
 228 0 l 1,7,-1
 228 -228 l 1,8,-1
 0 -228 l 1,9,-1
 0 228 l 1,10,-1
 228 228 l 1,11,-1
 228 1593 l 1,12,-1
 910 1593 l 1,13,-1
 910 228 l 1,14,-1
 1138 228 l 1,15,-1
 1138 -228 l 1,4,-1
EndSplineSet
Validated: 1
EndChar

StartChar: uni0415
Encoding: 1045 1045 220
Width: 1365
GlyphClass: 2
Flags: W
LayerCount: 4
Fore
SplineSet
228 683 m 1,0,-1
 228 228 l 1,1,-1
 1138 228 l 1,2,-1
 1138 0 l 1,3,-1
 0 0 l 1,4,-1
 0 1593 l 1,5,-1
 1138 1593 l 1,6,-1
 1138 1365 l 1,7,-1
 228 1365 l 1,8,-1
 228 910 l 1,9,-1
 1138 910 l 1,10,-1
 1138 683 l 1,11,-1
 228 683 l 1,0,-1
EndSplineSet
Validated: 1
EndChar

StartChar: uni0416
Encoding: 1046 1046 221
Width: 1365
GlyphClass: 2
Flags: W
LayerCount: 4
Fore
SplineSet
683 683 m 1,0,-1
 683 0 l 1,1,-1
 455 0 l 1,2,-1
 455 683 l 1,3,-1
 228 683 l 1,4,-1
 228 910 l 1,5,-1
 455 910 l 1,6,-1
 455 1593 l 1,7,-1
 683 1593 l 1,8,-1
 683 910 l 1,9,-1
 910 910 l 1,10,-1
 910 683 l 1,11,-1
 683 683 l 1,0,-1
228 910 m 1,12,-1
 0 910 l 1,13,-1
 0 1593 l 1,14,-1
 228 1593 l 1,15,-1
 228 910 l 1,12,-1
1138 910 m 1,16,-1
 910 910 l 1,17,-1
 910 1593 l 1,18,-1
 1138 1593 l 1,19,-1
 1138 910 l 1,16,-1
1138 0 m 1,20,-1
 910 0 l 1,21,-1
 910 683 l 1,22,-1
 1138 683 l 1,23,-1
 1138 0 l 1,20,-1
228 0 m 1,24,-1
 0 0 l 1,25,-1
 0 683 l 1,26,-1
 228 683 l 1,27,-1
 228 0 l 1,24,-1
EndSplineSet
Validated: 5
EndChar

StartChar: uni0417
Encoding: 1047 1047 222
Width: 1365
GlyphClass: 2
Flags: W
LayerCount: 4
Fore
SplineSet
228 1138 m 1,0,-1
 0 1138 l 1,1,-1
 0 1365 l 1,2,-1
 228 1365 l 1,3,-1
 228 1138 l 1,0,-1
910 1365 m 1,4,-1
 228 1365 l 1,5,-1
 228 1593 l 1,6,-1
 910 1593 l 1,7,-1
 910 1365 l 1,4,-1
683 683 m 1,8,-1
 455 683 l 1,9,-1
 455 910 l 1,10,-1
 683 910 l 1,11,-1
 683 683 l 1,8,-1
910 0 m 1,12,-1
 228 0 l 1,13,-1
 228 228 l 1,14,-1
 910 228 l 1,15,-1
 910 0 l 1,12,-1
228 228 m 1,16,-1
 0 228 l 1,17,-1
 0 455 l 1,18,-1
 228 455 l 1,19,-1
 228 228 l 1,16,-1
910 455 m 1,20,-1
 683 455 l 1,21,-1
 683 683 l 1,22,-1
 910 683 l 1,23,-1
 910 455 l 1,20,-1
910 910 m 1,24,-1
 683 910 l 1,25,-1
 683 1138 l 1,26,-1
 910 1138 l 1,27,-1
 910 910 l 1,24,-1
1138 1138 m 1,28,-1
 910 1138 l 1,29,-1
 910 1365 l 1,30,-1
 1138 1365 l 1,31,-1
 1138 1138 l 1,28,-1
1138 228 m 1,32,-1
 910 228 l 1,33,-1
 910 455 l 1,34,-1
 1138 455 l 1,35,-1
 1138 228 l 1,32,-1
EndSplineSet
Validated: 5
EndChar

StartChar: uni0418
Encoding: 1048 1048 223
Width: 1365
GlyphClass: 2
Flags: W
LayerCount: 4
Fore
SplineSet
1138 1593 m 1,0,-1
 1138 0 l 1,1,-1
 910 0 l 1,2,-1
 910 1138 l 1,3,-1
 683 1138 l 1,4,-1
 683 1593 l 1,5,-1
 1138 1593 l 1,0,-1
683 455 m 1,6,-1
 455 455 l 1,7,-1
 455 1138 l 1,8,-1
 683 1138 l 1,9,-1
 683 455 l 1,6,-1
0 0 m 1,10,-1
 0 1593 l 1,11,-1
 228 1593 l 1,12,-1
 228 455 l 1,13,-1
 455 455 l 1,14,-1
 455 0 l 1,15,-1
 0 0 l 1,10,-1
EndSplineSet
Validated: 5
EndChar

StartChar: uni0419
Encoding: 1049 1049 224
Width: 1365
GlyphClass: 2
Flags: W
LayerCount: 4
Fore
SplineSet
1138 1593 m 1,0,-1
 1138 0 l 1,1,-1
 910 0 l 1,2,-1
 910 1138 l 1,3,-1
 683 1138 l 1,4,-1
 683 1593 l 1,5,-1
 1138 1593 l 1,0,-1
910 1820 m 1,6,-1
 683 1820 l 1,7,-1
 683 2048 l 1,8,-1
 910 2048 l 1,9,-1
 910 1820 l 1,6,-1
683 1593 m 1,10,-1
 455 1593 l 1,11,-1
 455 1820 l 1,12,-1
 683 1820 l 1,13,-1
 683 1593 l 1,10,-1
455 1820 m 1,14,-1
 228 1820 l 1,15,-1
 228 2048 l 1,16,-1
 455 2048 l 1,17,-1
 455 1820 l 1,14,-1
683 455 m 1,18,-1
 455 455 l 1,19,-1
 455 1138 l 1,20,-1
 683 1138 l 1,21,-1
 683 455 l 1,18,-1
0 0 m 1,22,-1
 0 1593 l 1,23,-1
 228 1593 l 1,24,-1
 228 455 l 1,25,-1
 455 455 l 1,26,-1
 455 0 l 1,27,-1
 0 0 l 1,22,-1
EndSplineSet
Validated: 5
EndChar

StartChar: uni041A
Encoding: 1050 1050 225
Width: 1365
GlyphClass: 2
Flags: W
LayerCount: 4
Fore
SplineSet
228 683 m 1,0,-1
 228 0 l 1,1,-1
 0 0 l 1,2,-1
 0 1593 l 1,3,-1
 228 1593 l 1,4,-1
 228 910 l 1,5,-1
 455 910 l 1,6,-1
 455 683 l 1,7,-1
 228 683 l 1,0,-1
1138 1365 m 1,8,-1
 910 1365 l 1,9,-1
 910 1593 l 1,10,-1
 1138 1593 l 1,11,-1
 1138 1365 l 1,8,-1
910 1138 m 1,12,-1
 683 1138 l 1,13,-1
 683 1365 l 1,14,-1
 910 1365 l 1,15,-1
 910 1138 l 1,12,-1
683 910 m 1,16,-1
 455 910 l 1,17,-1
 455 1138 l 1,18,-1
 683 1138 l 1,19,-1
 683 910 l 1,16,-1
1138 0 m 1,20,-1
 910 0 l 1,21,-1
 910 228 l 1,22,-1
 1138 228 l 1,23,-1
 1138 0 l 1,20,-1
910 228 m 1,24,-1
 683 228 l 1,25,-1
 683 455 l 1,26,-1
 910 455 l 1,27,-1
 910 228 l 1,24,-1
683 455 m 1,28,-1
 455 455 l 1,29,-1
 455 683 l 1,30,-1
 683 683 l 1,31,-1
 683 455 l 1,28,-1
EndSplineSet
Validated: 5
EndChar

StartChar: uni041B
Encoding: 1051 1051 226
Width: 1365
GlyphClass: 2
Flags: W
LayerCount: 4
Fore
SplineSet
228 0 m 1,0,-1
 0 0 l 1,1,-1
 0 228 l 1,2,-1
 228 228 l 1,3,-1
 228 0 l 1,0,-1
455 1365 m 1,4,-1
 455 228 l 1,5,-1
 228 228 l 1,6,-1
 228 1593 l 1,7,-1
 1138 1593 l 1,8,-1
 1138 0 l 1,9,-1
 910 0 l 1,10,-1
 910 1365 l 1,11,-1
 455 1365 l 1,4,-1
EndSplineSet
Validated: 5
EndChar

StartChar: uni041C
Encoding: 1052 1052 227
Width: 1365
GlyphClass: 2
Flags: W
LayerCount: 4
Fore
SplineSet
228 910 m 1,0,-1
 228 0 l 1,1,-1
 0 0 l 1,2,-1
 0 1593 l 1,3,-1
 228 1593 l 1,4,-1
 228 1365 l 1,5,-1
 455 1365 l 1,6,-1
 455 910 l 1,7,-1
 228 910 l 1,0,-1
683 455 m 1,8,-1
 455 455 l 1,9,-1
 455 910 l 1,10,-1
 683 910 l 1,11,-1
 683 455 l 1,8,-1
910 1365 m 1,12,-1
 910 1593 l 1,13,-1
 1138 1593 l 1,14,-1
 1138 0 l 1,15,-1
 910 0 l 1,16,-1
 910 910 l 1,17,-1
 683 910 l 1,18,-1
 683 1365 l 1,19,-1
 910 1365 l 1,12,-1
EndSplineSet
Validated: 5
EndChar

StartChar: uni041D
Encoding: 1053 1053 228
Width: 1365
GlyphClass: 2
Flags: W
LayerCount: 4
Fore
SplineSet
228 683 m 1,0,-1
 228 0 l 1,1,-1
 0 0 l 1,2,-1
 0 1593 l 1,3,-1
 228 1593 l 1,4,-1
 228 910 l 1,5,-1
 910 910 l 1,6,-1
 910 1593 l 1,7,-1
 1138 1593 l 1,8,-1
 1138 0 l 1,9,-1
 910 0 l 1,10,-1
 910 683 l 1,11,-1
 228 683 l 1,0,-1
EndSplineSet
Validated: 1
EndChar

StartChar: uni041E
Encoding: 1054 1054 229
Width: 1365
GlyphClass: 2
Flags: W
LayerCount: 4
Fore
SplineSet
228 228 m 1,0,-1
 0 228 l 1,1,-1
 0 1365 l 1,2,-1
 228 1365 l 1,3,-1
 228 228 l 1,0,-1
1138 228 m 1,4,-1
 910 228 l 1,5,-1
 910 1365 l 1,6,-1
 1138 1365 l 1,7,-1
 1138 228 l 1,4,-1
910 1365 m 1,8,-1
 228 1365 l 1,9,-1
 228 1593 l 1,10,-1
 910 1593 l 1,11,-1
 910 1365 l 1,8,-1
910 0 m 1,12,-1
 228 0 l 1,13,-1
 228 228 l 1,14,-1
 910 228 l 1,15,-1
 910 0 l 1,12,-1
EndSplineSet
Validated: 5
EndChar

StartChar: uni041F
Encoding: 1055 1055 230
Width: 1365
GlyphClass: 2
Flags: W
LayerCount: 4
Fore
SplineSet
228 1365 m 1,0,-1
 228 0 l 1,1,-1
 0 0 l 1,2,-1
 0 1593 l 1,3,-1
 1138 1593 l 1,4,-1
 1138 0 l 1,5,-1
 910 0 l 1,6,-1
 910 1365 l 1,7,-1
 228 1365 l 1,0,-1
EndSplineSet
Validated: 1
EndChar

StartChar: uni0420
Encoding: 1056 1056 231
Width: 1365
GlyphClass: 2
Flags: W
LayerCount: 4
Fore
SplineSet
1138 910 m 1,0,-1
 910 910 l 1,1,-1
 910 1365 l 1,2,-1
 1138 1365 l 1,3,-1
 1138 910 l 1,0,-1
910 1593 m 1,4,-1
 910 1365 l 1,5,-1
 228 1365 l 1,6,-1
 228 910 l 1,7,-1
 910 910 l 1,8,-1
 910 683 l 1,9,-1
 228 683 l 1,10,-1
 228 0 l 1,11,-1
 0 0 l 1,12,-1
 0 1593 l 1,13,-1
 910 1593 l 1,4,-1
EndSplineSet
Validated: 5
EndChar

StartChar: uni0421
Encoding: 1057 1057 232
Width: 1365
GlyphClass: 2
Flags: W
LayerCount: 4
Fore
SplineSet
228 228 m 1,0,-1
 0 228 l 1,1,-1
 0 1365 l 1,2,-1
 228 1365 l 1,3,-1
 228 228 l 1,0,-1
1138 228 m 1,4,-1
 910 228 l 1,5,-1
 910 455 l 1,6,-1
 1138 455 l 1,7,-1
 1138 228 l 1,4,-1
1138 1138 m 1,8,-1
 910 1138 l 1,9,-1
 910 1365 l 1,10,-1
 1138 1365 l 1,11,-1
 1138 1138 l 1,8,-1
910 0 m 1,12,-1
 228 0 l 1,13,-1
 228 228 l 1,14,-1
 910 228 l 1,15,-1
 910 0 l 1,12,-1
910 1365 m 1,16,-1
 228 1365 l 1,17,-1
 228 1593 l 1,18,-1
 910 1593 l 1,19,-1
 910 1365 l 1,16,-1
EndSplineSet
Validated: 5
EndChar

StartChar: uni0422
Encoding: 1058 1058 233
Width: 1365
GlyphClass: 2
Flags: W
LayerCount: 4
Fore
SplineSet
455 1365 m 1,0,-1
 0 1365 l 1,1,-1
 0 1593 l 1,2,-1
 1138 1593 l 1,3,-1
 1138 1365 l 1,4,-1
 683 1365 l 1,5,-1
 683 0 l 1,6,-1
 455 0 l 1,7,-1
 455 1365 l 1,0,-1
EndSplineSet
Validated: 1
EndChar

StartChar: uni0423
Encoding: 1059 1059 234
Width: 1365
GlyphClass: 2
Flags: W
LayerCount: 4
Fore
SplineSet
1138 910 m 1,0,-1
 910 910 l 1,1,-1
 910 1593 l 1,2,-1
 1138 1593 l 1,3,-1
 1138 910 l 1,0,-1
683 683 m 1,4,-1
 683 910 l 1,5,-1
 910 910 l 1,6,-1
 910 228 l 1,7,-1
 683 228 l 1,8,-1
 683 455 l 1,9,-1
 455 455 l 1,10,-1
 455 683 l 1,11,-1
 683 683 l 1,4,-1
455 683 m 1,12,-1
 228 683 l 1,13,-1
 228 910 l 1,14,-1
 455 910 l 1,15,-1
 455 683 l 1,12,-1
228 910 m 1,16,-1
 0 910 l 1,17,-1
 0 1593 l 1,18,-1
 228 1593 l 1,19,-1
 228 910 l 1,16,-1
683 0 m 1,20,-1
 0 0 l 1,21,-1
 0 228 l 1,22,-1
 683 228 l 1,23,-1
 683 0 l 1,20,-1
EndSplineSet
Validated: 5
EndChar

StartChar: uni0424
Encoding: 1060 1060 235
Width: 1365
GlyphClass: 2
Flags: W
LayerCount: 4
Fore
SplineSet
228 455 m 1,0,-1
 0 455 l 1,1,-1
 0 1138 l 1,2,-1
 228 1138 l 1,3,-1
 228 455 l 1,0,-1
683 1365 m 1,4,-1
 910 1365 l 1,5,-1
 910 1138 l 1,6,-1
 683 1138 l 1,7,-1
 683 455 l 1,8,-1
 910 455 l 1,9,-1
 910 228 l 1,10,-1
 683 228 l 1,11,-1
 683 0 l 1,12,-1
 455 0 l 1,13,-1
 455 228 l 1,14,-1
 228 228 l 1,15,-1
 228 455 l 1,16,-1
 455 455 l 1,17,-1
 455 1138 l 1,18,-1
 228 1138 l 1,19,-1
 228 1365 l 1,20,-1
 455 1365 l 1,21,-1
 455 1593 l 1,22,-1
 683 1593 l 1,23,-1
 683 1365 l 1,4,-1
1138 455 m 1,24,-1
 910 455 l 1,25,-1
 910 1138 l 1,26,-1
 1138 1138 l 1,27,-1
 1138 455 l 1,24,-1
EndSplineSet
Validated: 5
EndChar

StartChar: uni0425
Encoding: 1061 1061 236
Width: 1365
GlyphClass: 2
Flags: W
LayerCount: 4
Fore
SplineSet
228 1138 m 1,0,-1
 0 1138 l 1,1,-1
 0 1593 l 1,2,-1
 228 1593 l 1,3,-1
 228 1138 l 1,0,-1
1138 1138 m 1,4,-1
 910 1138 l 1,5,-1
 910 1593 l 1,6,-1
 1138 1593 l 1,7,-1
 1138 1138 l 1,4,-1
228 0 m 1,8,-1
 0 0 l 1,9,-1
 0 455 l 1,10,-1
 228 455 l 1,11,-1
 228 0 l 1,8,-1
1138 0 m 1,12,-1
 910 0 l 1,13,-1
 910 455 l 1,14,-1
 1138 455 l 1,15,-1
 1138 0 l 1,12,-1
683 683 m 1,16,-1
 455 683 l 1,17,-1
 455 910 l 1,18,-1
 683 910 l 1,19,-1
 683 683 l 1,16,-1
455 910 m 1,20,-1
 228 910 l 1,21,-1
 228 1138 l 1,22,-1
 455 1138 l 1,23,-1
 455 910 l 1,20,-1
910 910 m 1,24,-1
 683 910 l 1,25,-1
 683 1138 l 1,26,-1
 910 1138 l 1,27,-1
 910 910 l 1,24,-1
455 455 m 1,28,-1
 228 455 l 1,29,-1
 228 683 l 1,30,-1
 455 683 l 1,31,-1
 455 455 l 1,28,-1
910 455 m 1,32,-1
 683 455 l 1,33,-1
 683 683 l 1,34,-1
 910 683 l 1,35,-1
 910 455 l 1,32,-1
EndSplineSet
Validated: 5
EndChar

StartChar: uni0426
Encoding: 1062 1062 237
Width: 1365
GlyphClass: 2
Flags: W
LayerCount: 4
Fore
SplineSet
910 228 m 1,0,-1
 910 1593 l 1,1,-1
 1138 1593 l 1,2,-1
 1138 -228 l 1,3,-1
 910 -228 l 1,4,-1
 910 0 l 1,5,-1
 0 0 l 1,6,-1
 0 1593 l 1,7,-1
 228 1593 l 1,8,-1
 228 228 l 1,9,-1
 910 228 l 1,0,-1
EndSplineSet
Validated: 1
EndChar

StartChar: uni0427
Encoding: 1063 1063 238
Width: 1365
GlyphClass: 2
Flags: W
LayerCount: 4
Fore
SplineSet
228 910 m 1,0,-1
 0 910 l 1,1,-1
 0 1593 l 1,2,-1
 228 1593 l 1,3,-1
 228 910 l 1,0,-1
910 910 m 1,4,-1
 910 1593 l 1,5,-1
 1138 1593 l 1,6,-1
 1138 0 l 1,7,-1
 910 0 l 1,8,-1
 910 683 l 1,9,-1
 228 683 l 1,10,-1
 228 910 l 1,11,-1
 910 910 l 1,4,-1
EndSplineSet
Validated: 5
EndChar

StartChar: uni0428
Encoding: 1064 1064 239
Width: 1365
GlyphClass: 2
Flags: W
LayerCount: 4
Fore
SplineSet
0 1593 m 1,0,-1
 228 1593 l 1,1,-1
 228 228 l 1,2,-1
 455 228 l 1,3,-1
 455 1593 l 1,4,-1
 683 1593 l 1,5,-1
 683 228 l 1,6,-1
 910 228 l 1,7,-1
 910 1593 l 1,8,-1
 1138 1593 l 1,9,-1
 1138 0 l 1,10,-1
 0 0 l 1,11,-1
 0 1593 l 1,0,-1
EndSplineSet
Validated: 1
EndChar

StartChar: uni0429
Encoding: 1065 1065 240
Width: 1365
GlyphClass: 2
Flags: W
LayerCount: 4
Fore
SplineSet
0 1593 m 1,0,-1
 228 1593 l 1,1,-1
 228 228 l 1,2,-1
 455 228 l 1,3,-1
 455 1593 l 1,4,-1
 683 1593 l 1,5,-1
 683 228 l 1,6,-1
 910 228 l 1,7,-1
 910 1593 l 1,8,-1
 1138 1593 l 1,9,-1
 1138 -228 l 1,10,-1
 910 -228 l 1,11,-1
 910 0 l 1,12,-1
 0 0 l 1,13,-1
 0 1593 l 1,0,-1
EndSplineSet
Validated: 1
EndChar

StartChar: uni042A
Encoding: 1066 1066 241
Width: 1365
GlyphClass: 2
Flags: W
LayerCount: 4
Fore
SplineSet
1138 228 m 1,0,-1
 910 228 l 1,1,-1
 910 683 l 1,2,-1
 1138 683 l 1,3,-1
 1138 228 l 1,0,-1
455 910 m 1,4,-1
 910 910 l 1,5,-1
 910 683 l 1,6,-1
 455 683 l 1,7,-1
 455 228 l 1,8,-1
 910 228 l 1,9,-1
 910 0 l 1,10,-1
 228 0 l 1,11,-1
 228 1365 l 1,12,-1
 0 1365 l 1,13,-1
 0 1593 l 1,14,-1
 455 1593 l 1,15,-1
 455 910 l 1,4,-1
EndSplineSet
Validated: 5
EndChar

StartChar: uni042B
Encoding: 1067 1067 242
Width: 1365
GlyphClass: 2
Flags: W
LayerCount: 4
Fore
SplineSet
683 228 m 1,0,-1
 455 228 l 1,1,-1
 455 683 l 1,2,-1
 683 683 l 1,3,-1
 683 228 l 1,0,-1
1138 0 m 1,4,-1
 910 0 l 1,5,-1
 910 1593 l 1,6,-1
 1138 1593 l 1,7,-1
 1138 0 l 1,4,-1
228 910 m 1,8,-1
 455 910 l 1,9,-1
 455 683 l 1,10,-1
 228 683 l 1,11,-1
 228 228 l 1,12,-1
 455 228 l 1,13,-1
 455 0 l 1,14,-1
 0 0 l 1,15,-1
 0 1593 l 1,16,-1
 228 1593 l 1,17,-1
 228 910 l 1,8,-1
EndSplineSet
Validated: 5
EndChar

StartChar: uni042C
Encoding: 1068 1068 243
Width: 1365
GlyphClass: 2
Flags: W
LayerCount: 4
Fore
SplineSet
1138 228 m 1,0,-1
 910 228 l 1,1,-1
 910 683 l 1,2,-1
 1138 683 l 1,3,-1
 1138 228 l 1,0,-1
228 910 m 1,4,-1
 910 910 l 1,5,-1
 910 683 l 1,6,-1
 228 683 l 1,7,-1
 228 228 l 1,8,-1
 910 228 l 1,9,-1
 910 0 l 1,10,-1
 0 0 l 1,11,-1
 0 1593 l 1,12,-1
 228 1593 l 1,13,-1
 228 910 l 1,4,-1
EndSplineSet
Validated: 5
EndChar

StartChar: uni042D
Encoding: 1069 1069 244
Width: 1365
GlyphClass: 2
Flags: W
LayerCount: 4
Fore
SplineSet
683 228 m 1,0,-1
 683 455 l 1,1,-1
 910 455 l 1,2,-1
 910 228 l 1,3,-1
 683 228 l 1,0,-1
228 1138 m 1,4,-1
 0 1138 l 1,5,-1
 0 1365 l 1,6,-1
 228 1365 l 1,7,-1
 228 1138 l 1,4,-1
683 1365 m 1,8,-1
 228 1365 l 1,9,-1
 228 1593 l 1,10,-1
 683 1593 l 1,11,-1
 683 1365 l 1,8,-1
228 228 m 1,12,-1
 0 228 l 1,13,-1
 0 455 l 1,14,-1
 228 455 l 1,15,-1
 228 228 l 1,12,-1
683 0 m 1,16,-1
 228 0 l 1,17,-1
 228 228 l 1,18,-1
 683 228 l 1,19,-1
 683 0 l 1,16,-1
910 910 m 1,20,-1
 910 1138 l 1,21,-1
 1138 1138 l 1,22,-1
 1138 455 l 1,23,-1
 910 455 l 1,24,-1
 910 683 l 1,25,-1
 455 683 l 1,26,-1
 455 910 l 1,27,-1
 910 910 l 1,20,-1
683 1138 m 1,28,-1
 683 1365 l 1,29,-1
 910 1365 l 1,30,-1
 910 1138 l 1,31,-1
 683 1138 l 1,28,-1
EndSplineSet
Validated: 5
EndChar

StartChar: uni042E
Encoding: 1070 1070 245
Width: 1365
GlyphClass: 2
Flags: W
LayerCount: 4
Fore
SplineSet
1138 228 m 1,0,-1
 910 228 l 1,1,-1
 910 1365 l 1,2,-1
 1138 1365 l 1,3,-1
 1138 228 l 1,0,-1
455 910 m 1,4,-1
 455 1365 l 1,5,-1
 683 1365 l 1,6,-1
 683 228 l 1,7,-1
 455 228 l 1,8,-1
 455 683 l 1,9,-1
 228 683 l 1,10,-1
 228 0 l 1,11,-1
 0 0 l 1,12,-1
 0 1593 l 1,13,-1
 228 1593 l 1,14,-1
 228 910 l 1,15,-1
 455 910 l 1,4,-1
910 0 m 1,16,-1
 683 0 l 1,17,-1
 683 228 l 1,18,-1
 910 228 l 1,19,-1
 910 0 l 1,16,-1
910 1365 m 1,20,-1
 683 1365 l 1,21,-1
 683 1593 l 1,22,-1
 910 1593 l 1,23,-1
 910 1365 l 1,20,-1
EndSplineSet
Validated: 5
EndChar

StartChar: uni042F
Encoding: 1071 1071 246
Width: 1365
GlyphClass: 2
Flags: W
LayerCount: 4
Fore
SplineSet
0 910 m 1,0,-1
 0 1365 l 1,1,-1
 228 1365 l 1,2,-1
 228 910 l 1,3,-1
 0 910 l 1,0,-1
228 910 m 1,4,-1
 910 910 l 1,5,-1
 910 1365 l 1,6,-1
 228 1365 l 1,7,-1
 228 1593 l 1,8,-1
 1138 1593 l 1,9,-1
 1138 0 l 1,10,-1
 910 0 l 1,11,-1
 910 683 l 1,12,-1
 455 683 l 1,13,-1
 455 455 l 1,14,-1
 228 455 l 1,15,-1
 228 910 l 1,4,-1
228 0 m 1,16,-1
 0 0 l 1,17,-1
 0 455 l 1,18,-1
 228 455 l 1,19,-1
 228 0 l 1,16,-1
EndSplineSet
Validated: 5
EndChar

StartChar: uni0430
Encoding: 1072 1072 247
Width: 1365
GlyphClass: 2
Flags: W
LayerCount: 4
Fore
SplineSet
228 228 m 1,0,-1
 0 228 l 1,1,-1
 0 910 l 1,2,-1
 228 910 l 1,3,-1
 228 228 l 1,0,-1
910 683 m 1,4,-1
 683 683 l 1,5,-1
 683 910 l 1,6,-1
 910 910 l 1,7,-1
 910 1138 l 1,8,-1
 1138 1138 l 1,9,-1
 1138 0 l 1,10,-1
 910 0 l 1,11,-1
 910 228 l 1,12,-1
 683 228 l 1,13,-1
 683 455 l 1,14,-1
 910 455 l 1,15,-1
 910 683 l 1,4,-1
683 0 m 1,16,-1
 228 0 l 1,17,-1
 228 228 l 1,18,-1
 683 228 l 1,19,-1
 683 0 l 1,16,-1
683 910 m 1,20,-1
 228 910 l 1,21,-1
 228 1138 l 1,22,-1
 683 1138 l 1,23,-1
 683 910 l 1,20,-1
EndSplineSet
Validated: 5
Substitution2: "'salt' Stylistic Alternatives lookup 0 subtable" a.alt01
EndChar

StartChar: uni0431
Encoding: 1073 1073 248
Width: 1365
GlyphClass: 2
Flags: W
LayerCount: 4
Fore
SplineSet
1138 228 m 1,0,-1
 910 228 l 1,1,-1
 910 683 l 1,2,-1
 1138 683 l 1,3,-1
 1138 228 l 1,0,-1
910 1365 m 1,4,-1
 228 1365 l 1,5,-1
 228 1593 l 1,6,-1
 910 1593 l 1,7,-1
 910 1365 l 1,4,-1
228 683 m 1,8,-1
 455 683 l 1,9,-1
 455 455 l 1,10,-1
 228 455 l 1,11,-1
 228 228 l 1,12,-1
 0 228 l 1,13,-1
 0 1365 l 1,14,-1
 228 1365 l 1,15,-1
 228 683 l 1,8,-1
910 0 m 1,16,-1
 228 0 l 1,17,-1
 228 228 l 1,18,-1
 910 228 l 1,19,-1
 910 0 l 1,16,-1
910 683 m 1,20,-1
 455 683 l 1,21,-1
 455 910 l 1,22,-1
 910 910 l 1,23,-1
 910 683 l 1,20,-1
EndSplineSet
Validated: 5
EndChar

StartChar: uni0432
Encoding: 1074 1074 249
Width: 1365
GlyphClass: 2
Flags: W
LayerCount: 4
Fore
SplineSet
1138 228 m 1,0,-1
 910 228 l 1,1,-1
 910 455 l 1,2,-1
 1138 455 l 1,3,-1
 1138 228 l 1,0,-1
910 1138 m 1,4,-1
 910 910 l 1,5,-1
 228 910 l 1,6,-1
 228 683 l 1,7,-1
 910 683 l 1,8,-1
 910 455 l 1,9,-1
 228 455 l 1,10,-1
 228 228 l 1,11,-1
 910 228 l 1,12,-1
 910 0 l 1,13,-1
 0 0 l 1,14,-1
 0 1138 l 1,15,-1
 910 1138 l 1,4,-1
1138 683 m 1,16,-1
 910 683 l 1,17,-1
 910 910 l 1,18,-1
 1138 910 l 1,19,-1
 1138 683 l 1,16,-1
EndSplineSet
Validated: 5
EndChar

StartChar: uni0433
Encoding: 1075 1075 250
Width: 1365
GlyphClass: 2
Flags: W
LayerCount: 4
Fore
SplineSet
228 910 m 1,0,-1
 228 0 l 1,1,-1
 0 0 l 1,2,-1
 0 1138 l 1,3,-1
 1138 1138 l 1,4,-1
 1138 910 l 1,5,-1
 228 910 l 1,0,-1
EndSplineSet
Validated: 1
EndChar

StartChar: uni0434
Encoding: 1076 1076 251
Width: 1365
GlyphClass: 2
Flags: W
LayerCount: 4
Fore
SplineSet
455 228 m 1,0,-1
 683 228 l 1,1,-1
 683 910 l 1,2,-1
 455 910 l 1,3,-1
 455 228 l 1,0,-1
228 0 m 1,4,-1
 228 -228 l 1,5,-1
 0 -228 l 1,6,-1
 0 228 l 1,7,-1
 228 228 l 1,8,-1
 228 1138 l 1,9,-1
 910 1138 l 1,10,-1
 910 228 l 1,11,-1
 1138 228 l 1,12,-1
 1138 -228 l 1,13,-1
 910 -228 l 1,14,-1
 910 0 l 1,15,-1
 228 0 l 1,4,-1
EndSplineSet
Validated: 1
EndChar

StartChar: uni0435
Encoding: 1077 1077 252
Width: 1365
GlyphClass: 2
Flags: W
LayerCount: 4
Fore
SplineSet
910 910 m 1,0,-1
 228 910 l 1,1,-1
 228 1138 l 1,2,-1
 910 1138 l 1,3,-1
 910 910 l 1,0,-1
228 455 m 1,4,-1
 228 228 l 1,5,-1
 0 228 l 1,6,-1
 0 910 l 1,7,-1
 228 910 l 1,8,-1
 228 683 l 1,9,-1
 910 683 l 1,10,-1
 910 910 l 1,11,-1
 1138 910 l 1,12,-1
 1138 455 l 1,13,-1
 228 455 l 1,4,-1
1138 0 m 1,14,-1
 228 0 l 1,15,-1
 228 228 l 1,16,-1
 1138 228 l 1,17,-1
 1138 0 l 1,14,-1
EndSplineSet
Validated: 5
EndChar

StartChar: uni0436
Encoding: 1078 1078 253
Width: 1365
GlyphClass: 2
Flags: W
LayerCount: 4
Fore
SplineSet
683 683 m 1,0,-1
 910 683 l 1,1,-1
 910 455 l 1,2,-1
 683 455 l 1,3,-1
 683 0 l 1,4,-1
 455 0 l 1,5,-1
 455 455 l 1,6,-1
 228 455 l 1,7,-1
 228 683 l 1,8,-1
 455 683 l 1,9,-1
 455 1138 l 1,10,-1
 683 1138 l 1,11,-1
 683 683 l 1,0,-1
1138 0 m 1,12,-1
 910 0 l 1,13,-1
 910 455 l 1,14,-1
 1138 455 l 1,15,-1
 1138 0 l 1,12,-1
1138 683 m 1,16,-1
 910 683 l 1,17,-1
 910 1138 l 1,18,-1
 1138 1138 l 1,19,-1
 1138 683 l 1,16,-1
228 0 m 1,20,-1
 0 0 l 1,21,-1
 0 455 l 1,22,-1
 228 455 l 1,23,-1
 228 0 l 1,20,-1
228 683 m 1,24,-1
 0 683 l 1,25,-1
 0 1138 l 1,26,-1
 228 1138 l 1,27,-1
 228 683 l 1,24,-1
EndSplineSet
Validated: 5
EndChar

StartChar: uni0437
Encoding: 1079 1079 254
Width: 1365
GlyphClass: 2
Flags: W
LayerCount: 4
Fore
SplineSet
228 683 m 1,0,-1
 0 683 l 1,1,-1
 0 910 l 1,2,-1
 228 910 l 1,3,-1
 228 683 l 1,0,-1
910 910 m 1,4,-1
 228 910 l 1,5,-1
 228 1138 l 1,6,-1
 910 1138 l 1,7,-1
 910 910 l 1,4,-1
910 0 m 1,8,-1
 228 0 l 1,9,-1
 228 228 l 1,10,-1
 910 228 l 1,11,-1
 910 0 l 1,8,-1
228 228 m 1,12,-1
 0 228 l 1,13,-1
 0 455 l 1,14,-1
 228 455 l 1,15,-1
 228 228 l 1,12,-1
910 455 m 1,16,-1
 683 455 l 1,17,-1
 683 683 l 1,18,-1
 910 683 l 1,19,-1
 910 455 l 1,16,-1
1138 683 m 1,20,-1
 910 683 l 1,21,-1
 910 910 l 1,22,-1
 1138 910 l 1,23,-1
 1138 683 l 1,20,-1
1138 228 m 1,24,-1
 910 228 l 1,25,-1
 910 455 l 1,26,-1
 1138 455 l 1,27,-1
 1138 228 l 1,24,-1
EndSplineSet
Validated: 5
EndChar

StartChar: uni0438
Encoding: 1080 1080 255
Width: 1365
GlyphClass: 2
Flags: W
LayerCount: 4
Fore
SplineSet
228 228 m 1,0,-1
 228 0 l 1,1,-1
 0 0 l 1,2,-1
 0 1138 l 1,3,-1
 228 1138 l 1,4,-1
 228 455 l 1,5,-1
 455 455 l 1,6,-1
 455 228 l 1,7,-1
 228 228 l 1,0,-1
910 910 m 1,8,-1
 910 1138 l 1,9,-1
 1138 1138 l 1,10,-1
 1138 0 l 1,11,-1
 910 0 l 1,12,-1
 910 683 l 1,13,-1
 683 683 l 1,14,-1
 683 910 l 1,15,-1
 910 910 l 1,8,-1
683 455 m 1,16,-1
 455 455 l 1,17,-1
 455 683 l 1,18,-1
 683 683 l 1,19,-1
 683 455 l 1,16,-1
EndSplineSet
Validated: 5
EndChar

StartChar: uni0439
Encoding: 1081 1081 256
Width: 1365
GlyphClass: 2
Flags: W
LayerCount: 4
Fore
SplineSet
228 228 m 1,0,-1
 228 0 l 1,1,-1
 0 0 l 1,2,-1
 0 1138 l 1,3,-1
 228 1138 l 1,4,-1
 228 455 l 1,5,-1
 455 455 l 1,6,-1
 455 228 l 1,7,-1
 228 228 l 1,0,-1
910 1593 m 1,8,-1
 683 1593 l 1,9,-1
 683 1820 l 1,10,-1
 910 1820 l 1,11,-1
 910 1593 l 1,8,-1
683 1365 m 1,12,-1
 455 1365 l 1,13,-1
 455 1593 l 1,14,-1
 683 1593 l 1,15,-1
 683 1365 l 1,12,-1
455 1593 m 1,16,-1
 228 1593 l 1,17,-1
 228 1820 l 1,18,-1
 455 1820 l 1,19,-1
 455 1593 l 1,16,-1
910 910 m 1,20,-1
 910 1138 l 1,21,-1
 1138 1138 l 1,22,-1
 1138 0 l 1,23,-1
 910 0 l 1,24,-1
 910 683 l 1,25,-1
 683 683 l 1,26,-1
 683 910 l 1,27,-1
 910 910 l 1,20,-1
683 455 m 1,28,-1
 455 455 l 1,29,-1
 455 683 l 1,30,-1
 683 683 l 1,31,-1
 683 455 l 1,28,-1
EndSplineSet
Validated: 5
EndChar

StartChar: uni043A
Encoding: 1082 1082 257
Width: 1365
GlyphClass: 2
Flags: W
LayerCount: 4
Fore
SplineSet
228 455 m 1,0,-1
 228 0 l 1,1,-1
 0 0 l 1,2,-1
 0 1138 l 1,3,-1
 228 1138 l 1,4,-1
 228 683 l 1,5,-1
 683 683 l 1,6,-1
 683 455 l 1,7,-1
 228 455 l 1,0,-1
1138 0 m 1,8,-1
 910 0 l 1,9,-1
 910 228 l 1,10,-1
 1138 228 l 1,11,-1
 1138 0 l 1,8,-1
910 228 m 1,12,-1
 683 228 l 1,13,-1
 683 455 l 1,14,-1
 910 455 l 1,15,-1
 910 228 l 1,12,-1
1138 910 m 1,16,-1
 910 910 l 1,17,-1
 910 1138 l 1,18,-1
 1138 1138 l 1,19,-1
 1138 910 l 1,16,-1
910 683 m 1,20,-1
 683 683 l 1,21,-1
 683 910 l 1,22,-1
 910 910 l 1,23,-1
 910 683 l 1,20,-1
EndSplineSet
Validated: 5
EndChar

StartChar: uni043B
Encoding: 1083 1083 258
Width: 1365
GlyphClass: 2
Flags: W
LayerCount: 4
Fore
SplineSet
228 0 m 1,0,-1
 0 0 l 1,1,-1
 0 228 l 1,2,-1
 228 228 l 1,3,-1
 228 0 l 1,0,-1
455 910 m 1,4,-1
 455 228 l 1,5,-1
 228 228 l 1,6,-1
 228 1138 l 1,7,-1
 1138 1138 l 1,8,-1
 1138 0 l 1,9,-1
 910 0 l 1,10,-1
 910 910 l 1,11,-1
 455 910 l 1,4,-1
EndSplineSet
Validated: 5
EndChar

StartChar: uni043C
Encoding: 1084 1084 259
Width: 1365
GlyphClass: 2
Flags: W
LayerCount: 4
Fore
SplineSet
683 228 m 1,0,-1
 455 228 l 1,1,-1
 455 683 l 1,2,-1
 683 683 l 1,3,-1
 683 228 l 1,0,-1
910 910 m 1,4,-1
 910 1138 l 1,5,-1
 1138 1138 l 1,6,-1
 1138 0 l 1,7,-1
 910 0 l 1,8,-1
 910 683 l 1,9,-1
 683 683 l 1,10,-1
 683 910 l 1,11,-1
 910 910 l 1,4,-1
228 683 m 1,12,-1
 228 0 l 1,13,-1
 0 0 l 1,14,-1
 0 1138 l 1,15,-1
 228 1138 l 1,16,-1
 228 910 l 1,17,-1
 455 910 l 1,18,-1
 455 683 l 1,19,-1
 228 683 l 1,12,-1
EndSplineSet
Validated: 5
EndChar

StartChar: uni043D
Encoding: 1085 1085 260
Width: 1365
GlyphClass: 2
Flags: W
LayerCount: 4
Fore
SplineSet
228 455 m 1,0,-1
 228 0 l 1,1,-1
 0 0 l 1,2,-1
 0 1138 l 1,3,-1
 228 1138 l 1,4,-1
 228 683 l 1,5,-1
 910 683 l 1,6,-1
 910 1138 l 1,7,-1
 1138 1138 l 1,8,-1
 1138 0 l 1,9,-1
 910 0 l 1,10,-1
 910 455 l 1,11,-1
 228 455 l 1,0,-1
EndSplineSet
Validated: 1
EndChar

StartChar: uni043E
Encoding: 1086 1086 261
Width: 1365
GlyphClass: 2
Flags: W
LayerCount: 4
Fore
SplineSet
228 228 m 1,0,-1
 0 228 l 1,1,-1
 0 910 l 1,2,-1
 228 910 l 1,3,-1
 228 228 l 1,0,-1
910 910 m 1,4,-1
 228 910 l 1,5,-1
 228 1138 l 1,6,-1
 910 1138 l 1,7,-1
 910 910 l 1,4,-1
1138 228 m 1,8,-1
 910 228 l 1,9,-1
 910 910 l 1,10,-1
 1138 910 l 1,11,-1
 1138 228 l 1,8,-1
910 0 m 1,12,-1
 228 0 l 1,13,-1
 228 228 l 1,14,-1
 910 228 l 1,15,-1
 910 0 l 1,12,-1
EndSplineSet
Validated: 5
EndChar

StartChar: uni043F
Encoding: 1087 1087 262
Width: 1365
GlyphClass: 2
Flags: W
LayerCount: 4
Fore
SplineSet
228 910 m 1,0,-1
 228 0 l 1,1,-1
 0 0 l 1,2,-1
 0 1138 l 1,3,-1
 1138 1138 l 1,4,-1
 1138 0 l 1,5,-1
 910 0 l 1,6,-1
 910 910 l 1,7,-1
 228 910 l 1,0,-1
EndSplineSet
Validated: 1
EndChar

StartChar: uni0440
Encoding: 1088 1088 263
Width: 1365
GlyphClass: 2
Flags: W
LayerCount: 4
Fore
SplineSet
910 910 m 1,0,-1
 228 910 l 1,1,-1
 228 1138 l 1,2,-1
 910 1138 l 1,3,-1
 910 910 l 1,0,-1
228 0 m 1,4,-1
 228 -455 l 1,5,-1
 0 -455 l 1,6,-1
 0 910 l 1,7,-1
 228 910 l 1,8,-1
 228 228 l 1,9,-1
 910 228 l 1,10,-1
 910 0 l 1,11,-1
 228 0 l 1,4,-1
1138 228 m 1,12,-1
 910 228 l 1,13,-1
 910 910 l 1,14,-1
 1138 910 l 1,15,-1
 1138 228 l 1,12,-1
EndSplineSet
Validated: 5
EndChar

StartChar: uni0441
Encoding: 1089 1089 264
Width: 1365
GlyphClass: 2
Flags: W
LayerCount: 4
Fore
SplineSet
228 228 m 1,0,-1
 0 228 l 1,1,-1
 0 910 l 1,2,-1
 228 910 l 1,3,-1
 228 228 l 1,0,-1
1138 910 m 1,4,-1
 228 910 l 1,5,-1
 228 1138 l 1,6,-1
 1138 1138 l 1,7,-1
 1138 910 l 1,4,-1
1138 0 m 1,8,-1
 228 0 l 1,9,-1
 228 228 l 1,10,-1
 1138 228 l 1,11,-1
 1138 0 l 1,8,-1
EndSplineSet
Validated: 5
EndChar

StartChar: uni0442
Encoding: 1090 1090 265
Width: 1365
GlyphClass: 2
Flags: W
LayerCount: 4
Fore
SplineSet
683 910 m 1,0,-1
 683 0 l 1,1,-1
 455 0 l 1,2,-1
 455 910 l 1,3,-1
 0 910 l 1,4,-1
 0 1138 l 1,5,-1
 1138 1138 l 1,6,-1
 1138 910 l 1,7,-1
 683 910 l 1,0,-1
EndSplineSet
Validated: 1
EndChar

StartChar: uni0443
Encoding: 1091 1091 266
Width: 1365
GlyphClass: 2
Flags: W
LayerCount: 4
Fore
SplineSet
1138 455 m 1,0,-1
 910 455 l 1,1,-1
 910 1138 l 1,2,-1
 1138 1138 l 1,3,-1
 1138 455 l 1,0,-1
910 455 m 1,4,-1
 910 0 l 1,5,-1
 683 0 l 1,6,-1
 683 228 l 1,7,-1
 228 228 l 1,8,-1
 228 455 l 1,9,-1
 910 455 l 1,4,-1
228 455 m 1,10,-1
 0 455 l 1,11,-1
 0 1138 l 1,12,-1
 228 1138 l 1,13,-1
 228 455 l 1,10,-1
683 -228 m 1,14,-1
 0 -228 l 1,15,-1
 0 0 l 1,16,-1
 683 0 l 1,17,-1
 683 -228 l 1,14,-1
EndSplineSet
Validated: 5
EndChar

StartChar: uni0444
Encoding: 1092 1092 267
Width: 1365
GlyphClass: 2
Flags: W
LayerCount: 4
Fore
SplineSet
0 0 m 1,0,-1
 0 1138 l 1,1,-1
 455 1138 l 1,2,-1
 455 1365 l 1,3,-1
 683 1365 l 1,4,-1
 683 1138 l 1,5,-1
 1138 1138 l 1,6,-1
 1138 0 l 1,7,-1
 683 0 l 1,8,-1
 683 -228 l 1,9,-1
 455 -228 l 1,10,-1
 455 0 l 1,11,-1
 0 0 l 1,0,-1
910 228 m 1,12,-1
 910 910 l 1,13,-1
 683 910 l 1,14,-1
 683 228 l 1,15,-1
 910 228 l 1,12,-1
228 910 m 1,16,-1
 228 228 l 1,17,-1
 455 228 l 1,18,-1
 455 910 l 1,19,-1
 228 910 l 1,16,-1
EndSplineSet
Validated: 1
EndChar

StartChar: uni0445
Encoding: 1093 1093 268
Width: 1365
GlyphClass: 2
Flags: W
LayerCount: 4
Fore
SplineSet
228 0 m 1,0,-1
 0 0 l 1,1,-1
 0 228 l 1,2,-1
 228 228 l 1,3,-1
 228 0 l 1,0,-1
455 228 m 1,4,-1
 228 228 l 1,5,-1
 228 455 l 1,6,-1
 455 455 l 1,7,-1
 455 228 l 1,4,-1
683 455 m 1,8,-1
 455 455 l 1,9,-1
 455 683 l 1,10,-1
 683 683 l 1,11,-1
 683 455 l 1,8,-1
228 910 m 1,12,-1
 0 910 l 1,13,-1
 0 1138 l 1,14,-1
 228 1138 l 1,15,-1
 228 910 l 1,12,-1
455 683 m 1,16,-1
 228 683 l 1,17,-1
 228 910 l 1,18,-1
 455 910 l 1,19,-1
 455 683 l 1,16,-1
910 228 m 1,20,-1
 683 228 l 1,21,-1
 683 455 l 1,22,-1
 910 455 l 1,23,-1
 910 228 l 1,20,-1
1138 0 m 1,24,-1
 910 0 l 1,25,-1
 910 228 l 1,26,-1
 1138 228 l 1,27,-1
 1138 0 l 1,24,-1
910 683 m 1,28,-1
 683 683 l 1,29,-1
 683 910 l 1,30,-1
 910 910 l 1,31,-1
 910 683 l 1,28,-1
1138 910 m 1,32,-1
 910 910 l 1,33,-1
 910 1138 l 1,34,-1
 1138 1138 l 1,35,-1
 1138 910 l 1,32,-1
EndSplineSet
Validated: 5
EndChar

StartChar: uni0446
Encoding: 1094 1094 269
Width: 1365
GlyphClass: 2
Flags: W
LayerCount: 4
Fore
SplineSet
910 228 m 1,0,-1
 910 1138 l 1,1,-1
 1138 1138 l 1,2,-1
 1138 -228 l 1,3,-1
 910 -228 l 1,4,-1
 910 0 l 1,5,-1
 0 0 l 1,6,-1
 0 1138 l 1,7,-1
 228 1138 l 1,8,-1
 228 228 l 1,9,-1
 910 228 l 1,0,-1
EndSplineSet
Validated: 1
EndChar

StartChar: uni0447
Encoding: 1095 1095 270
Width: 1365
GlyphClass: 2
Flags: W
LayerCount: 4
Fore
SplineSet
0 1138 m 1,0,-1
 228 1138 l 1,1,-1
 228 683 l 1,2,-1
 0 683 l 1,3,-1
 0 1138 l 1,0,-1
910 683 m 1,4,-1
 910 1138 l 1,5,-1
 1138 1138 l 1,6,-1
 1138 0 l 1,7,-1
 910 0 l 1,8,-1
 910 455 l 1,9,-1
 228 455 l 1,10,-1
 228 683 l 1,11,-1
 910 683 l 1,4,-1
EndSplineSet
Validated: 5
EndChar

StartChar: uni0448
Encoding: 1096 1096 271
Width: 1365
GlyphClass: 2
Flags: W
LayerCount: 4
Fore
SplineSet
0 1138 m 1,0,-1
 228 1138 l 1,1,-1
 228 228 l 1,2,-1
 455 228 l 1,3,-1
 455 1138 l 1,4,-1
 683 1138 l 1,5,-1
 683 228 l 1,6,-1
 910 228 l 1,7,-1
 910 1138 l 1,8,-1
 1138 1138 l 1,9,-1
 1138 0 l 1,10,-1
 0 0 l 1,11,-1
 0 1138 l 1,0,-1
EndSplineSet
Validated: 1
EndChar

StartChar: uni0449
Encoding: 1097 1097 272
Width: 1365
GlyphClass: 2
Flags: W
LayerCount: 4
Fore
SplineSet
0 1138 m 1,0,-1
 228 1138 l 1,1,-1
 228 228 l 1,2,-1
 455 228 l 1,3,-1
 455 1138 l 1,4,-1
 683 1138 l 1,5,-1
 683 228 l 1,6,-1
 910 228 l 1,7,-1
 910 1138 l 1,8,-1
 1138 1138 l 1,9,-1
 1138 -228 l 1,10,-1
 910 -228 l 1,11,-1
 910 0 l 1,12,-1
 0 0 l 1,13,-1
 0 1138 l 1,0,-1
EndSplineSet
Validated: 1
EndChar

StartChar: uni044A
Encoding: 1098 1098 273
Width: 1365
GlyphClass: 2
Flags: W
LayerCount: 4
Fore
SplineSet
1138 228 m 1,0,-1
 910 228 l 1,1,-1
 910 455 l 1,2,-1
 1138 455 l 1,3,-1
 1138 228 l 1,0,-1
455 683 m 1,4,-1
 910 683 l 1,5,-1
 910 455 l 1,6,-1
 455 455 l 1,7,-1
 455 228 l 1,8,-1
 910 228 l 1,9,-1
 910 0 l 1,10,-1
 228 0 l 1,11,-1
 228 910 l 1,12,-1
 0 910 l 1,13,-1
 0 1138 l 1,14,-1
 455 1138 l 1,15,-1
 455 683 l 1,4,-1
EndSplineSet
Validated: 5
EndChar

StartChar: uni044B
Encoding: 1099 1099 274
Width: 1365
GlyphClass: 2
Flags: W
LayerCount: 4
Fore
SplineSet
683 228 m 1,0,-1
 455 228 l 1,1,-1
 455 455 l 1,2,-1
 683 455 l 1,3,-1
 683 228 l 1,0,-1
1138 0 m 1,4,-1
 910 0 l 1,5,-1
 910 1138 l 1,6,-1
 1138 1138 l 1,7,-1
 1138 0 l 1,4,-1
228 683 m 1,8,-1
 455 683 l 1,9,-1
 455 455 l 1,10,-1
 228 455 l 1,11,-1
 228 228 l 1,12,-1
 455 228 l 1,13,-1
 455 0 l 1,14,-1
 0 0 l 1,15,-1
 0 1138 l 1,16,-1
 228 1138 l 1,17,-1
 228 683 l 1,8,-1
EndSplineSet
Validated: 5
EndChar

StartChar: uni044C
Encoding: 1100 1100 275
Width: 1365
GlyphClass: 2
Flags: W
LayerCount: 4
Fore
SplineSet
1138 228 m 1,0,-1
 910 228 l 1,1,-1
 910 455 l 1,2,-1
 1138 455 l 1,3,-1
 1138 228 l 1,0,-1
228 683 m 1,4,-1
 910 683 l 1,5,-1
 910 455 l 1,6,-1
 228 455 l 1,7,-1
 228 228 l 1,8,-1
 910 228 l 1,9,-1
 910 0 l 1,10,-1
 0 0 l 1,11,-1
 0 1138 l 1,12,-1
 228 1138 l 1,13,-1
 228 683 l 1,4,-1
EndSplineSet
Validated: 5
EndChar

StartChar: uni044D
Encoding: 1101 1101 276
Width: 1365
GlyphClass: 2
Flags: W
LayerCount: 4
Fore
SplineSet
228 683 m 1,0,-1
 0 683 l 1,1,-1
 0 910 l 1,2,-1
 228 910 l 1,3,-1
 228 683 l 1,0,-1
1138 228 m 1,4,-1
 910 228 l 1,5,-1
 910 455 l 1,6,-1
 455 455 l 1,7,-1
 455 683 l 1,8,-1
 910 683 l 1,9,-1
 910 910 l 1,10,-1
 1138 910 l 1,11,-1
 1138 228 l 1,4,-1
910 0 m 1,12,-1
 228 0 l 1,13,-1
 228 228 l 1,14,-1
 910 228 l 1,15,-1
 910 0 l 1,12,-1
228 228 m 1,16,-1
 0 228 l 1,17,-1
 0 455 l 1,18,-1
 228 455 l 1,19,-1
 228 228 l 1,16,-1
910 910 m 1,20,-1
 228 910 l 1,21,-1
 228 1138 l 1,22,-1
 910 1138 l 1,23,-1
 910 910 l 1,20,-1
EndSplineSet
Validated: 5
EndChar

StartChar: uni044E
Encoding: 1102 1102 277
Width: 1365
GlyphClass: 2
Flags: W
LayerCount: 4
Fore
SplineSet
1138 228 m 1,0,-1
 910 228 l 1,1,-1
 910 910 l 1,2,-1
 1138 910 l 1,3,-1
 1138 228 l 1,0,-1
455 683 m 1,4,-1
 455 910 l 1,5,-1
 683 910 l 1,6,-1
 683 228 l 1,7,-1
 455 228 l 1,8,-1
 455 455 l 1,9,-1
 228 455 l 1,10,-1
 228 0 l 1,11,-1
 0 0 l 1,12,-1
 0 1138 l 1,13,-1
 228 1138 l 1,14,-1
 228 683 l 1,15,-1
 455 683 l 1,4,-1
910 0 m 1,16,-1
 683 0 l 1,17,-1
 683 228 l 1,18,-1
 910 228 l 1,19,-1
 910 0 l 1,16,-1
910 910 m 1,20,-1
 683 910 l 1,21,-1
 683 1138 l 1,22,-1
 910 1138 l 1,23,-1
 910 910 l 1,20,-1
EndSplineSet
Validated: 5
EndChar

StartChar: uni044F
Encoding: 1103 1103 278
Width: 1365
GlyphClass: 2
Flags: W
LayerCount: 4
Fore
SplineSet
228 683 m 1,0,-1
 0 683 l 1,1,-1
 0 910 l 1,2,-1
 228 910 l 1,3,-1
 228 683 l 1,0,-1
0 455 m 1,4,-1
 228 455 l 1,5,-1
 228 0 l 1,6,-1
 0 0 l 1,7,-1
 0 455 l 1,4,-1
910 910 m 1,8,-1
 228 910 l 1,9,-1
 228 1138 l 1,10,-1
 1138 1138 l 1,11,-1
 1138 0 l 1,12,-1
 910 0 l 1,13,-1
 910 455 l 1,14,-1
 228 455 l 1,15,-1
 228 683 l 1,16,-1
 910 683 l 1,17,-1
 910 910 l 1,8,-1
EndSplineSet
Validated: 5
EndChar

StartChar: uni0401
Encoding: 1025 1025 279
Width: 1365
GlyphClass: 2
Flags: W
LayerCount: 4
Fore
SplineSet
228 683 m 1,0,-1
 228 228 l 1,1,-1
 1138 228 l 1,2,-1
 1138 0 l 1,3,-1
 0 0 l 1,4,-1
 0 1593 l 1,5,-1
 1138 1593 l 1,6,-1
 1138 1365 l 1,7,-1
 228 1365 l 1,8,-1
 228 910 l 1,9,-1
 1138 910 l 1,10,-1
 1138 683 l 1,11,-1
 228 683 l 1,0,-1
455 1820 m 1,12,-1
 228 1820 l 1,13,-1
 228 2048 l 1,14,-1
 455 2048 l 1,15,-1
 455 1820 l 1,12,-1
910 1820 m 1,16,-1
 683 1820 l 1,17,-1
 683 2048 l 1,18,-1
 910 2048 l 1,19,-1
 910 1820 l 1,16,-1
EndSplineSet
Validated: 1
EndChar

StartChar: uni0451
Encoding: 1105 1105 280
Width: 1365
GlyphClass: 2
Flags: W
LayerCount: 4
Fore
SplineSet
910 910 m 1,0,-1
 228 910 l 1,1,-1
 228 1138 l 1,2,-1
 910 1138 l 1,3,-1
 910 910 l 1,0,-1
228 455 m 1,4,-1
 228 228 l 1,5,-1
 0 228 l 1,6,-1
 0 910 l 1,7,-1
 228 910 l 1,8,-1
 228 683 l 1,9,-1
 910 683 l 1,10,-1
 910 910 l 1,11,-1
 1138 910 l 1,12,-1
 1138 455 l 1,13,-1
 228 455 l 1,4,-1
1138 0 m 1,14,-1
 228 0 l 1,15,-1
 228 228 l 1,16,-1
 1138 228 l 1,17,-1
 1138 0 l 1,14,-1
455 1365 m 1,18,-1
 228 1365 l 1,19,-1
 228 1593 l 1,20,-1
 455 1593 l 1,21,-1
 455 1365 l 1,18,-1
910 1365 m 1,22,-1
 683 1365 l 1,23,-1
 683 1593 l 1,24,-1
 910 1593 l 1,25,-1
 910 1365 l 1,22,-1
EndSplineSet
Validated: 5
EndChar

StartChar: OE
Encoding: 338 338 281
Width: 1365
GlyphClass: 2
Flags: W
LayerCount: 4
Fore
SplineSet
228 228 m 1,0,-1
 0 228 l 1,1,-1
 0 1365 l 1,2,-1
 228 1365 l 1,3,-1
 228 228 l 1,0,-1
455 0 m 1,4,-1
 228 0 l 1,5,-1
 228 228 l 1,6,-1
 455 228 l 1,7,-1
 455 0 l 1,4,-1
683 683 m 1,8,-1
 683 228 l 1,9,-1
 455 228 l 1,10,-1
 455 1365 l 1,11,-1
 683 1365 l 1,12,-1
 683 910 l 1,13,-1
 1138 910 l 1,14,-1
 1138 683 l 1,15,-1
 683 683 l 1,8,-1
1138 1365 m 1,16,-1
 683 1365 l 1,17,-1
 683 1593 l 1,18,-1
 1138 1593 l 1,19,-1
 1138 1365 l 1,16,-1
1138 0 m 1,20,-1
 683 0 l 1,21,-1
 683 228 l 1,22,-1
 1138 228 l 1,23,-1
 1138 0 l 1,20,-1
455 1365 m 1,24,-1
 228 1365 l 1,25,-1
 228 1593 l 1,26,-1
 455 1593 l 1,27,-1
 455 1365 l 1,24,-1
EndSplineSet
Validated: 5
EndChar

StartChar: oe
Encoding: 339 339 282
Width: 1365
GlyphClass: 2
Flags: W
LayerCount: 4
Fore
SplineSet
228 228 m 1,0,-1
 0 228 l 1,1,-1
 0 910 l 1,2,-1
 228 910 l 1,3,-1
 228 228 l 1,0,-1
683 455 m 1,4,-1
 683 228 l 1,5,-1
 455 228 l 1,6,-1
 455 910 l 1,7,-1
 683 910 l 1,8,-1
 683 683 l 1,9,-1
 910 683 l 1,10,-1
 910 455 l 1,11,-1
 683 455 l 1,4,-1
455 0 m 1,12,-1
 228 0 l 1,13,-1
 228 228 l 1,14,-1
 455 228 l 1,15,-1
 455 0 l 1,12,-1
910 910 m 1,16,-1
 683 910 l 1,17,-1
 683 1138 l 1,18,-1
 910 1138 l 1,19,-1
 910 910 l 1,16,-1
1138 683 m 1,20,-1
 910 683 l 1,21,-1
 910 910 l 1,22,-1
 1138 910 l 1,23,-1
 1138 683 l 1,20,-1
1138 0 m 1,24,-1
 683 0 l 1,25,-1
 683 228 l 1,26,-1
 1138 228 l 1,27,-1
 1138 0 l 1,24,-1
455 910 m 1,28,-1
 228 910 l 1,29,-1
 228 1138 l 1,30,-1
 455 1138 l 1,31,-1
 455 910 l 1,28,-1
EndSplineSet
Validated: 5
EndChar

StartChar: uni0490
Encoding: 1168 1168 283
Width: 1365
GlyphClass: 2
Flags: W
LayerCount: 4
Fore
SplineSet
228 1365 m 1,0,-1
 228 0 l 1,1,-1
 0 0 l 1,2,-1
 0 1593 l 1,3,-1
 910 1593 l 1,4,-1
 910 1820 l 1,5,-1
 1138 1820 l 1,6,-1
 1138 1365 l 1,7,-1
 228 1365 l 1,0,-1
EndSplineSet
Validated: 1
EndChar

StartChar: uni0491
Encoding: 1169 1169 284
Width: 1365
GlyphClass: 2
Flags: W
LayerCount: 4
Fore
SplineSet
228 910 m 1,0,-1
 228 0 l 1,1,-1
 0 0 l 1,2,-1
 0 1138 l 1,3,-1
 910 1138 l 1,4,-1
 910 1365 l 1,5,-1
 1138 1365 l 1,6,-1
 1138 910 l 1,7,-1
 228 910 l 1,0,-1
EndSplineSet
Validated: 1
EndChar

StartChar: uni0407
Encoding: 1031 1031 285
Width: 1365
GlyphClass: 2
Flags: W
LayerCount: 4
Fore
SplineSet
683 228 m 1,0,-1
 1138 228 l 1,1,-1
 1138 0 l 1,2,-1
 0 0 l 1,3,-1
 0 228 l 1,4,-1
 455 228 l 1,5,-1
 455 1365 l 1,6,-1
 0 1365 l 1,7,-1
 0 1593 l 1,8,-1
 1138 1593 l 1,9,-1
 1138 1365 l 1,10,-1
 683 1365 l 1,11,-1
 683 228 l 1,0,-1
455 1820 m 1,12,-1
 228 1820 l 1,13,-1
 228 2048 l 1,14,-1
 455 2048 l 1,15,-1
 455 1820 l 1,12,-1
910 1820 m 1,16,-1
 683 1820 l 1,17,-1
 683 2048 l 1,18,-1
 910 2048 l 1,19,-1
 910 1820 l 1,16,-1
EndSplineSet
Validated: 1
EndChar

StartChar: uni0457
Encoding: 1111 1111 286
Width: 1365
GlyphClass: 2
Flags: W
LayerCount: 4
Fore
SplineSet
455 910 m 1,0,-1
 0 910 l 1,1,-1
 0 1138 l 1,2,-1
 1138 1138 l 1,3,-1
 1138 910 l 1,4,-1
 683 910 l 1,5,-1
 683 228 l 1,6,-1
 1138 228 l 1,7,-1
 1138 0 l 1,8,-1
 0 0 l 1,9,-1
 0 228 l 1,10,-1
 455 228 l 1,11,-1
 455 910 l 1,0,-1
455 1365 m 1,12,-1
 228 1365 l 1,13,-1
 228 1593 l 1,14,-1
 455 1593 l 1,15,-1
 455 1365 l 1,12,-1
910 1365 m 1,16,-1
 683 1365 l 1,17,-1
 683 1593 l 1,18,-1
 910 1593 l 1,19,-1
 910 1365 l 1,16,-1
EndSplineSet
Validated: 1
EndChar

StartChar: uni02BC
Encoding: 700 700 287
Width: 1365
GlyphClass: 2
Flags: W
LayerCount: 4
Fore
SplineSet
683 1365 m 1,0,-1
 455 1365 l 1,1,-1
 455 1593 l 1,2,-1
 683 1593 l 1,3,-1
 683 1365 l 1,0,-1
455 1593 m 1,4,-1
 228 1593 l 1,5,-1
 228 1820 l 1,6,-1
 455 1820 l 1,7,-1
 455 1593 l 1,4,-1
EndSplineSet
Validated: 5
EndChar

StartChar: uni0404
Encoding: 1028 1028 288
Width: 1365
GlyphClass: 2
Flags: W
LayerCount: 4
Fore
SplineSet
455 1365 m 1,0,-1
 455 1138 l 1,1,-1
 228 1138 l 1,2,-1
 228 1365 l 1,3,-1
 455 1365 l 1,0,-1
910 455 m 1,4,-1
 1138 455 l 1,5,-1
 1138 228 l 1,6,-1
 910 228 l 1,7,-1
 910 455 l 1,4,-1
455 228 m 1,8,-1
 910 228 l 1,9,-1
 910 0 l 1,10,-1
 455 0 l 1,11,-1
 455 228 l 1,8,-1
910 1365 m 1,12,-1
 1138 1365 l 1,13,-1
 1138 1138 l 1,14,-1
 910 1138 l 1,15,-1
 910 1365 l 1,12,-1
455 1593 m 1,16,-1
 910 1593 l 1,17,-1
 910 1365 l 1,18,-1
 455 1365 l 1,19,-1
 455 1593 l 1,16,-1
228 683 m 1,20,-1
 228 455 l 1,21,-1
 0 455 l 1,22,-1
 0 1138 l 1,23,-1
 228 1138 l 1,24,-1
 228 910 l 1,25,-1
 683 910 l 1,26,-1
 683 683 l 1,27,-1
 228 683 l 1,20,-1
455 455 m 1,28,-1
 455 228 l 1,29,-1
 228 228 l 1,30,-1
 228 455 l 1,31,-1
 455 455 l 1,28,-1
EndSplineSet
Validated: 5
EndChar

StartChar: uni0454
Encoding: 1108 1108 289
Width: 1365
GlyphClass: 2
Flags: W
LayerCount: 4
Fore
SplineSet
910 455 m 1,0,-1
 1138 455 l 1,1,-1
 1138 228 l 1,2,-1
 910 228 l 1,3,-1
 910 455 l 1,0,-1
0 910 m 1,4,-1
 228 910 l 1,5,-1
 228 683 l 1,6,-1
 683 683 l 1,7,-1
 683 455 l 1,8,-1
 228 455 l 1,9,-1
 228 228 l 1,10,-1
 0 228 l 1,11,-1
 0 910 l 1,4,-1
228 1138 m 1,12,-1
 910 1138 l 1,13,-1
 910 910 l 1,14,-1
 228 910 l 1,15,-1
 228 1138 l 1,12,-1
910 910 m 1,16,-1
 1138 910 l 1,17,-1
 1138 683 l 1,18,-1
 910 683 l 1,19,-1
 910 910 l 1,16,-1
228 228 m 1,20,-1
 910 228 l 1,21,-1
 910 0 l 1,22,-1
 228 0 l 1,23,-1
 228 228 l 1,20,-1
EndSplineSet
Validated: 5
EndChar

StartChar: uni0406
Encoding: 1030 1030 290
Width: 1365
GlyphClass: 2
Flags: W
LayerCount: 4
Fore
SplineSet
683 228 m 1,0,-1
 1138 228 l 1,1,-1
 1138 0 l 1,2,-1
 0 0 l 1,3,-1
 0 228 l 1,4,-1
 455 228 l 1,5,-1
 455 1365 l 1,6,-1
 0 1365 l 1,7,-1
 0 1593 l 1,8,-1
 1138 1593 l 1,9,-1
 1138 1365 l 1,10,-1
 683 1365 l 1,11,-1
 683 228 l 1,0,-1
EndSplineSet
Validated: 1
EndChar

StartChar: uni0456
Encoding: 1110 1110 291
Width: 1365
GlyphClass: 2
Flags: W
LayerCount: 4
Fore
SplineSet
455 910 m 1,0,-1
 0 910 l 1,1,-1
 0 1138 l 1,2,-1
 1138 1138 l 1,3,-1
 1138 910 l 1,4,-1
 683 910 l 1,5,-1
 683 228 l 1,6,-1
 1138 228 l 1,7,-1
 1138 0 l 1,8,-1
 0 0 l 1,9,-1
 0 228 l 1,10,-1
 455 228 l 1,11,-1
 455 910 l 1,0,-1
EndSplineSet
Validated: 1
EndChar

StartChar: uni0402
Encoding: 1026 1026 292
Width: 1365
GlyphClass: 2
Flags: W
LayerCount: 4
Fore
SplineSet
1138 228 m 1,0,-1
 910 228 l 1,1,-1
 910 683 l 1,2,-1
 1138 683 l 1,3,-1
 1138 228 l 1,0,-1
910 0 m 1,4,-1
 683 0 l 1,5,-1
 683 228 l 1,6,-1
 910 228 l 1,7,-1
 910 0 l 1,4,-1
455 910 m 1,8,-1
 910 910 l 1,9,-1
 910 683 l 1,10,-1
 455 683 l 1,11,-1
 455 0 l 1,12,-1
 228 0 l 1,13,-1
 228 1365 l 1,14,-1
 0 1365 l 1,15,-1
 0 1593 l 1,16,-1
 910 1593 l 1,17,-1
 910 1365 l 1,18,-1
 455 1365 l 1,19,-1
 455 910 l 1,8,-1
EndSplineSet
Validated: 5
EndChar

StartChar: uni0452
Encoding: 1106 1106 293
Width: 1365
GlyphClass: 2
Flags: W
LayerCount: 4
Fore
SplineSet
1138 -228 m 1,0,-1
 910 -228 l 1,1,-1
 910 683 l 1,2,-1
 1138 683 l 1,3,-1
 1138 -228 l 1,0,-1
910 -455 m 1,4,-1
 683 -455 l 1,5,-1
 683 -228 l 1,6,-1
 910 -228 l 1,7,-1
 910 -455 l 1,4,-1
455 910 m 1,8,-1
 910 910 l 1,9,-1
 910 683 l 1,10,-1
 455 683 l 1,11,-1
 455 0 l 1,12,-1
 228 0 l 1,13,-1
 228 1138 l 1,14,-1
 0 1138 l 1,15,-1
 0 1365 l 1,16,-1
 228 1365 l 1,17,-1
 228 1593 l 1,18,-1
 455 1593 l 1,19,-1
 455 1365 l 1,20,-1
 683 1365 l 1,21,-1
 683 1138 l 1,22,-1
 455 1138 l 1,23,-1
 455 910 l 1,8,-1
EndSplineSet
Validated: 5
EndChar

StartChar: uni0408
Encoding: 1032 1032 294
Width: 1365
GlyphClass: 2
Flags: W
LayerCount: 4
Fore
SplineSet
910 0 m 1,0,-1
 228 0 l 1,1,-1
 228 228 l 1,2,-1
 910 228 l 1,3,-1
 910 0 l 1,0,-1
1138 1593 m 1,4,-1
 1138 228 l 1,5,-1
 910 228 l 1,6,-1
 910 1365 l 1,7,-1
 683 1365 l 1,8,-1
 683 1593 l 1,9,-1
 1138 1593 l 1,4,-1
228 228 m 1,10,-1
 0 228 l 1,11,-1
 0 683 l 1,12,-1
 228 683 l 1,13,-1
 228 228 l 1,10,-1
EndSplineSet
Validated: 5
EndChar

StartChar: uni0458
Encoding: 1112 1112 295
Width: 1365
GlyphClass: 2
Flags: W
LayerCount: 4
Fore
SplineSet
910 0 m 1,0,-1
 228 0 l 1,1,-1
 228 228 l 1,2,-1
 910 228 l 1,3,-1
 910 0 l 1,0,-1
1138 228 m 1,4,-1
 910 228 l 1,5,-1
 910 1138 l 1,6,-1
 1138 1138 l 1,7,-1
 1138 228 l 1,4,-1
228 228 m 1,8,-1
 0 228 l 1,9,-1
 0 683 l 1,10,-1
 228 683 l 1,11,-1
 228 228 l 1,8,-1
EndSplineSet
Validated: 5
EndChar

StartChar: uni0409
Encoding: 1033 1033 296
Width: 1365
GlyphClass: 2
Flags: W
LayerCount: 4
Fore
SplineSet
1138 228 m 1,0,-1
 910 228 l 1,1,-1
 910 683 l 1,2,-1
 1138 683 l 1,3,-1
 1138 228 l 1,0,-1
228 0 m 1,4,-1
 0 0 l 1,5,-1
 0 1593 l 1,6,-1
 683 1593 l 1,7,-1
 683 910 l 1,8,-1
 910 910 l 1,9,-1
 910 683 l 1,10,-1
 683 683 l 1,11,-1
 683 228 l 1,12,-1
 910 228 l 1,13,-1
 910 0 l 1,14,-1
 455 0 l 1,15,-1
 455 1365 l 1,16,-1
 228 1365 l 1,17,-1
 228 0 l 1,4,-1
EndSplineSet
Validated: 5
EndChar

StartChar: uni0459
Encoding: 1113 1113 297
Width: 1365
GlyphClass: 2
Flags: W
LayerCount: 4
Fore
SplineSet
1138 228 m 1,0,-1
 910 228 l 1,1,-1
 910 455 l 1,2,-1
 1138 455 l 1,3,-1
 1138 228 l 1,0,-1
228 0 m 1,4,-1
 0 0 l 1,5,-1
 0 1138 l 1,6,-1
 683 1138 l 1,7,-1
 683 683 l 1,8,-1
 910 683 l 1,9,-1
 910 455 l 1,10,-1
 683 455 l 1,11,-1
 683 228 l 1,12,-1
 910 228 l 1,13,-1
 910 0 l 1,14,-1
 455 0 l 1,15,-1
 455 910 l 1,16,-1
 228 910 l 1,17,-1
 228 0 l 1,4,-1
EndSplineSet
Validated: 5
EndChar

StartChar: uni040A
Encoding: 1034 1034 298
Width: 1365
GlyphClass: 2
Flags: W
LayerCount: 4
Fore
SplineSet
1138 228 m 1,0,-1
 910 228 l 1,1,-1
 910 683 l 1,2,-1
 1138 683 l 1,3,-1
 1138 228 l 1,0,-1
228 0 m 1,4,-1
 0 0 l 1,5,-1
 0 1593 l 1,6,-1
 228 1593 l 1,7,-1
 228 910 l 1,8,-1
 455 910 l 1,9,-1
 455 1593 l 1,10,-1
 683 1593 l 1,11,-1
 683 910 l 1,12,-1
 910 910 l 1,13,-1
 910 683 l 1,14,-1
 683 683 l 1,15,-1
 683 228 l 1,16,-1
 910 228 l 1,17,-1
 910 0 l 1,18,-1
 455 0 l 1,19,-1
 455 683 l 1,20,-1
 228 683 l 1,21,-1
 228 0 l 1,4,-1
EndSplineSet
Validated: 5
EndChar

StartChar: uni045A
Encoding: 1114 1114 299
Width: 1365
GlyphClass: 2
Flags: W
LayerCount: 4
Fore
SplineSet
1138 228 m 1,0,-1
 910 228 l 1,1,-1
 910 455 l 1,2,-1
 1138 455 l 1,3,-1
 1138 228 l 1,0,-1
228 0 m 1,4,-1
 0 0 l 1,5,-1
 0 1138 l 1,6,-1
 228 1138 l 1,7,-1
 228 683 l 1,8,-1
 455 683 l 1,9,-1
 455 1138 l 1,10,-1
 683 1138 l 1,11,-1
 683 683 l 1,12,-1
 910 683 l 1,13,-1
 910 455 l 1,14,-1
 683 455 l 1,15,-1
 683 228 l 1,16,-1
 910 228 l 1,17,-1
 910 0 l 1,18,-1
 455 0 l 1,19,-1
 455 455 l 1,20,-1
 228 455 l 1,21,-1
 228 0 l 1,4,-1
EndSplineSet
Validated: 5
EndChar

StartChar: uni040B
Encoding: 1035 1035 300
Width: 1365
GlyphClass: 2
Flags: W
LayerCount: 4
Fore
SplineSet
1138 0 m 1,0,-1
 910 0 l 1,1,-1
 910 683 l 1,2,-1
 1138 683 l 1,3,-1
 1138 0 l 1,0,-1
455 910 m 1,4,-1
 910 910 l 1,5,-1
 910 683 l 1,6,-1
 455 683 l 1,7,-1
 455 0 l 1,8,-1
 228 0 l 1,9,-1
 228 1365 l 1,10,-1
 0 1365 l 1,11,-1
 0 1593 l 1,12,-1
 910 1593 l 1,13,-1
 910 1365 l 1,14,-1
 455 1365 l 1,15,-1
 455 910 l 1,4,-1
EndSplineSet
Validated: 5
EndChar

StartChar: uni045B
Encoding: 1115 1115 301
Width: 1365
GlyphClass: 2
Flags: W
LayerCount: 4
Fore
SplineSet
1138 0 m 1,0,-1
 910 0 l 1,1,-1
 910 683 l 1,2,-1
 1138 683 l 1,3,-1
 1138 0 l 1,0,-1
455 910 m 1,4,-1
 910 910 l 1,5,-1
 910 683 l 1,6,-1
 455 683 l 1,7,-1
 455 0 l 1,8,-1
 228 0 l 1,9,-1
 228 1138 l 1,10,-1
 0 1138 l 1,11,-1
 0 1365 l 1,12,-1
 228 1365 l 1,13,-1
 228 1593 l 1,14,-1
 455 1593 l 1,15,-1
 455 1365 l 1,16,-1
 683 1365 l 1,17,-1
 683 1138 l 1,18,-1
 455 1138 l 1,19,-1
 455 910 l 1,4,-1
EndSplineSet
Validated: 5
EndChar

StartChar: uni040F
Encoding: 1039 1039 302
Width: 1365
GlyphClass: 2
Flags: W
LayerCount: 4
Fore
SplineSet
910 228 m 1,0,-1
 910 1593 l 1,1,-1
 1138 1593 l 1,2,-1
 1138 0 l 1,3,-1
 683 0 l 1,4,-1
 683 -228 l 1,5,-1
 455 -228 l 1,6,-1
 455 0 l 1,7,-1
 0 0 l 1,8,-1
 0 1593 l 1,9,-1
 228 1593 l 1,10,-1
 228 228 l 1,11,-1
 910 228 l 1,0,-1
EndSplineSet
Validated: 1
EndChar

StartChar: uni045F
Encoding: 1119 1119 303
Width: 1365
GlyphClass: 2
Flags: W
LayerCount: 4
Fore
SplineSet
910 228 m 1,0,-1
 910 1138 l 1,1,-1
 1138 1138 l 1,2,-1
 1138 0 l 1,3,-1
 683 0 l 1,4,-1
 683 -228 l 1,5,-1
 455 -228 l 1,6,-1
 455 0 l 1,7,-1
 0 0 l 1,8,-1
 0 1138 l 1,9,-1
 228 1138 l 1,10,-1
 228 228 l 1,11,-1
 910 228 l 1,0,-1
EndSplineSet
Validated: 1
EndChar

StartChar: Edotaccent
Encoding: 278 278 304
Width: 1365
GlyphClass: 2
Flags: W
LayerCount: 4
Fore
SplineSet
228 228 m 1,0,-1
 1138 228 l 1,1,-1
 1138 0 l 1,2,-1
 0 0 l 1,3,-1
 0 1593 l 1,4,-1
 1138 1593 l 1,5,-1
 1138 1365 l 1,6,-1
 228 1365 l 1,7,-1
 228 910 l 1,8,-1
 910 910 l 1,9,-1
 910 683 l 1,10,-1
 228 683 l 1,11,-1
 228 228 l 1,0,-1
683 1820 m 1,12,-1
 455 1820 l 1,13,-1
 455 2048 l 1,14,-1
 683 2048 l 1,15,-1
 683 1820 l 1,12,-1
EndSplineSet
Validated: 1
EndChar

StartChar: edotaccent
Encoding: 279 279 305
Width: 1365
GlyphClass: 2
Flags: W
LayerCount: 4
Fore
SplineSet
910 910 m 1,0,-1
 228 910 l 1,1,-1
 228 1138 l 1,2,-1
 910 1138 l 1,3,-1
 910 910 l 1,0,-1
228 455 m 1,4,-1
 228 228 l 1,5,-1
 0 228 l 1,6,-1
 0 910 l 1,7,-1
 228 910 l 1,8,-1
 228 683 l 1,9,-1
 910 683 l 1,10,-1
 910 910 l 1,11,-1
 1138 910 l 1,12,-1
 1138 455 l 1,13,-1
 228 455 l 1,4,-1
1138 0 m 1,14,-1
 228 0 l 1,15,-1
 228 228 l 1,16,-1
 1138 228 l 1,17,-1
 1138 0 l 1,14,-1
683 1365 m 1,18,-1
 455 1365 l 1,19,-1
 455 1593 l 1,20,-1
 683 1593 l 1,21,-1
 683 1365 l 1,18,-1
EndSplineSet
Validated: 5
EndChar

StartChar: Cdotaccent
Encoding: 266 266 306
Width: 1365
GlyphClass: 2
Flags: W
LayerCount: 4
Fore
SplineSet
228 228 m 1,0,-1
 0 228 l 1,1,-1
 0 1365 l 1,2,-1
 228 1365 l 1,3,-1
 228 228 l 1,0,-1
1138 228 m 1,4,-1
 910 228 l 1,5,-1
 910 455 l 1,6,-1
 1138 455 l 1,7,-1
 1138 228 l 1,4,-1
1138 1138 m 1,8,-1
 910 1138 l 1,9,-1
 910 1365 l 1,10,-1
 1138 1365 l 1,11,-1
 1138 1138 l 1,8,-1
910 0 m 1,12,-1
 228 0 l 1,13,-1
 228 228 l 1,14,-1
 910 228 l 1,15,-1
 910 0 l 1,12,-1
910 1365 m 1,16,-1
 228 1365 l 1,17,-1
 228 1593 l 1,18,-1
 910 1593 l 1,19,-1
 910 1365 l 1,16,-1
683 1820 m 1,20,-1
 455 1820 l 1,21,-1
 455 2048 l 1,22,-1
 683 2048 l 1,23,-1
 683 1820 l 1,20,-1
EndSplineSet
Validated: 5
EndChar

StartChar: cdotaccent
Encoding: 267 267 307
Width: 1365
GlyphClass: 2
Flags: W
LayerCount: 4
Fore
SplineSet
228 228 m 1,0,-1
 0 228 l 1,1,-1
 0 910 l 1,2,-1
 228 910 l 1,3,-1
 228 228 l 1,0,-1
1138 910 m 1,4,-1
 228 910 l 1,5,-1
 228 1138 l 1,6,-1
 1138 1138 l 1,7,-1
 1138 910 l 1,4,-1
1138 0 m 1,8,-1
 228 0 l 1,9,-1
 228 228 l 1,10,-1
 1138 228 l 1,11,-1
 1138 0 l 1,8,-1
683 1365 m 1,12,-1
 455 1365 l 1,13,-1
 455 1593 l 1,14,-1
 683 1593 l 1,15,-1
 683 1365 l 1,12,-1
EndSplineSet
Validated: 5
EndChar

StartChar: Zdotaccent
Encoding: 379 379 308
Width: 1365
GlyphClass: 2
Flags: W
LayerCount: 4
Fore
SplineSet
228 228 m 1,0,-1
 1138 228 l 1,1,-1
 1138 0 l 1,2,-1
 0 0 l 1,3,-1
 0 455 l 1,4,-1
 228 455 l 1,5,-1
 228 228 l 1,0,-1
910 910 m 1,6,-1
 683 910 l 1,7,-1
 683 1138 l 1,8,-1
 910 1138 l 1,9,-1
 910 910 l 1,6,-1
683 683 m 1,10,-1
 455 683 l 1,11,-1
 455 910 l 1,12,-1
 683 910 l 1,13,-1
 683 683 l 1,10,-1
455 455 m 1,14,-1
 228 455 l 1,15,-1
 228 683 l 1,16,-1
 455 683 l 1,17,-1
 455 455 l 1,14,-1
910 1365 m 1,18,-1
 0 1365 l 1,19,-1
 0 1593 l 1,20,-1
 1138 1593 l 1,21,-1
 1138 1138 l 1,22,-1
 910 1138 l 1,23,-1
 910 1365 l 1,18,-1
683 1820 m 1,24,-1
 455 1820 l 1,25,-1
 455 2048 l 1,26,-1
 683 2048 l 1,27,-1
 683 1820 l 1,24,-1
EndSplineSet
Validated: 5
EndChar

StartChar: zdotaccent
Encoding: 380 380 309
Width: 1365
GlyphClass: 2
Flags: W
LayerCount: 4
Fore
SplineSet
910 910 m 1,0,-1
 0 910 l 1,1,-1
 0 1138 l 1,2,-1
 1138 1138 l 1,3,-1
 1138 683 l 1,4,-1
 910 683 l 1,5,-1
 910 910 l 1,0,-1
910 455 m 1,6,-1
 228 455 l 1,7,-1
 228 683 l 1,8,-1
 910 683 l 1,9,-1
 910 455 l 1,6,-1
228 228 m 1,10,-1
 1138 228 l 1,11,-1
 1138 0 l 1,12,-1
 0 0 l 1,13,-1
 0 455 l 1,14,-1
 228 455 l 1,15,-1
 228 228 l 1,10,-1
683 1365 m 1,16,-1
 455 1365 l 1,17,-1
 455 1593 l 1,18,-1
 683 1593 l 1,19,-1
 683 1365 l 1,16,-1
EndSplineSet
Validated: 5
EndChar

StartChar: Aogonek
Encoding: 260 260 310
Width: 1365
GlyphClass: 2
Flags: W
LayerCount: 4
Fore
SplineSet
228 683 m 1,0,-1
 228 0 l 1,1,-1
 0 0 l 1,2,-1
 0 1365 l 1,3,-1
 228 1365 l 1,4,-1
 228 910 l 1,5,-1
 910 910 l 1,6,-1
 910 1365 l 1,7,-1
 1138 1365 l 1,8,-1
 1138 0 l 1,9,-1
 910 0 l 1,10,-1
 910 683 l 1,11,-1
 228 683 l 1,0,-1
910 1365 m 1,12,-1
 228 1365 l 1,13,-1
 228 1593 l 1,14,-1
 910 1593 l 1,15,-1
 910 1365 l 1,12,-1
910 -228 m 1,16,-1
 683 -228 l 1,17,-1
 683 0 l 1,18,-1
 910 0 l 1,19,-1
 910 -228 l 1,16,-1
1138 -455 m 1,20,-1
 910 -455 l 1,21,-1
 910 -228 l 1,22,-1
 1138 -228 l 1,23,-1
 1138 -455 l 1,20,-1
EndSplineSet
Validated: 5
EndChar

StartChar: aogonek
Encoding: 261 261 311
Width: 1365
GlyphClass: 2
Flags: W
LayerCount: 4
Fore
SplineSet
228 228 m 1,0,-1
 0 228 l 1,1,-1
 0 910 l 1,2,-1
 228 910 l 1,3,-1
 228 228 l 1,0,-1
910 683 m 1,4,-1
 683 683 l 1,5,-1
 683 910 l 1,6,-1
 910 910 l 1,7,-1
 910 1138 l 1,8,-1
 1138 1138 l 1,9,-1
 1138 0 l 1,10,-1
 910 0 l 1,11,-1
 910 228 l 1,12,-1
 683 228 l 1,13,-1
 683 455 l 1,14,-1
 910 455 l 1,15,-1
 910 683 l 1,4,-1
683 0 m 1,16,-1
 228 0 l 1,17,-1
 228 228 l 1,18,-1
 683 228 l 1,19,-1
 683 0 l 1,16,-1
683 910 m 1,20,-1
 228 910 l 1,21,-1
 228 1138 l 1,22,-1
 683 1138 l 1,23,-1
 683 910 l 1,20,-1
910 -228 m 1,24,-1
 683 -228 l 1,25,-1
 683 0 l 1,26,-1
 910 0 l 1,27,-1
 910 -228 l 1,24,-1
1138 -455 m 1,28,-1
 910 -455 l 1,29,-1
 910 -228 l 1,30,-1
 1138 -228 l 1,31,-1
 1138 -455 l 1,28,-1
EndSplineSet
Validated: 5
EndChar

StartChar: Cacute
Encoding: 262 262 312
Width: 1365
GlyphClass: 2
Flags: W
LayerCount: 4
Fore
SplineSet
228 228 m 1,0,-1
 0 228 l 1,1,-1
 0 1365 l 1,2,-1
 228 1365 l 1,3,-1
 228 228 l 1,0,-1
683 1593 m 1,4,-1
 910 1593 l 1,5,-1
 910 1365 l 1,6,-1
 228 1365 l 1,7,-1
 228 1593 l 1,8,-1
 455 1593 l 1,9,-1
 455 1820 l 1,10,-1
 683 1820 l 1,11,-1
 683 1593 l 1,4,-1
910 1820 m 1,12,-1
 683 1820 l 1,13,-1
 683 2048 l 1,14,-1
 910 2048 l 1,15,-1
 910 1820 l 1,12,-1
910 0 m 1,16,-1
 228 0 l 1,17,-1
 228 228 l 1,18,-1
 910 228 l 1,19,-1
 910 0 l 1,16,-1
1138 1138 m 1,20,-1
 910 1138 l 1,21,-1
 910 1365 l 1,22,-1
 1138 1365 l 1,23,-1
 1138 1138 l 1,20,-1
1138 228 m 1,24,-1
 910 228 l 1,25,-1
 910 455 l 1,26,-1
 1138 455 l 1,27,-1
 1138 228 l 1,24,-1
EndSplineSet
Validated: 5
EndChar

StartChar: cacute
Encoding: 263 263 313
Width: 1365
GlyphClass: 2
Flags: W
LayerCount: 4
Fore
SplineSet
228 228 m 1,0,-1
 0 228 l 1,1,-1
 0 910 l 1,2,-1
 228 910 l 1,3,-1
 228 228 l 1,0,-1
1138 910 m 1,4,-1
 228 910 l 1,5,-1
 228 1138 l 1,6,-1
 1138 1138 l 1,7,-1
 1138 910 l 1,4,-1
1138 0 m 1,8,-1
 228 0 l 1,9,-1
 228 228 l 1,10,-1
 1138 228 l 1,11,-1
 1138 0 l 1,8,-1
910 1593 m 1,12,-1
 683 1593 l 1,13,-1
 683 1820 l 1,14,-1
 910 1820 l 1,15,-1
 910 1593 l 1,12,-1
683 1365 m 1,16,-1
 455 1365 l 1,17,-1
 455 1593 l 1,18,-1
 683 1593 l 1,19,-1
 683 1365 l 1,16,-1
EndSplineSet
Validated: 5
EndChar

StartChar: Eogonek
Encoding: 280 280 314
Width: 1365
GlyphClass: 2
Flags: W
LayerCount: 4
Fore
SplineSet
683 0 m 1,0,-1
 0 0 l 1,1,-1
 0 1593 l 1,2,-1
 1138 1593 l 1,3,-1
 1138 1365 l 1,4,-1
 228 1365 l 1,5,-1
 228 910 l 1,6,-1
 910 910 l 1,7,-1
 910 683 l 1,8,-1
 228 683 l 1,9,-1
 228 228 l 1,10,-1
 1138 228 l 1,11,-1
 1138 0 l 1,12,-1
 910 0 l 1,13,-1
 910 -228 l 1,14,-1
 683 -228 l 1,15,-1
 683 0 l 1,0,-1
1138 -455 m 1,16,-1
 910 -455 l 1,17,-1
 910 -228 l 1,18,-1
 1138 -228 l 1,19,-1
 1138 -455 l 1,16,-1
EndSplineSet
Validated: 5
EndChar

StartChar: eogonek
Encoding: 281 281 315
Width: 1365
GlyphClass: 2
Flags: W
LayerCount: 4
Fore
SplineSet
910 910 m 1,0,-1
 228 910 l 1,1,-1
 228 1138 l 1,2,-1
 910 1138 l 1,3,-1
 910 910 l 1,0,-1
1138 -455 m 1,4,-1
 910 -455 l 1,5,-1
 910 -228 l 1,6,-1
 1138 -228 l 1,7,-1
 1138 -455 l 1,4,-1
683 0 m 1,8,-1
 228 0 l 1,9,-1
 228 228 l 1,10,-1
 1138 228 l 1,11,-1
 1138 0 l 1,12,-1
 910 0 l 1,13,-1
 910 -228 l 1,14,-1
 683 -228 l 1,15,-1
 683 0 l 1,8,-1
228 455 m 1,16,-1
 228 228 l 1,17,-1
 0 228 l 1,18,-1
 0 910 l 1,19,-1
 228 910 l 1,20,-1
 228 683 l 1,21,-1
 910 683 l 1,22,-1
 910 910 l 1,23,-1
 1138 910 l 1,24,-1
 1138 455 l 1,25,-1
 228 455 l 1,16,-1
EndSplineSet
Validated: 5
EndChar

StartChar: Lslash
Encoding: 321 321 316
Width: 1365
GlyphClass: 2
Flags: W
LayerCount: 4
Fore
SplineSet
0 455 m 1,0,-1
 -228 455 l 1,1,-1
 -228 683 l 1,2,-1
 0 683 l 1,3,-1
 0 1593 l 1,4,-1
 228 1593 l 1,5,-1
 228 910 l 1,6,-1
 455 910 l 1,7,-1
 455 683 l 1,8,-1
 228 683 l 1,9,-1
 228 228 l 1,10,-1
 1138 228 l 1,11,-1
 1138 0 l 1,12,-1
 0 0 l 1,13,-1
 0 455 l 1,0,-1
683 910 m 1,14,-1
 455 910 l 1,15,-1
 455 1138 l 1,16,-1
 683 1138 l 1,17,-1
 683 910 l 1,14,-1
EndSplineSet
Validated: 5
EndChar

StartChar: lslash
Encoding: 322 322 317
Width: 1365
GlyphClass: 2
Flags: W
LayerCount: 4
Fore
SplineSet
0 228 m 1,0,-1
 -228 228 l 1,1,-1
 -228 455 l 1,2,-1
 0 455 l 1,3,-1
 0 1138 l 1,4,-1
 228 1138 l 1,5,-1
 228 683 l 1,6,-1
 455 683 l 1,7,-1
 455 455 l 1,8,-1
 228 455 l 1,9,-1
 228 228 l 1,10,-1
 1138 228 l 1,11,-1
 1138 0 l 1,12,-1
 0 0 l 1,13,-1
 0 228 l 1,0,-1
683 683 m 1,14,-1
 455 683 l 1,15,-1
 455 910 l 1,16,-1
 683 910 l 1,17,-1
 683 683 l 1,14,-1
EndSplineSet
Validated: 5
EndChar

StartChar: Nacute
Encoding: 323 323 318
Width: 1365
GlyphClass: 2
Flags: W
LayerCount: 4
Fore
SplineSet
228 1138 m 1,0,-1
 228 0 l 1,1,-1
 0 0 l 1,2,-1
 0 1593 l 1,3,-1
 455 1593 l 1,4,-1
 455 1138 l 1,5,-1
 228 1138 l 1,0,-1
683 455 m 1,6,-1
 455 455 l 1,7,-1
 455 1138 l 1,8,-1
 683 1138 l 1,9,-1
 683 455 l 1,6,-1
910 455 m 1,10,-1
 910 1593 l 1,11,-1
 1138 1593 l 1,12,-1
 1138 0 l 1,13,-1
 683 0 l 1,14,-1
 683 455 l 1,15,-1
 910 455 l 1,10,-1
910 1820 m 1,16,-1
 683 1820 l 1,17,-1
 683 2048 l 1,18,-1
 910 2048 l 1,19,-1
 910 1820 l 1,16,-1
683 1593 m 1,20,-1
 455 1593 l 1,21,-1
 455 1820 l 1,22,-1
 683 1820 l 1,23,-1
 683 1593 l 1,20,-1
EndSplineSet
Validated: 5
EndChar

StartChar: nacute
Encoding: 324 324 319
Width: 1365
GlyphClass: 2
Flags: W
LayerCount: 4
Fore
SplineSet
228 683 m 1,0,-1
 228 0 l 1,1,-1
 0 0 l 1,2,-1
 0 1138 l 1,3,-1
 228 1138 l 1,4,-1
 228 910 l 1,5,-1
 455 910 l 1,6,-1
 455 683 l 1,7,-1
 228 683 l 1,0,-1
683 1365 m 1,8,-1
 455 1365 l 1,9,-1
 455 1593 l 1,10,-1
 683 1593 l 1,11,-1
 683 1365 l 1,8,-1
910 1593 m 1,12,-1
 683 1593 l 1,13,-1
 683 1820 l 1,14,-1
 910 1820 l 1,15,-1
 910 1593 l 1,12,-1
1138 0 m 1,16,-1
 910 0 l 1,17,-1
 910 910 l 1,18,-1
 1138 910 l 1,19,-1
 1138 0 l 1,16,-1
910 910 m 1,20,-1
 455 910 l 1,21,-1
 455 1138 l 1,22,-1
 910 1138 l 1,23,-1
 910 910 l 1,20,-1
EndSplineSet
Validated: 5
EndChar

StartChar: Sacute
Encoding: 346 346 320
Width: 1365
GlyphClass: 2
Flags: W
LayerCount: 4
Fore
SplineSet
228 228 m 1,0,-1
 0 228 l 1,1,-1
 0 455 l 1,2,-1
 228 455 l 1,3,-1
 228 228 l 1,0,-1
683 1593 m 1,4,-1
 910 1593 l 1,5,-1
 910 1365 l 1,6,-1
 228 1365 l 1,7,-1
 228 1593 l 1,8,-1
 455 1593 l 1,9,-1
 455 1820 l 1,10,-1
 683 1820 l 1,11,-1
 683 1593 l 1,4,-1
910 1820 m 1,12,-1
 683 1820 l 1,13,-1
 683 2048 l 1,14,-1
 910 2048 l 1,15,-1
 910 1820 l 1,12,-1
910 683 m 1,16,-1
 228 683 l 1,17,-1
 228 910 l 1,18,-1
 910 910 l 1,19,-1
 910 683 l 1,16,-1
228 910 m 1,20,-1
 0 910 l 1,21,-1
 0 1365 l 1,22,-1
 228 1365 l 1,23,-1
 228 910 l 1,20,-1
1138 1138 m 1,24,-1
 910 1138 l 1,25,-1
 910 1365 l 1,26,-1
 1138 1365 l 1,27,-1
 1138 1138 l 1,24,-1
1138 228 m 1,28,-1
 910 228 l 1,29,-1
 910 683 l 1,30,-1
 1138 683 l 1,31,-1
 1138 228 l 1,28,-1
910 0 m 1,32,-1
 228 0 l 1,33,-1
 228 228 l 1,34,-1
 910 228 l 1,35,-1
 910 0 l 1,32,-1
EndSplineSet
Validated: 5
EndChar

StartChar: sacute
Encoding: 347 347 321
Width: 1365
GlyphClass: 2
Flags: W
LayerCount: 4
Fore
SplineSet
910 0 m 1,0,-1
 0 0 l 1,1,-1
 0 228 l 1,2,-1
 910 228 l 1,3,-1
 910 0 l 1,0,-1
1138 228 m 1,4,-1
 910 228 l 1,5,-1
 910 455 l 1,6,-1
 1138 455 l 1,7,-1
 1138 228 l 1,4,-1
910 455 m 1,8,-1
 228 455 l 1,9,-1
 228 683 l 1,10,-1
 910 683 l 1,11,-1
 910 455 l 1,8,-1
228 683 m 1,12,-1
 0 683 l 1,13,-1
 0 910 l 1,14,-1
 228 910 l 1,15,-1
 228 683 l 1,12,-1
1138 910 m 1,16,-1
 228 910 l 1,17,-1
 228 1138 l 1,18,-1
 1138 1138 l 1,19,-1
 1138 910 l 1,16,-1
910 1593 m 1,20,-1
 683 1593 l 1,21,-1
 683 1820 l 1,22,-1
 910 1820 l 1,23,-1
 910 1593 l 1,20,-1
683 1365 m 1,24,-1
 455 1365 l 1,25,-1
 455 1593 l 1,26,-1
 683 1593 l 1,27,-1
 683 1365 l 1,24,-1
EndSplineSet
Validated: 5
EndChar

StartChar: Zacute
Encoding: 377 377 322
Width: 1365
GlyphClass: 2
Flags: W
LayerCount: 4
Fore
SplineSet
228 228 m 1,0,-1
 1138 228 l 1,1,-1
 1138 0 l 1,2,-1
 0 0 l 1,3,-1
 0 455 l 1,4,-1
 228 455 l 1,5,-1
 228 228 l 1,0,-1
683 1593 m 1,6,-1
 1138 1593 l 1,7,-1
 1138 1138 l 1,8,-1
 910 1138 l 1,9,-1
 910 1365 l 1,10,-1
 0 1365 l 1,11,-1
 0 1593 l 1,12,-1
 455 1593 l 1,13,-1
 455 1820 l 1,14,-1
 683 1820 l 1,15,-1
 683 1593 l 1,6,-1
910 1820 m 1,16,-1
 683 1820 l 1,17,-1
 683 2048 l 1,18,-1
 910 2048 l 1,19,-1
 910 1820 l 1,16,-1
455 455 m 1,20,-1
 228 455 l 1,21,-1
 228 683 l 1,22,-1
 455 683 l 1,23,-1
 455 455 l 1,20,-1
683 683 m 1,24,-1
 455 683 l 1,25,-1
 455 910 l 1,26,-1
 683 910 l 1,27,-1
 683 683 l 1,24,-1
910 910 m 1,28,-1
 683 910 l 1,29,-1
 683 1138 l 1,30,-1
 910 1138 l 1,31,-1
 910 910 l 1,28,-1
EndSplineSet
Validated: 5
EndChar

StartChar: zacute
Encoding: 378 378 323
Width: 1365
GlyphClass: 2
Flags: W
LayerCount: 4
Fore
SplineSet
910 910 m 1,0,-1
 0 910 l 1,1,-1
 0 1138 l 1,2,-1
 1138 1138 l 1,3,-1
 1138 683 l 1,4,-1
 910 683 l 1,5,-1
 910 910 l 1,0,-1
910 455 m 1,6,-1
 228 455 l 1,7,-1
 228 683 l 1,8,-1
 910 683 l 1,9,-1
 910 455 l 1,6,-1
228 228 m 1,10,-1
 1138 228 l 1,11,-1
 1138 0 l 1,12,-1
 0 0 l 1,13,-1
 0 455 l 1,14,-1
 228 455 l 1,15,-1
 228 228 l 1,10,-1
910 1593 m 1,16,-1
 683 1593 l 1,17,-1
 683 1820 l 1,18,-1
 910 1820 l 1,19,-1
 910 1593 l 1,16,-1
683 1365 m 1,20,-1
 455 1365 l 1,21,-1
 455 1593 l 1,22,-1
 683 1593 l 1,23,-1
 683 1365 l 1,20,-1
EndSplineSet
Validated: 5
EndChar

StartChar: Iogonek
Encoding: 302 302 324
Width: 1365
GlyphClass: 2
Flags: W
LayerCount: 4
Fore
SplineSet
683 0 m 1,0,-1
 0 0 l 1,1,-1
 0 228 l 1,2,-1
 455 228 l 1,3,-1
 455 1365 l 1,4,-1
 0 1365 l 1,5,-1
 0 1593 l 1,6,-1
 1138 1593 l 1,7,-1
 1138 1365 l 1,8,-1
 683 1365 l 1,9,-1
 683 228 l 1,10,-1
 1138 228 l 1,11,-1
 1138 0 l 1,12,-1
 910 0 l 1,13,-1
 910 -228 l 1,14,-1
 683 -228 l 1,15,-1
 683 0 l 1,0,-1
1138 -455 m 1,16,-1
 910 -455 l 1,17,-1
 910 -228 l 1,18,-1
 1138 -228 l 1,19,-1
 1138 -455 l 1,16,-1
EndSplineSet
Validated: 5
EndChar

StartChar: iogonek
Encoding: 303 303 325
Width: 1365
GlyphClass: 2
Flags: W
LayerCount: 4
Fore
SplineSet
683 0 m 1,0,-1
 0 0 l 1,1,-1
 0 228 l 1,2,-1
 455 228 l 1,3,-1
 455 910 l 1,4,-1
 0 910 l 1,5,-1
 0 1138 l 1,6,-1
 1138 1138 l 1,7,-1
 1138 910 l 1,8,-1
 683 910 l 1,9,-1
 683 228 l 1,10,-1
 1138 228 l 1,11,-1
 1138 0 l 1,12,-1
 910 0 l 1,13,-1
 910 -228 l 1,14,-1
 683 -228 l 1,15,-1
 683 0 l 1,0,-1
1138 -455 m 1,16,-1
 910 -455 l 1,17,-1
 910 -228 l 1,18,-1
 1138 -228 l 1,19,-1
 1138 -455 l 1,16,-1
EndSplineSet
Validated: 5
EndChar

StartChar: Uogonek
Encoding: 370 370 326
Width: 1365
GlyphClass: 2
Flags: W
LayerCount: 4
Fore
SplineSet
228 228 m 1,0,-1
 0 228 l 1,1,-1
 0 1593 l 1,2,-1
 228 1593 l 1,3,-1
 228 228 l 1,0,-1
1138 -455 m 1,4,-1
 910 -455 l 1,5,-1
 910 -228 l 1,6,-1
 1138 -228 l 1,7,-1
 1138 -455 l 1,4,-1
683 0 m 1,8,-1
 228 0 l 1,9,-1
 228 228 l 1,10,-1
 910 228 l 1,11,-1
 910 -228 l 1,12,-1
 683 -228 l 1,13,-1
 683 0 l 1,8,-1
1138 228 m 1,14,-1
 910 228 l 1,15,-1
 910 1593 l 1,16,-1
 1138 1593 l 1,17,-1
 1138 228 l 1,14,-1
EndSplineSet
Validated: 5
EndChar

StartChar: uogonek
Encoding: 371 371 327
Width: 1365
GlyphClass: 2
Flags: W
LayerCount: 4
Fore
SplineSet
228 228 m 1,0,-1
 0 228 l 1,1,-1
 0 1138 l 1,2,-1
 228 1138 l 1,3,-1
 228 228 l 1,0,-1
1138 -455 m 1,4,-1
 910 -455 l 1,5,-1
 910 -228 l 1,6,-1
 1138 -228 l 1,7,-1
 1138 -455 l 1,4,-1
683 0 m 1,8,-1
 228 0 l 1,9,-1
 228 228 l 1,10,-1
 910 228 l 1,11,-1
 910 -228 l 1,12,-1
 683 -228 l 1,13,-1
 683 0 l 1,8,-1
1138 228 m 1,14,-1
 910 228 l 1,15,-1
 910 1138 l 1,16,-1
 1138 1138 l 1,17,-1
 1138 228 l 1,14,-1
EndSplineSet
Validated: 5
EndChar

StartChar: Otilde
Encoding: 213 213 328
Width: 1365
GlyphClass: 2
Flags: W
LayerCount: 4
Fore
SplineSet
228 228 m 1,0,-1
 0 228 l 1,1,-1
 0 1365 l 1,2,-1
 228 1365 l 1,3,-1
 228 228 l 1,0,-1
1138 1820 m 1,4,-1
 910 1820 l 1,5,-1
 910 2048 l 1,6,-1
 1138 2048 l 1,7,-1
 1138 1820 l 1,4,-1
228 1820 m 1,8,-1
 455 1820 l 1,9,-1
 455 1593 l 1,10,-1
 683 1593 l 1,11,-1
 683 1820 l 1,12,-1
 910 1820 l 1,13,-1
 910 1365 l 1,14,-1
 228 1365 l 1,15,-1
 228 1820 l 1,8,-1
683 1820 m 1,16,-1
 455 1820 l 1,17,-1
 455 2048 l 1,18,-1
 683 2048 l 1,19,-1
 683 1820 l 1,16,-1
910 0 m 1,20,-1
 228 0 l 1,21,-1
 228 228 l 1,22,-1
 910 228 l 1,23,-1
 910 0 l 1,20,-1
1138 228 m 1,24,-1
 910 228 l 1,25,-1
 910 1365 l 1,26,-1
 1138 1365 l 1,27,-1
 1138 228 l 1,24,-1
EndSplineSet
Validated: 5
EndChar

StartChar: otilde
Encoding: 245 245 329
Width: 1365
GlyphClass: 2
Flags: W
LayerCount: 4
Fore
SplineSet
228 228 m 1,0,-1
 0 228 l 1,1,-1
 0 910 l 1,2,-1
 228 910 l 1,3,-1
 228 228 l 1,0,-1
910 910 m 1,4,-1
 228 910 l 1,5,-1
 228 1138 l 1,6,-1
 910 1138 l 1,7,-1
 910 910 l 1,4,-1
1138 228 m 1,8,-1
 910 228 l 1,9,-1
 910 910 l 1,10,-1
 1138 910 l 1,11,-1
 1138 228 l 1,8,-1
910 0 m 1,12,-1
 228 0 l 1,13,-1
 228 228 l 1,14,-1
 910 228 l 1,15,-1
 910 0 l 1,12,-1
455 1365 m 1,16,-1
 228 1365 l 1,17,-1
 228 1593 l 1,18,-1
 455 1593 l 1,19,-1
 455 1365 l 1,16,-1
683 1593 m 1,20,-1
 455 1593 l 1,21,-1
 455 1820 l 1,22,-1
 683 1820 l 1,23,-1
 683 1593 l 1,20,-1
910 1365 m 1,24,-1
 683 1365 l 1,25,-1
 683 1593 l 1,26,-1
 910 1593 l 1,27,-1
 910 1365 l 1,24,-1
1138 1593 m 1,28,-1
 910 1593 l 1,29,-1
 910 1820 l 1,30,-1
 1138 1820 l 1,31,-1
 1138 1593 l 1,28,-1
EndSplineSet
Validated: 5
EndChar

StartChar: uni20B5
Encoding: 8373 8373 330
Width: 1365
GlyphClass: 2
Flags: W
LayerCount: 4
Fore
SplineSet
228 228 m 1,0,-1
 0 228 l 1,1,-1
 0 1365 l 1,2,-1
 228 1365 l 1,3,-1
 228 228 l 1,0,-1
683 228 m 1,4,-1
 910 228 l 1,5,-1
 910 0 l 1,6,-1
 683 0 l 1,7,-1
 683 -228 l 1,8,-1
 455 -228 l 1,9,-1
 455 0 l 1,10,-1
 228 0 l 1,11,-1
 228 228 l 1,12,-1
 455 228 l 1,13,-1
 455 1365 l 1,14,-1
 228 1365 l 1,15,-1
 228 1593 l 1,16,-1
 455 1593 l 1,17,-1
 455 1820 l 1,18,-1
 683 1820 l 1,19,-1
 683 1593 l 1,20,-1
 910 1593 l 1,21,-1
 910 1365 l 1,22,-1
 683 1365 l 1,23,-1
 683 228 l 1,4,-1
1138 1138 m 1,24,-1
 910 1138 l 1,25,-1
 910 1365 l 1,26,-1
 1138 1365 l 1,27,-1
 1138 1138 l 1,24,-1
1138 228 m 1,28,-1
 910 228 l 1,29,-1
 910 455 l 1,30,-1
 1138 455 l 1,31,-1
 1138 228 l 1,28,-1
EndSplineSet
Validated: 5
EndChar

StartChar: uni20B8
Encoding: 8376 8376 331
Width: 1365
GlyphClass: 2
Flags: W
LayerCount: 4
Fore
SplineSet
1138 1365 m 1,0,-1
 0 1365 l 1,1,-1
 0 1593 l 1,2,-1
 1138 1593 l 1,3,-1
 1138 1365 l 1,0,-1
1138 1138 m 1,4,-1
 1138 910 l 1,5,-1
 683 910 l 1,6,-1
 683 0 l 1,7,-1
 455 0 l 1,8,-1
 455 910 l 1,9,-1
 0 910 l 1,10,-1
 0 1138 l 1,11,-1
 1138 1138 l 1,4,-1
EndSplineSet
Validated: 1
EndChar

StartChar: uni20BD
Encoding: 8381 8381 332
Width: 1365
GlyphClass: 2
Flags: W
LayerCount: 4
Fore
SplineSet
1138 910 m 1,0,-1
 910 910 l 1,1,-1
 910 1365 l 1,2,-1
 1138 1365 l 1,3,-1
 1138 910 l 1,0,-1
0 683 m 1,4,-1
 -228 683 l 1,5,-1
 -228 910 l 1,6,-1
 0 910 l 1,7,-1
 0 1593 l 1,8,-1
 910 1593 l 1,9,-1
 910 1365 l 1,10,-1
 228 1365 l 1,11,-1
 228 910 l 1,12,-1
 910 910 l 1,13,-1
 910 683 l 1,14,-1
 228 683 l 1,15,-1
 228 455 l 1,16,-1
 683 455 l 1,17,-1
 683 228 l 1,18,-1
 228 228 l 1,19,-1
 228 0 l 1,20,-1
 0 0 l 1,21,-1
 0 228 l 1,22,-1
 -228 228 l 1,23,-1
 -228 455 l 1,24,-1
 0 455 l 1,25,-1
 0 683 l 1,4,-1
EndSplineSet
Validated: 5
EndChar

StartChar: uni20B9
Encoding: 8377 8377 333
Width: 1365
GlyphClass: 2
Flags: W
LayerCount: 4
Fore
SplineSet
1138 0 m 1,0,-1
 910 0 l 1,1,-1
 910 228 l 1,2,-1
 1138 228 l 1,3,-1
 1138 0 l 1,0,-1
910 910 m 1,4,-1
 910 683 l 1,5,-1
 683 683 l 1,6,-1
 683 910 l 1,7,-1
 228 910 l 1,8,-1
 228 1138 l 1,9,-1
 683 1138 l 1,10,-1
 683 1365 l 1,11,-1
 228 1365 l 1,12,-1
 228 1593 l 1,13,-1
 1138 1593 l 1,14,-1
 1138 1365 l 1,15,-1
 910 1365 l 1,16,-1
 910 1138 l 1,17,-1
 1138 1138 l 1,18,-1
 1138 910 l 1,19,-1
 910 910 l 1,4,-1
683 455 m 1,20,-1
 228 455 l 1,21,-1
 228 683 l 1,22,-1
 683 683 l 1,23,-1
 683 455 l 1,20,-1
910 228 m 1,24,-1
 683 228 l 1,25,-1
 683 455 l 1,26,-1
 910 455 l 1,27,-1
 910 228 l 1,24,-1
EndSplineSet
Validated: 5
EndChar

StartChar: uni20BA
Encoding: 8378 8378 334
Width: 1365
GlyphClass: 2
Flags: W
LayerCount: 4
Fore
SplineSet
1138 228 m 1,0,-1
 910 228 l 1,1,-1
 910 455 l 1,2,-1
 1138 455 l 1,3,-1
 1138 228 l 1,0,-1
455 228 m 1,4,-1
 910 228 l 1,5,-1
 910 0 l 1,6,-1
 228 0 l 1,7,-1
 228 455 l 1,8,-1
 0 455 l 1,9,-1
 0 683 l 1,10,-1
 228 683 l 1,11,-1
 228 910 l 1,12,-1
 0 910 l 1,13,-1
 0 1138 l 1,14,-1
 228 1138 l 1,15,-1
 228 1593 l 1,16,-1
 455 1593 l 1,17,-1
 455 1365 l 1,18,-1
 683 1365 l 1,19,-1
 683 1138 l 1,20,-1
 455 1138 l 1,21,-1
 455 910 l 1,22,-1
 683 910 l 1,23,-1
 683 683 l 1,24,-1
 455 683 l 1,25,-1
 455 228 l 1,4,-1
EndSplineSet
Validated: 5
EndChar

StartChar: uni20A0
Encoding: 8352 8352 335
Width: 1365
GlyphClass: 2
Flags: W
LayerCount: 4
Fore
SplineSet
683 228 m 1,0,-1
 1138 228 l 1,1,-1
 1138 0 l 1,2,-1
 455 0 l 1,3,-1
 455 455 l 1,4,-1
 228 455 l 1,5,-1
 228 683 l 1,6,-1
 455 683 l 1,7,-1
 455 1138 l 1,8,-1
 1138 1138 l 1,9,-1
 1138 910 l 1,10,-1
 683 910 l 1,11,-1
 683 683 l 1,12,-1
 1138 683 l 1,13,-1
 1138 455 l 1,14,-1
 683 455 l 1,15,-1
 683 228 l 1,0,-1
228 683 m 1,16,-1
 0 683 l 1,17,-1
 0 1365 l 1,18,-1
 228 1365 l 1,19,-1
 228 683 l 1,16,-1
683 1365 m 1,20,-1
 228 1365 l 1,21,-1
 228 1593 l 1,22,-1
 683 1593 l 1,23,-1
 683 1365 l 1,20,-1
EndSplineSet
Validated: 5
EndChar

StartChar: uni20AD
Encoding: 8365 8365 336
Width: 1365
GlyphClass: 2
Flags: W
LayerCount: 4
Fore
SplineSet
1138 1365 m 1,0,-1
 910 1365 l 1,1,-1
 910 1593 l 1,2,-1
 1138 1593 l 1,3,-1
 1138 1365 l 1,0,-1
0 910 m 1,4,-1
 0 1593 l 1,5,-1
 228 1593 l 1,6,-1
 228 910 l 1,7,-1
 455 910 l 1,8,-1
 455 1138 l 1,9,-1
 683 1138 l 1,10,-1
 683 910 l 1,11,-1
 1138 910 l 1,12,-1
 1138 683 l 1,13,-1
 683 683 l 1,14,-1
 683 455 l 1,15,-1
 455 455 l 1,16,-1
 455 683 l 1,17,-1
 228 683 l 1,18,-1
 228 0 l 1,19,-1
 0 0 l 1,20,-1
 0 683 l 1,21,-1
 -228 683 l 1,22,-1
 -228 910 l 1,23,-1
 0 910 l 1,4,-1
910 228 m 1,24,-1
 683 228 l 1,25,-1
 683 455 l 1,26,-1
 910 455 l 1,27,-1
 910 228 l 1,24,-1
1138 0 m 1,28,-1
 910 0 l 1,29,-1
 910 228 l 1,30,-1
 1138 228 l 1,31,-1
 1138 0 l 1,28,-1
910 1138 m 1,32,-1
 683 1138 l 1,33,-1
 683 1365 l 1,34,-1
 910 1365 l 1,35,-1
 910 1138 l 1,32,-1
EndSplineSet
Validated: 5
EndChar

StartChar: arrowleft
Encoding: 8592 8592 337
Width: 1365
GlyphClass: 2
Flags: W
LayerCount: 4
Fore
SplineSet
683 1138 m 1,0,-1
 455 1138 l 1,1,-1
 455 1365 l 1,2,-1
 683 1365 l 1,3,-1
 683 1138 l 1,0,-1
683 228 m 1,4,-1
 455 228 l 1,5,-1
 455 455 l 1,6,-1
 683 455 l 1,7,-1
 683 228 l 1,4,-1
228 910 m 1,8,-1
 228 1138 l 1,9,-1
 455 1138 l 1,10,-1
 455 910 l 1,11,-1
 1138 910 l 1,12,-1
 1138 683 l 1,13,-1
 455 683 l 1,14,-1
 455 455 l 1,15,-1
 228 455 l 1,16,-1
 228 683 l 1,17,-1
 0 683 l 1,18,-1
 0 910 l 1,19,-1
 228 910 l 1,8,-1
EndSplineSet
Validated: 5
EndChar

StartChar: arrowup
Encoding: 8593 8593 338
Width: 1365
GlyphClass: 2
Flags: W
LayerCount: 4
Fore
SplineSet
228 683 m 1,0,-1
 0 683 l 1,1,-1
 0 910 l 1,2,-1
 228 910 l 1,3,-1
 228 683 l 1,0,-1
1138 683 m 1,4,-1
 910 683 l 1,5,-1
 910 910 l 1,6,-1
 1138 910 l 1,7,-1
 1138 683 l 1,4,-1
455 910 m 1,8,-1
 228 910 l 1,9,-1
 228 1138 l 1,10,-1
 455 1138 l 1,11,-1
 455 1365 l 1,12,-1
 683 1365 l 1,13,-1
 683 1138 l 1,14,-1
 910 1138 l 1,15,-1
 910 910 l 1,16,-1
 683 910 l 1,17,-1
 683 228 l 1,18,-1
 455 228 l 1,19,-1
 455 910 l 1,8,-1
EndSplineSet
Validated: 5
EndChar

StartChar: arrowright
Encoding: 8594 8594 339
Width: 1365
GlyphClass: 2
Flags: W
LayerCount: 4
Fore
SplineSet
455 1138 m 1,0,-1
 455 1365 l 1,1,-1
 683 1365 l 1,2,-1
 683 1138 l 1,3,-1
 455 1138 l 1,0,-1
455 228 m 1,4,-1
 455 455 l 1,5,-1
 683 455 l 1,6,-1
 683 228 l 1,7,-1
 455 228 l 1,4,-1
683 910 m 1,8,-1
 683 1138 l 1,9,-1
 910 1138 l 1,10,-1
 910 910 l 1,11,-1
 1138 910 l 1,12,-1
 1138 683 l 1,13,-1
 910 683 l 1,14,-1
 910 455 l 1,15,-1
 683 455 l 1,16,-1
 683 683 l 1,17,-1
 0 683 l 1,18,-1
 0 910 l 1,19,-1
 683 910 l 1,8,-1
EndSplineSet
Validated: 5
EndChar

StartChar: arrowdown
Encoding: 8595 8595 340
Width: 1365
GlyphClass: 2
Flags: W
LayerCount: 4
Fore
SplineSet
910 910 m 1,0,-1
 1138 910 l 1,1,-1
 1138 683 l 1,2,-1
 910 683 l 1,3,-1
 910 910 l 1,0,-1
0 910 m 1,4,-1
 228 910 l 1,5,-1
 228 683 l 1,6,-1
 0 683 l 1,7,-1
 0 910 l 1,4,-1
683 683 m 1,8,-1
 910 683 l 1,9,-1
 910 455 l 1,10,-1
 683 455 l 1,11,-1
 683 228 l 1,12,-1
 455 228 l 1,13,-1
 455 455 l 1,14,-1
 228 455 l 1,15,-1
 228 683 l 1,16,-1
 455 683 l 1,17,-1
 455 1365 l 1,18,-1
 683 1365 l 1,19,-1
 683 683 l 1,8,-1
EndSplineSet
Validated: 5
EndChar

StartChar: equivalence
Encoding: 8801 8801 341
Width: 1365
GlyphClass: 2
Flags: W
LayerCount: 4
Fore
SplineSet
1138 1138 m 1,0,-1
 0 1138 l 1,1,-1
 0 1365 l 1,2,-1
 1138 1365 l 1,3,-1
 1138 1138 l 1,0,-1
1138 228 m 1,4,-1
 0 228 l 1,5,-1
 0 455 l 1,6,-1
 1138 455 l 1,7,-1
 1138 228 l 1,4,-1
1138 683 m 1,8,-1
 0 683 l 1,9,-1
 0 910 l 1,10,-1
 1138 910 l 1,11,-1
 1138 683 l 1,8,-1
EndSplineSet
Validated: 1
EndChar

StartChar: triagup
Encoding: 9650 9650 342
Width: 1365
GlyphClass: 2
Flags: W
LayerCount: 4
Fore
SplineSet
455 1138 m 1,0,-1
 455 1365 l 1,1,-1
 683 1365 l 1,2,-1
 683 1138 l 1,3,-1
 910 1138 l 1,4,-1
 910 683 l 1,5,-1
 1138 683 l 1,6,-1
 1138 228 l 1,7,-1
 0 228 l 1,8,-1
 0 683 l 1,9,-1
 228 683 l 1,10,-1
 228 1138 l 1,11,-1
 455 1138 l 1,0,-1
EndSplineSet
Validated: 1
EndChar

StartChar: triagdn
Encoding: 9660 9660 343
Width: 1365
GlyphClass: 2
Flags: W
LayerCount: 4
Fore
SplineSet
683 455 m 1,0,-1
 683 228 l 1,1,-1
 455 228 l 1,2,-1
 455 455 l 1,3,-1
 228 455 l 1,4,-1
 228 910 l 1,5,-1
 0 910 l 1,6,-1
 0 1365 l 1,7,-1
 1138 1365 l 1,8,-1
 1138 910 l 1,9,-1
 910 910 l 1,10,-1
 910 455 l 1,11,-1
 683 455 l 1,0,-1
EndSplineSet
Validated: 1
EndChar

StartChar: triaglf
Encoding: 9668 9668 344
Width: 1365
GlyphClass: 2
Flags: W
LayerCount: 4
Fore
SplineSet
228 683 m 1,0,-1
 0 683 l 1,1,-1
 0 910 l 1,2,-1
 228 910 l 1,3,-1
 228 1138 l 1,4,-1
 683 1138 l 1,5,-1
 683 1365 l 1,6,-1
 1138 1365 l 1,7,-1
 1138 228 l 1,8,-1
 683 228 l 1,9,-1
 683 455 l 1,10,-1
 228 455 l 1,11,-1
 228 683 l 1,0,-1
EndSplineSet
Validated: 1
EndChar

StartChar: triagrt
Encoding: 9658 9658 345
Width: 1365
GlyphClass: 2
Flags: W
LayerCount: 4
Fore
SplineSet
910 910 m 1,0,-1
 1138 910 l 1,1,-1
 1138 683 l 1,2,-1
 910 683 l 1,3,-1
 910 455 l 1,4,-1
 455 455 l 1,5,-1
 455 228 l 1,6,-1
 0 228 l 1,7,-1
 0 1365 l 1,8,-1
 455 1365 l 1,9,-1
 455 1138 l 1,10,-1
 910 1138 l 1,11,-1
 910 910 l 1,0,-1
EndSplineSet
Validated: 1
EndChar

StartChar: H18533
Encoding: 9679 9679 346
Width: 1365
GlyphClass: 2
Flags: W
LayerCount: 4
Fore
SplineSet
910 910 m 1,0,-1
 1138 910 l 1,1,-1
 1138 683 l 1,2,-1
 910 683 l 1,3,-1
 910 455 l 1,4,-1
 683 455 l 1,5,-1
 683 228 l 1,6,-1
 455 228 l 1,7,-1
 455 455 l 1,8,-1
 228 455 l 1,9,-1
 228 683 l 1,10,-1
 0 683 l 1,11,-1
 0 910 l 1,12,-1
 228 910 l 1,13,-1
 228 1138 l 1,14,-1
 455 1138 l 1,15,-1
 455 1365 l 1,16,-1
 683 1365 l 1,17,-1
 683 1138 l 1,18,-1
 910 1138 l 1,19,-1
 910 910 l 1,0,-1
EndSplineSet
Validated: 1
EndChar

StartChar: u1F4E4
Encoding: 128228 128228 347
Width: 1365
GlyphClass: 2
Flags: W
LayerCount: 4
Fore
SplineSet
0 455 m 1,0,-1
 228 455 l 1,1,-1
 228 228 l 1,2,-1
 910 228 l 1,3,-1
 910 455 l 1,4,-1
 1138 455 l 1,5,-1
 1138 0 l 1,6,-1
 0 0 l 1,7,-1
 0 455 l 1,0,-1
0 1138 m 1,8,-1
 228 1138 l 1,9,-1
 228 910 l 1,10,-1
 0 910 l 1,11,-1
 0 1138 l 1,8,-1
910 1138 m 1,12,-1
 1138 1138 l 1,13,-1
 1138 910 l 1,14,-1
 910 910 l 1,15,-1
 910 1138 l 1,12,-1
683 1365 m 1,16,-1
 910 1365 l 1,17,-1
 910 1138 l 1,18,-1
 683 1138 l 1,19,-1
 683 455 l 1,20,-1
 455 455 l 1,21,-1
 455 1138 l 1,22,-1
 228 1138 l 1,23,-1
 228 1365 l 1,24,-1
 455 1365 l 1,25,-1
 455 1593 l 1,26,-1
 683 1593 l 1,27,-1
 683 1365 l 1,16,-1
EndSplineSet
Validated: 5
EndChar

